<svg version="1.1" xmlns="http://www.w3.org/2000/svg" xmlns:xlink="http://www.w3.org/1999/xlink" width="720" height="540" viewBox="0,0,720,540"><defs><clipPath id="clip-1"><rect x="-240" y="-180" transform="scale(0.5,0.5)" width="1440" height="1080" fill="none" fill-rule="nonzero" stroke-width="0.5" stroke-linecap="butt"/></clipPath></defs><g transform="translate(120,90)"><g clip-path="url(#clip-1)" data-paper-data="{&quot;isPaintingLayer&quot;:true}" stroke="none" stroke-linejoin="miter" stroke-miterlimit="10" stroke-dasharray="" stroke-dashoffset="0" style="mix-blend-mode: normal"><path d="M-240,-180h960v720h-960z" fill-opacity="0" fill="#000000" fill-rule="evenodd" stroke-width="1" stroke-linecap="square"/><path d="M-141.58793,-111.3832h675.4331v450.29922h-675.4331z" fill-opacity="0" fill="#000000" fill-rule="evenodd" stroke-width="1" stroke-linecap="square"/><path d="M-129.87402,-96.13911h721.16534v521.8268h-721.16534z" fill-opacity="0" fill="#000000" fill-rule="evenodd" stroke-width="1" stroke-linecap="square"/><path d="M-115.49902,-71.66785h22.81251v8.53125h-14.15625v8.34375h14.15625v8.40624h-14.15625v20.6875h-8.65626zM-86.74901,-72.8241h8.53125v47.12499h-8.53125zM-67.15526,-73.6991c1.5,0 2.78646,0.54167 3.85938,1.625c1.07292,1.08333 1.60938,2.39583 1.60938,3.9375c0,1.52083 -0.53125,2.81771 -1.59375,3.89063c-1.0625,1.07292 -2.33333,1.60938 -3.8125,1.60938c-1.52083,0 -2.81771,-0.54687 -3.89062,-1.64062c-1.07292,-1.09375 -1.60937,-2.42187 -1.60937,-3.98437c0,-1.5 0.53125,-2.78125 1.59375,-3.84375c1.0625,-1.0625 2.34375,-1.59375 3.84375,-1.59375zM-71.43651,-59.6991h8.5625v33.99999h-8.5625zM-46.68651,-59.6991v3.75c1.54167,-1.54167 3.20833,-2.69792 5,-3.46875c1.79167,-0.77083 3.70833,-1.15625 5.75,-1.15625c4.4375,0 8.20833,1.67708 11.3125,5.03125c3.10417,3.35416 4.65625,7.65624 4.65625,12.90624c0,5.0625 -1.60417,9.29688 -4.8125,12.70313c-3.20833,3.40625 -7.01042,5.10938 -11.40625,5.10938c-1.95833,0 -3.78125,-0.34896 -5.46875,-1.04687c-1.6875,-0.69792 -3.36458,-1.83854 -5.03125,-3.42187v16.03125h-8.46875v-46.43749zM-37.71776,-52.6991c-2.6875,0 -4.91667,0.91666 -6.6875,2.74999c-1.77083,1.83333 -2.65625,4.22917 -2.65625,7.1875c0,3.02083 0.88542,5.46354 2.65625,7.32813c1.77083,1.86458 4,2.79688 6.6875,2.79688c2.60417,0 4.79688,-0.94792 6.57813,-2.84375c1.78125,-1.89583 2.67188,-4.3125 2.67188,-7.25c0,-2.91667 -0.875,-5.30729 -2.625,-7.17187c-1.75,-1.86458 -3.95833,-2.79687 -6.625,-2.79687z" fill="#ffffff" fill-rule="nonzero" stroke-width="1" stroke-linecap="square"/><path d="M-108.71776,16.67589h-8.40626c0.4375,-3.39583 1.65625,-6.125 3.65625,-8.1875c2.79167,-2.875 6.30209,-4.3125 10.53126,-4.3125c3.77083,0 6.93229,1.19792 9.48438,3.59375c2.55208,2.39583 3.82813,5.23958 3.82813,8.53125c0,2.04167 -0.55729,3.90625 -1.67187,5.59375c-1.11458,1.6875 -2.73437,3.05208 -4.85937,4.09375c2.79167,0.83333 4.97396,2.28646 6.54688,4.35938c1.57292,2.07292 2.35938,4.51563 2.35938,7.32813c0,4.125 -1.52083,7.61979 -4.5625,10.48438c-3.04167,2.86458 -6.91667,4.29688 -11.625,4.29688c-4.45833,0 -8.09375,-1.34896 -10.90626,-4.04687c-2.8125,-2.69792 -4.35417,-6.36979 -4.625,-11.01562h8.65626c0.375,2.375 1.20313,4.14063 2.48438,5.29688c1.28125,1.15625 2.90104,1.73438 4.85938,1.73438c2.04167,0 3.73438,-0.65625 5.07813,-1.96875c1.34375,-1.3125 2.01563,-2.91667 2.01563,-4.8125c0,-2.08333 -0.90625,-3.84375 -2.71875,-5.28125c-1.8125,-1.4375 -4.42708,-2.17708 -7.84375,-2.21875v-7.5c2.10417,-0.16667 3.67188,-0.49479 4.70313,-0.98437c1.03125,-0.48958 1.83333,-1.16146 2.40625,-2.01562c0.57292,-0.85417 0.85938,-1.76042 0.85938,-2.71875c0,-1.25 -0.4375,-2.28646 -1.3125,-3.10937c-0.875,-0.82292 -2.02083,-1.23437 -3.4375,-1.23437c-1.25,0 -2.38542,0.38021 -3.40625,1.14063c-1.02083,0.76042 -1.71875,1.74479 -2.09375,2.95313zM-79.74901,5.33214h10.375c6.6875,0 11.65625,0.82813 14.90625,2.48438c3.25,1.65625 5.92708,4.34896 8.03125,8.07813c2.10417,3.72917 3.15625,8.08333 3.15625,13.0625c0,3.54167 -0.58854,6.79688 -1.76562,9.76563c-1.17708,2.96875 -2.80208,5.43229 -4.875,7.39063c-2.07292,1.95833 -4.31771,3.3125 -6.73437,4.0625c-2.41667,0.75 -6.60417,1.125 -12.5625,1.125h-10.53125zM-71.03026,13.76964v28.96875h4.0625c4,0 6.90104,-0.45833 8.70313,-1.375c1.80208,-0.91667 3.27604,-2.45833 4.42188,-4.625c1.14583,-2.16667 1.71875,-4.83333 1.71875,-8c0,-4.875 -1.36458,-8.65625 -4.09375,-11.34375c-2.45833,-2.41667 -6.40625,-3.625 -11.84375,-3.625z" fill="#ffffff" fill-rule="nonzero" stroke-width="1" stroke-linecap="square"/></g></g></svg>