<svg version="1.1" xmlns="http://www.w3.org/2000/svg" xmlns:xlink="http://www.w3.org/1999/xlink" width="500" height="378.37838" viewBox="0,0,500,378.37838"><g transform="translate(10,9.18919)"><g data-paper-data="{&quot;isPaintingLayer&quot;:true}" fill-rule="nonzero" stroke="none" stroke-linejoin="miter" stroke-miterlimit="10" stroke-dasharray="" stroke-dashoffset="0" style="mix-blend-mode: normal"><path d="M-10,369.18919v-378.37838h500v378.37838z" fill="#000000" stroke-width="0" stroke-linecap="butt"/><path d="M133.71454,204.86718c-0.9375,0 -1.71354,-0.31771 -2.32812,-0.95312c-0.61459,-0.64584 -0.92187,-1.4375 -0.92187,-2.375v-43.32811c0,-0.9375 0.31771,-1.72396 0.95313,-2.35937c0.63541,-0.64584 1.40104,-0.96875 2.29688,-0.96875c0.94791,0 1.73959,0.32291 2.375,0.96875c0.63541,0.63541 0.95313,1.42188 0.95313,2.35938v39.99999h23.17189c0.9375,0 1.72396,0.32291 2.35938,0.96875c0.64584,0.63541 0.96875,1.42188 0.96875,2.35938c0,0.9375 -0.32291,1.72916 -0.96875,2.375c-0.63541,0.63541 -1.42187,0.95313 -2.35937,0.95313zM187.34936,205.11718c-3.54166,0 -6.6875,-0.75521 -9.4375,-2.26562c-2.75,-1.51041 -4.90625,-3.59896 -6.46875,-6.26562c-1.55209,-2.66666 -2.32812,-5.72915 -2.32812,-9.18749c0,-3.5 0.73438,-6.58334 2.20313,-9.25c1.47916,-2.66666 3.51563,-4.75521 6.10938,-6.26562c2.60416,-1.52084 5.59375,-2.28125 8.96875,-2.28125c3.32291,0 6.17708,0.73959 8.5625,2.21875c2.39583,1.46875 4.22396,3.49479 5.48438,6.07812c1.26041,2.57291 1.89063,5.54688 1.89063,8.92188c0,0.8125 -0.28125,1.48438 -0.84375,2.01563c-0.55209,0.53125 -1.25521,0.79688 -2.10937,0.79688h-25.78125v-5.125h25.59375l-2.625,1.79688c-0.04167,-2.13541 -0.46875,-4.04166 -1.28125,-5.71875c-0.8125,-1.6875 -1.96354,-3.02084 -3.45312,-4c-1.48959,-0.98958 -3.30209,-1.48437 -5.4375,-1.48437c-2.4375,0 -4.52084,0.53646 -6.25,1.60937c-1.71875,1.0625 -3.02604,2.52604 -3.92187,4.39063c-0.89584,1.85416 -1.34375,3.95313 -1.34375,6.29688c0,2.34375 0.53125,4.43229 1.59375,6.26563c1.0625,1.83333 2.53125,3.28645 4.40625,4.35936c1.88541,1.0625 4.04166,1.59375 6.46875,1.59375c1.32291,0 2.67709,-0.24479 4.0625,-0.73437c1.39584,-0.48959 2.51563,-1.05729 3.35938,-1.70312c0.64583,-0.46875 1.33854,-0.71354 2.07813,-0.73437c0.75,-0.02084 1.40104,0.20313 1.95313,0.67188c0.72916,0.64584 1.11458,1.35416 1.15625,2.125c0.04166,0.76041 -0.29687,1.42188 -1.01562,1.98438c-1.45834,1.14584 -3.26562,2.08334 -5.42187,2.8125c-2.14584,0.71875 -4.20312,1.07813 -6.17187,1.07813zM221.20391,204.80468c-1.32291,0 -2.34375,-0.70312 -3.0625,-2.10937l-13.57812,-28.60936c-0.33333,-0.72916 -0.36458,-1.44271 -0.09375,-2.14062c0.28125,-0.70834 0.82813,-1.25521 1.64063,-1.64062c0.71875,-0.38541 1.45313,-0.44791 2.20313,-0.1875c0.75,0.25 1.31771,0.73959 1.70313,1.46875l12.67188,27.32811h-3.07812l12.54688,-27.32811c0.38541,-0.72916 0.96875,-1.21875 1.75,-1.46875c0.79166,-0.26041 1.59375,-0.19791 2.40625,0.1875c0.77084,0.34375 1.28125,0.88021 1.53125,1.60938c0.26041,0.71875 0.21875,1.44271 -0.125,2.17188l-13.5625,28.60936c-0.64584,1.40625 -1.63021,2.10938 -2.95312,2.10938zM259.60523,205.11718c-3.54167,0 -6.6875,-0.75521 -9.4375,-2.26562c-2.75,-1.51041 -4.90625,-3.59896 -6.46875,-6.26562c-1.55208,-2.66666 -2.32812,-5.72915 -2.32812,-9.18749c0,-3.5 0.73438,-6.58334 2.20313,-9.25c1.47917,-2.66666 3.51563,-4.75521 6.10938,-6.26562c2.60417,-1.52084 5.59375,-2.28125 8.96875,-2.28125c3.32291,0 6.17708,0.73959 8.5625,2.21875c2.39583,1.46875 4.22396,3.49479 5.48438,6.07812c1.26041,2.57291 1.89063,5.54688 1.89063,8.92188c0,0.8125 -0.28125,1.48438 -0.84375,2.01563c-0.55209,0.53125 -1.25521,0.79688 -2.10937,0.79688h-25.78125v-5.125h25.59375l-2.625,1.79688c-0.04167,-2.13541 -0.46875,-4.04166 -1.28125,-5.71875c-0.8125,-1.6875 -1.96354,-3.02084 -3.45312,-4c-1.48959,-0.98958 -3.30209,-1.48437 -5.4375,-1.48437c-2.4375,0 -4.52084,0.53646 -6.25,1.60937c-1.71875,1.0625 -3.02604,2.52604 -3.92187,4.39063c-0.89583,1.85416 -1.34375,3.95313 -1.34375,6.29688c0,2.34375 0.53125,4.43229 1.59375,6.26563c1.0625,1.83333 2.53125,3.28645 4.40625,4.35936c1.88541,1.0625 4.04166,1.59375 6.46875,1.59375c1.32291,0 2.67708,-0.24479 4.0625,-0.73437c1.39583,-0.48959 2.51563,-1.05729 3.35938,-1.70312c0.64583,-0.46875 1.33854,-0.71354 2.07813,-0.73437c0.75,-0.02084 1.40104,0.20313 1.95313,0.67188c0.72916,0.64584 1.11458,1.35416 1.15625,2.125c0.04166,0.76041 -0.29687,1.42188 -1.01562,1.98438c-1.45834,1.14584 -3.26562,2.08334 -5.42187,2.8125c-2.14584,0.71875 -4.20312,1.07813 -6.17187,1.07813zM291.22416,204.86718c-1.875,0 -3.54166,-0.51041 -5,-1.53125c-1.44791,-1.03125 -2.57812,-2.43229 -3.39062,-4.20312c-0.80209,-1.77084 -1.20312,-3.80729 -1.20312,-6.10936v-34.9375c0,-0.9375 0.29688,-1.70312 0.89063,-2.29687c0.59375,-0.60416 1.36458,-0.90625 2.3125,-0.90625c0.9375,0 1.70312,0.30209 2.29687,0.90625c0.59375,0.59375 0.89063,1.35938 0.89063,2.29688v34.9375c0,1.58333 0.29688,2.8854 0.89063,3.90624c0.60417,1.02084 1.375,1.53125 2.3125,1.53125h1.60938c0.84375,0 1.53125,0.30209 2.0625,0.90625c0.54167,0.59375 0.8125,1.35938 0.8125,2.29688c0,0.9375 -0.40625,1.70834 -1.21875,2.3125c-0.8125,0.59375 -1.85937,0.89063 -3.14062,0.89063zM322.51984,204.86718c-0.9375,0 -1.71875,-0.31771 -2.34375,-0.95312c-0.61459,-0.64584 -0.92187,-1.41666 -0.92187,-2.3125c0,-0.9375 0.30208,-1.70312 0.90625,-2.29687l18.17187,-21.24999c1.28125,-1.5 2.27084,-2.91146 2.96875,-4.23437c0.70834,-1.32291 1.0625,-2.57812 1.0625,-3.76562c0,-1.875 -0.32291,-3.49479 -0.96875,-4.85937c-0.63541,-1.375 -1.55208,-2.43229 -2.75,-3.17187c-1.1875,-0.75 -2.61458,-1.125 -4.28125,-1.125c-1.625,0 -3.08854,0.41666 -4.39062,1.25c-1.30209,0.83334 -2.32812,1.94271 -3.07812,3.32813c-0.73959,1.38541 -1.10937,2.91146 -1.10937,4.57813c0,0.85416 -0.3125,1.60416 -0.9375,2.25c-0.61459,0.63541 -1.39062,0.95313 -2.32812,0.95313c-0.89584,0 -1.66667,-0.31771 -2.3125,-0.95312c-0.63542,-0.64584 -0.95312,-1.39584 -0.95312,-2.25c0,-2.90625 0.66146,-5.5 1.98438,-7.78125c1.32291,-2.28125 3.125,-4.08334 5.40625,-5.40625c2.28125,-1.32291 4.85416,-1.98437 7.71875,-1.98437c2.89583,0 5.41146,0.61979 7.54687,1.85938c2.13542,1.23959 3.78646,2.98959 4.95313,5.25c1.17709,2.26041 1.76563,4.94791 1.76563,8.0625c0,1.36459 -0.28646,2.75 -0.85937,4.15625c-0.57291,1.40625 -1.29687,2.75 -2.17187,4.03125c-0.875,1.28125 -1.76041,2.43229 -2.65625,3.45313l-14.65625,16.64061h17.92187c0.9375,0 1.72396,0.33334 2.35938,1c0.64584,0.65625 0.96875,1.41146 0.96875,2.26563c0,0.89584 -0.32291,1.66666 -0.96875,2.3125c-0.63541,0.63541 -1.42187,0.95313 -2.35937,0.95313z" fill="#ffffff" stroke-width="1" stroke-linecap="square"/></g></g></svg>