<svg version="1.1" xmlns="http://www.w3.org/2000/svg" xmlns:xlink="http://www.w3.org/1999/xlink" width="778.29133" height="583.87688"><g transform="translate(13,5.18919)"><g data-paper-data="{&quot;isPaintingLayer&quot;:true}" fill="none" fill-rule="none" stroke="none" stroke-width="none" stroke-linecap="none" stroke-linejoin="miter" stroke-miterlimit="10" stroke-dasharray="" stroke-dashoffset="0" font-family="none" font-weight="none" font-size="none" text-anchor="none" style="mix-blend-mode: normal"><path d="M-13,373.18919v-378.37838h500v378.37838z" data-paper-data="{&quot;origPos&quot;:null}" fill="#000000" fill-rule="nonzero" stroke-width="0" stroke-linecap="butt"/><path d="M32.41207,41.6168h675.4331v450.29922h-675.4331z" data-paper-data="{&quot;origPos&quot;:null}" fill="none" fill-rule="evenodd" stroke-width="1" stroke-linecap="square"/><path d="M44.12599,56.86089h721.16534v521.8268h-721.16534z" data-paper-data="{&quot;origPos&quot;:null}" fill="none" fill-rule="evenodd" stroke-width="1" stroke-linecap="square"/><path d="M62.78224,127.30089c-0.93751,0 -1.71355,-0.31771 -2.32814,-0.95312c-0.61458,-0.64584 -0.92187,-1.4375 -0.92187,-2.375v-43.32811c0,-0.9375 0.31771,-1.72396 0.95313,-2.35937c0.63542,-0.64584 1.40105,-0.96875 2.29689,-0.96875c0.94792,0 1.73959,0.32291 2.375,0.96875c0.63541,0.63541 0.95313,1.42188 0.95313,2.35938v39.99999h23.17188c0.9375,0 1.72396,0.32291 2.35938,0.96875c0.64584,0.63541 0.96875,1.42188 0.96875,2.35938c0,0.9375 -0.32291,1.72916 -0.96875,2.375c-0.63541,0.63541 -1.42187,0.95313 -2.35937,0.95313zM116.41705,127.55089c-3.54166,0 -6.6875,-0.75521 -9.4375,-2.26562c-2.75,-1.51041 -4.90625,-3.59896 -6.46875,-6.26562c-1.55209,-2.66666 -2.32812,-5.72916 -2.32812,-9.1875c0,-3.5 0.73438,-6.58333 2.20313,-9.24999c1.47916,-2.66666 3.51563,-4.75521 6.10938,-6.26562c2.60416,-1.52084 5.59375,-2.28125 8.96875,-2.28125c3.32291,0 6.17709,0.73959 8.5625,2.21875c2.39584,1.46875 4.22396,3.49479 5.48437,6.07813c1.26041,2.57291 1.89063,5.54686 1.89063,8.92186c0,0.8125 -0.28125,1.48438 -0.84375,2.01563c-0.55209,0.53125 -1.25521,0.79688 -2.10937,0.79688h-25.78125v-5.125h25.59375l-2.625,1.79688c-0.04166,-2.13541 -0.46875,-4.04166 -1.28125,-5.71875c-0.8125,-1.68749 -1.96354,-3.02083 -3.45312,-3.99999c-1.48959,-0.98959 -3.30209,-1.48437 -5.4375,-1.48437c-2.4375,0 -4.52084,0.53646 -6.25,1.60938c-1.71875,1.0625 -3.02604,2.52603 -3.92187,4.39061c-0.89584,1.85416 -1.34375,3.95313 -1.34375,6.29688c0,2.34375 0.53125,4.43229 1.59375,6.26563c1.0625,1.83334 2.53125,3.28646 4.40625,4.35938c1.88541,1.0625 4.04166,1.59375 6.46875,1.59375c1.32291,0 2.67709,-0.24479 4.0625,-0.73437c1.39584,-0.48959 2.51563,-1.05729 3.35938,-1.70312c0.64584,-0.46875 1.33854,-0.71354 2.07813,-0.73437c0.75,-0.02084 1.40104,0.20313 1.95313,0.67188c0.72917,0.64584 1.11458,1.35416 1.15625,2.125c0.04166,0.76041 -0.29687,1.42188 -1.01562,1.98438c-1.45834,1.14584 -3.26562,2.08334 -5.42187,2.8125c-2.14584,0.71875 -4.20312,1.07813 -6.17187,1.07813zM150.27161,127.23839c-1.32291,0 -2.34375,-0.70312 -3.0625,-2.10937l-13.57812,-28.60936c-0.33334,-0.72916 -0.36459,-1.44271 -0.09375,-2.14062c0.28125,-0.70834 0.82813,-1.25521 1.64063,-1.64062c0.71875,-0.38541 1.45313,-0.44791 2.20313,-0.1875c0.75,0.25 1.31771,0.73959 1.70313,1.46875l12.67188,27.32811h-3.07812l12.54688,-27.32811c0.38541,-0.72916 0.96875,-1.21875 1.75,-1.46875c0.79166,-0.26041 1.59375,-0.19791 2.40625,0.1875c0.77084,0.34375 1.28125,0.88021 1.53125,1.60938c0.26041,0.71875 0.21875,1.44271 -0.125,2.17188l-13.5625,28.60936c-0.64584,1.40625 -1.63021,2.10938 -2.95312,2.10938zM188.67293,127.55089c-3.54166,0 -6.6875,-0.75521 -9.4375,-2.26562c-2.75,-1.51041 -4.90625,-3.59896 -6.46875,-6.26562c-1.55209,-2.66666 -2.32812,-5.72916 -2.32812,-9.1875c0,-3.5 0.73438,-6.58333 2.20313,-9.24999c1.47916,-2.66666 3.51563,-4.75521 6.10938,-6.26562c2.60416,-1.52084 5.59375,-2.28125 8.96875,-2.28125c3.3229,0 6.17707,0.73959 8.56249,2.21875c2.39584,1.46875 4.22396,3.49479 5.48438,6.07813c1.26041,2.57291 1.89063,5.54686 1.89063,8.92186c0,0.8125 -0.28125,1.48438 -0.84375,2.01563c-0.55209,0.53125 -1.25521,0.79688 -2.10937,0.79688h-25.78124v-5.125h25.59374l-2.625,1.79688c-0.04166,-2.13541 -0.46875,-4.04166 -1.28125,-5.71875c-0.8125,-1.68749 -1.96354,-3.02083 -3.45312,-3.99999c-1.48959,-0.98959 -3.30208,-1.48437 -5.43749,-1.48437c-2.4375,0 -4.52084,0.53646 -6.25,1.60938c-1.71875,1.0625 -3.02604,2.52603 -3.92187,4.39061c-0.89584,1.85416 -1.34375,3.95313 -1.34375,6.29688c0,2.34375 0.53125,4.43229 1.59375,6.26563c1.0625,1.83334 2.53125,3.28646 4.40625,4.35938c1.88541,1.0625 4.04166,1.59375 6.46875,1.59375c1.3229,0 2.67707,-0.24479 4.06249,-0.73437c1.39584,-0.48959 2.51563,-1.05729 3.35938,-1.70312c0.64584,-0.46875 1.33854,-0.71354 2.07813,-0.73437c0.75,-0.02084 1.40104,0.20313 1.95313,0.67188c0.72916,0.64584 1.11459,1.35416 1.15625,2.125c0.04166,0.76041 -0.29687,1.42188 -1.01562,1.98438c-1.45834,1.14584 -3.26562,2.08334 -5.42187,2.8125c-2.14584,0.71875 -4.20312,1.07813 -6.17186,1.07813zM220.29184,127.30089c-1.875,0 -3.54166,-0.51041 -5,-1.53125c-1.44791,-1.03125 -2.57812,-2.43229 -3.39062,-4.20312c-0.80209,-1.77084 -1.20312,-3.80729 -1.20312,-6.10937v-34.93749c0,-0.9375 0.29688,-1.70312 0.89063,-2.29687c0.59375,-0.60416 1.36459,-0.90625 2.3125,-0.90625c0.9375,0 1.70313,0.30209 2.29688,0.90625c0.59375,0.59375 0.89063,1.35938 0.89063,2.29688v34.93749c0,1.58334 0.29688,2.88541 0.89063,3.90625c0.60416,1.02084 1.375,1.53125 2.3125,1.53125h1.60938c0.84375,0 1.53125,0.30209 2.0625,0.90625c0.54166,0.59375 0.8125,1.35938 0.8125,2.29688c0,0.9375 -0.40625,1.70834 -1.21875,2.3125c-0.8125,0.59375 -1.85937,0.89063 -3.14062,0.89063zM259.58752,127.30089c-0.85417,0 -1.60417,-0.31771 -2.25,-0.95312c-0.63542,-0.64584 -0.95312,-1.41666 -0.95312,-2.3125v-39.03124l-4.67187,1.98438c-0.71875,0.29166 -1.40104,0.4375 -2.04687,0.4375c-0.9375,0 -1.71875,-0.29687 -2.34375,-0.89062c-0.61459,-0.59375 -0.92187,-1.36459 -0.92187,-2.3125c0,-0.67709 0.17188,-1.29166 0.51563,-1.84375c0.34375,-0.5625 0.88021,-0.96875 1.60938,-1.21875l9.98437,-3.59375c0.20833,-0.08334 0.41667,-0.14584 0.625,-0.1875c0.21875,-0.04166 0.41146,-0.0625 0.57813,-0.0625c0.98958,0 1.77083,0.3125 2.34375,0.9375c0.57292,0.61459 0.85938,1.41146 0.85938,2.39063v43.39062c0,0.89584 -0.32292,1.66666 -0.96875,2.3125c-0.63542,0.63541 -1.42187,0.95313 -2.35937,0.95313zM284.7395,127.30089c-0.85417,0 -1.60417,-0.31771 -2.25,-0.95312c-0.63542,-0.64584 -0.95312,-1.41666 -0.95312,-2.3125v-39.03124l-4.67187,1.98438c-0.71875,0.29166 -1.40104,0.4375 -2.04687,0.4375c-0.9375,0 -1.71875,-0.29687 -2.34375,-0.89062c-0.61458,-0.59375 -0.92187,-1.36459 -0.92187,-2.3125c0,-0.67709 0.17188,-1.29166 0.51563,-1.84375c0.34375,-0.5625 0.88021,-0.96875 1.60938,-1.21875l9.98438,-3.59375c0.20833,-0.08334 0.41667,-0.14584 0.625,-0.1875c0.21875,-0.04166 0.41146,-0.0625 0.57813,-0.0625c0.98958,0 1.77083,0.3125 2.34375,0.9375c0.57292,0.61459 0.85938,1.41146 0.85938,2.39063v43.39062c0,0.89584 -0.32292,1.66666 -0.96875,2.3125c-0.63542,0.63541 -1.42187,0.95313 -2.35937,0.95313z" data-paper-data="{&quot;origPos&quot;:null}" fill="none" fill-rule="nonzero" stroke-width="1" stroke-linecap="square"/><path d="M32.41207,41.6168h675.4331v450.29922h-675.4331z" data-paper-data="{&quot;origPos&quot;:null}" fill-opacity="0" fill="#000000" fill-rule="evenodd" stroke-width="1" stroke-linecap="square"/><path d="M44.12598,56.86089h721.16534v521.8268h-721.16534z" data-paper-data="{&quot;origPos&quot;:null}" fill-opacity="0" fill="#000000" fill-rule="evenodd" stroke-width="1" stroke-linecap="square"/><path d="M119.04103,178.28098c-1.01216,0 -1.84999,-0.34301 -2.51351,-1.02901c-0.66352,-0.69726 -0.99528,-1.55196 -0.99528,-2.56411v-46.77819c0,-1.01215 0.34301,-1.86123 1.02902,-2.54724c0.68602,-0.69726 1.5126,-1.04589 2.47977,-1.04589c1.0234,0 1.8781,0.34863 2.56411,1.04589c0.68602,0.68602 1.02902,1.5351 1.02902,2.54725v43.18505h25.01698c1.01215,0 1.86123,0.34863 2.54725,1.04589c0.69726,0.68602 1.04589,1.5351 1.04589,2.54725c0,1.01215 -0.34863,1.86686 -1.04589,2.56411c-0.68602,0.68602 -1.53509,1.02902 -2.54724,1.02902zM176.94659,178.55088c-3.82368,0 -7.22,-0.81534 -10.18898,-2.44602c-2.96897,-1.63069 -5.29692,-3.88553 -6.98383,-6.76453c-1.67567,-2.87901 -2.5135,-6.18536 -2.5135,-9.91907c0,-3.77869 0.79286,-7.10754 2.37856,-9.98654c1.59695,-2.87901 3.79557,-5.13385 6.59585,-6.76453c2.81153,-1.64193 6.03916,-2.4629 9.6829,-2.4629c3.58751,0 6.66894,0.79847 9.2443,2.39542c2.5866,1.5857 4.5603,3.77307 5.92108,6.56211c1.36078,2.77778 2.04117,5.98855 2.04117,9.63229c0,0.8772 -0.30364,1.60258 -0.91093,2.17613c-0.59604,0.57355 -1.35516,0.86033 -2.27733,0.86033h-27.83412v-5.53309h27.63169l-2.83402,1.93996c-0.04499,-2.30546 -0.50607,-4.36349 -1.38327,-6.17411c-0.8772,-1.82186 -2.11989,-3.26137 -3.72808,-4.3185c-1.60819,-1.06838 -3.56501,-1.60257 -5.87047,-1.60257c-2.63159,0 -4.88081,0.57918 -6.74767,1.73753c-1.85561,1.1471 -3.26699,2.72718 -4.23416,4.74023c-0.96716,2.00181 -1.45075,4.2679 -1.45075,6.79828c0,2.53037 0.57355,4.78522 1.72065,6.76454c1.1471,1.97931 2.7328,3.54815 4.7571,4.7065c2.03555,1.1471 4.36349,1.72065 6.98383,1.72065c1.42826,0 2.89025,-0.26428 4.38598,-0.79285c1.50698,-0.52856 2.71594,-1.14148 3.62688,-1.83873c0.69726,-0.50607 1.44512,-0.77036 2.2436,-0.79285c0.80972,-0.02249 1.5126,0.2193 2.10865,0.72538c0.78723,0.69726 1.20333,1.462 1.24832,2.29421c0.04499,0.82097 -0.32051,1.5351 -1.09649,2.14239c-1.57445,1.23707 -3.52565,2.24922 -5.8536,3.03645c-2.3167,0.77598 -4.5378,1.16398 -6.66332,1.16398zM213.49687,178.2135c-1.42826,0 -2.53037,-0.75911 -3.30636,-2.27733l-14.6593,-30.88744c-0.35987,-0.78723 -0.39361,-1.55759 -0.10121,-2.31107c0.30364,-0.76473 0.89407,-1.35516 1.77127,-1.77126c0.77598,-0.41611 1.56884,-0.48359 2.37856,-0.20243c0.80972,0.26991 1.42263,0.79847 1.83874,1.5857l13.6809,29.50417h-3.32322l13.54595,-29.50417c0.41611,-0.78723 1.04589,-1.31579 1.88935,-1.5857c0.85471,-0.28116 1.72065,-0.21368 2.59785,0.20243c0.83221,0.37112 1.38327,0.9503 1.65318,1.73753c0.28116,0.77598 0.23617,1.55759 -0.13495,2.34482l-14.64244,30.88744c-0.69726,1.51822 -1.76002,2.27734 -3.18827,2.27734zM254.95596,178.55088c-3.82368,0 -7.22,-0.81534 -10.18898,-2.44602c-2.96897,-1.63069 -5.29692,-3.88553 -6.98383,-6.76453c-1.67567,-2.87901 -2.5135,-6.18536 -2.5135,-9.91907c0,-3.77869 0.79286,-7.10754 2.37856,-9.98654c1.59695,-2.87901 3.79557,-5.13385 6.59585,-6.76453c2.81153,-1.64193 6.03916,-2.4629 9.6829,-2.4629c3.5875,0 6.66893,0.79847 9.24428,2.39542c2.5866,1.5857 4.5603,3.77307 5.92108,6.56211c1.36078,2.77778 2.04117,5.98855 2.04117,9.63229c0,0.8772 -0.30364,1.60258 -0.91093,2.17613c-0.59604,0.57355 -1.35516,0.86033 -2.27733,0.86033h-27.83411v-5.53309h27.63168l-2.83402,1.93996c-0.04499,-2.30546 -0.50607,-4.36349 -1.38327,-6.17411c-0.8772,-1.82186 -2.11989,-3.26137 -3.72808,-4.3185c-1.60819,-1.06838 -3.56501,-1.60257 -5.87045,-1.60257c-2.63159,0 -4.88081,0.57918 -6.74767,1.73753c-1.85561,1.1471 -3.26699,2.72718 -4.23416,4.74023c-0.96716,2.00181 -1.45075,4.2679 -1.45075,6.79828c0,2.53037 0.57355,4.78522 1.72065,6.76454c1.1471,1.97931 2.7328,3.54815 4.7571,4.7065c2.03555,1.1471 4.36349,1.72065 6.98383,1.72065c1.42825,0 2.89024,-0.26428 4.38596,-0.79285c1.50698,-0.52856 2.71594,-1.14148 3.62688,-1.83873c0.69726,-0.50607 1.44512,-0.77036 2.2436,-0.79285c0.80972,-0.02249 1.5126,0.2193 2.10865,0.72538c0.78723,0.69726 1.20333,1.462 1.24832,2.29421c0.04499,0.82097 -0.32051,1.5351 -1.09649,2.14239c-1.57445,1.23707 -3.52565,2.24922 -5.8536,3.03645c-2.3167,0.77598 -4.5378,1.16398 -6.6633,1.16398zM289.09258,178.28098c-2.0243,0 -3.82368,-0.55106 -5.39813,-1.65318c-1.56321,-1.11336 -2.78341,-2.62597 -3.6606,-4.5378c-0.86595,-1.91184 -1.29892,-4.11045 -1.29892,-6.59584v-37.71944c0,-1.01215 0.32052,-1.83873 0.96155,-2.47976c0.64103,-0.65228 1.47324,-0.97841 2.49664,-0.97841c1.01215,0 1.83874,0.32613 2.47977,0.97841c0.64103,0.64103 0.96155,1.46762 0.96155,2.47977v37.71944c0,1.70941 0.32052,3.11518 0.96155,4.21729c0.65228,1.10212 1.48449,1.65318 2.49664,1.65318h1.73753c0.91093,0 1.65318,0.32613 2.22673,0.97841c0.5848,0.64103 0.8772,1.46762 0.8772,2.47977c0,1.01215 -0.4386,1.84436 -1.31579,2.49664c-0.8772,0.64103 -2.00743,0.96155 -3.3907,0.96155zM331.51724,178.28098c-0.92218,0 -1.7319,-0.34301 -2.42916,-1.02901c-0.68602,-0.69726 -1.02901,-1.52947 -1.02901,-2.49664v-42.13917l-5.04388,2.14239c-0.77598,0.31489 -1.5126,0.47234 -2.20986,0.47234c-1.01215,0 -1.85561,-0.32051 -2.53037,-0.96154c-0.66352,-0.64103 -0.99528,-1.47324 -0.99528,-2.49664c0,-0.73099 0.18557,-1.39452 0.55669,-1.99056c0.37112,-0.60729 0.9503,-1.04589 1.73753,-1.31579l10.7794,-3.87991c0.22492,-0.08997 0.44985,-0.15744 0.67477,-0.20243c0.23617,-0.04499 0.44422,-0.06748 0.62416,-0.06748c1.06838,0 1.91184,0.33738 2.53037,1.01215c0.61854,0.66352 0.92781,1.52385 0.92781,2.58099v46.84567c0,0.96716 -0.34863,1.79938 -1.04589,2.49664c-0.68602,0.68602 -1.53509,1.02902 -2.54724,1.02902zM358.67199,178.28098c-0.92218,0 -1.7319,-0.34301 -2.42916,-1.02901c-0.68602,-0.69726 -1.02901,-1.52947 -1.02901,-2.49664v-42.13917l-5.04388,2.14239c-0.77598,0.31489 -1.5126,0.47234 -2.20986,0.47234c-1.01215,0 -1.85561,-0.32051 -2.53037,-0.96154c-0.66352,-0.64103 -0.99528,-1.47324 -0.99528,-2.49664c0,-0.73099 0.18557,-1.39452 0.55669,-1.99056c0.37112,-0.60729 0.9503,-1.04589 1.73753,-1.31579l10.7794,-3.87991c0.22492,-0.08997 0.44985,-0.15744 0.67477,-0.20243c0.23617,-0.04499 0.44422,-0.06748 0.62416,-0.06748c1.06838,0 1.91184,0.33738 2.53037,1.01215c0.61854,0.66352 0.92781,1.52385 0.92781,2.58099v46.84567c0,0.96716 -0.34863,1.79938 -1.04589,2.49664c-0.68602,0.68602 -1.53509,1.02902 -2.54724,1.02902z" data-paper-data="{&quot;origPos&quot;:null}" fill="#ffffff" fill-rule="nonzero" stroke-width="1" stroke-linecap="square"/><path d="M64.67287,260.26964c-0.6875,0 -1.27604,-0.16146 -1.76562,-0.48437c-0.48958,-0.3125 -0.92708,-0.875 -1.3125,-1.6875c-2.38542,-5.07292 -4.18751,-10.125 -5.40626,-15.15625c-1.21875,-5.04167 -1.82812,-10.09896 -1.82812,-15.17187c0,-5.08333 0.59896,-10.14062 1.79688,-15.17187c1.19792,-5.03125 3.01042,-10.02604 5.43751,-14.98437c0.64583,-1.48958 1.67188,-2.23437 3.07813,-2.23437c0.9375,0 1.71354,0.33333 2.32813,1c0.625,0.65625 0.9375,1.45313 0.9375,2.39063c-0.04167,0.6875 -0.19271,1.24479 -0.45312,1.67188c-4.47917,9.08333 -6.71876,18.21354 -6.71876,27.39063c0,4.52083 0.58334,9.10938 1.75001,13.76563c1.17708,4.64583 2.85417,9.22917 5.03125,13.75c0.26042,0.51042 0.39063,1.04167 0.39063,1.59375c0,0.94792 -0.30208,1.73958 -0.90625,2.375c-0.59375,0.63542 -1.38021,0.95313 -2.35937,0.95313zM79.25422,245.30089c-0.9375,0 -1.71354,-0.31771 -2.32812,-0.95312c-0.61458,-0.64583 -0.92187,-1.4375 -0.92187,-2.375v-43.32812c0,-0.97917 0.30729,-1.77604 0.92188,-2.39062c0.61458,-0.625 1.39063,-0.9375 2.32813,-0.9375c1.03125,0 1.88542,0.40625 2.5625,1.21875l27.90625,37.125v-35.01562c0,-0.97917 0.31771,-1.77604 0.95313,-2.39062c0.64583,-0.625 1.4375,-0.9375 2.375,-0.9375c0.97917,0 1.76563,0.3125 2.35938,0.9375c0.60417,0.61458 0.90625,1.41146 0.90625,2.39063v43.32813c0,0.9375 -0.30208,1.72917 -0.90625,2.375c-0.59375,0.63542 -1.38021,0.95313 -2.35937,0.95313c-0.42708,0 -0.88542,-0.09375 -1.375,-0.28125c-0.48958,-0.19792 -0.88542,-0.48958 -1.1875,-0.875l-27.90625,-37.10937v34.9375c0,0.9375 -0.30729,1.72917 -0.92187,2.375c-0.61458,0.63542 -1.41667,0.95313 -2.40625,0.95313zM144.921,245.55089c-3.54167,0 -6.6875,-0.75521 -9.4375,-2.26562c-2.75,-1.51042 -4.90625,-3.59896 -6.46875,-6.26562c-1.55208,-2.66667 -2.32812,-5.72917 -2.32812,-9.1875c0,-3.5 0.73438,-6.58333 2.20313,-9.25c1.47917,-2.66667 3.51563,-4.75521 6.10938,-6.26562c2.60417,-1.52083 5.59375,-2.28125 8.96875,-2.28125c3.32292,0 6.17708,0.73958 8.5625,2.21875c2.39583,1.46875 4.22396,3.49479 5.48438,6.07813c1.26042,2.57292 1.89063,5.54688 1.89063,8.92188c0,0.8125 -0.28125,1.48438 -0.84375,2.01563c-0.55208,0.53125 -1.25521,0.79688 -2.10937,0.79688h-25.78125v-5.125h25.59375l-2.625,1.79688c-0.04167,-2.13542 -0.46875,-4.04167 -1.28125,-5.71875c-0.8125,-1.6875 -1.96354,-3.02083 -3.45312,-4c-1.48958,-0.98958 -3.30208,-1.48437 -5.4375,-1.48437c-2.4375,0 -4.52083,0.53646 -6.25,1.60938c-1.71875,1.0625 -3.02604,2.52604 -3.92187,4.39063c-0.89583,1.85417 -1.34375,3.95313 -1.34375,6.29688c0,2.34375 0.53125,4.43229 1.59375,6.26563c1.0625,1.83333 2.53125,3.28646 4.40625,4.35938c1.88542,1.0625 4.04167,1.59375 6.46875,1.59375c1.32292,0 2.67708,-0.24479 4.0625,-0.73437c1.39583,-0.48958 2.51563,-1.05729 3.35938,-1.70312c0.64583,-0.46875 1.33854,-0.71354 2.07813,-0.73437c0.75,-0.02083 1.40104,0.20313 1.95313,0.67188c0.72917,0.64583 1.11458,1.35417 1.15625,2.125c0.04167,0.76042 -0.29687,1.42188 -1.01562,1.98438c-1.45833,1.14583 -3.26562,2.08333 -5.42187,2.8125c-2.14583,0.71875 -4.20312,1.07813 -6.17187,1.07813zM175.00992,245.30089c-0.6875,0 -1.31771,-0.20312 -1.89062,-0.60937c-0.57292,-0.40625 -0.96875,-0.90625 -1.1875,-1.5l-9.46875,-28.42187c-0.34375,-1.32292 -0.33333,-2.40104 0.03125,-3.23437c0.36458,-0.83333 1.16667,-1.25 2.40625,-1.25c0.80208,0 1.46875,0.22917 2,0.6875c0.54167,0.44792 0.98438,1.20313 1.32813,2.26563l8.0625,25.21875h-2.25l7.625,-25.73437c0.20833,-0.71875 0.56771,-1.30208 1.07813,-1.75c0.52083,-0.45833 1.22917,-0.6875 2.125,-0.6875c0.84375,0 1.53125,0.22917 2.0625,0.6875c0.54167,0.44792 0.89583,1.03125 1.0625,1.75l6.21875,24.1875h-0.96875l7.54688,-23.67187c0.60417,-1.96875 1.71354,-2.95312 3.32813,-2.95312c1.19792,0 2.01042,0.41667 2.4375,1.25c0.42708,0.83333 0.40625,1.91146 -0.0625,3.23438l-9.46875,28.42188c-0.17708,0.59375 -0.54167,1.09375 -1.09375,1.5c-0.55208,0.40625 -1.19271,0.60938 -1.92187,0.60938c-0.67708,0 -1.31771,-0.20312 -1.92187,-0.60937c-0.59375,-0.40625 -0.97396,-0.90625 -1.14062,-1.5l-6.59375,-24.39062h0.64063l-6.92187,24.39063c-0.16667,0.59375 -0.54167,1.09375 -1.125,1.5c-0.57292,0.40625 -1.21875,0.60938 -1.9375,0.60938zM236.18192,245.30089c-0.9375,0 -1.71354,-0.31771 -2.32812,-0.95312c-0.61458,-0.64583 -0.92187,-1.4375 -0.92187,-2.375v-43.32812c0,-0.9375 0.31771,-1.72396 0.95313,-2.35937c0.63542,-0.64583 1.40104,-0.96875 2.29688,-0.96875c0.94792,0 1.73958,0.32292 2.375,0.96875c0.63542,0.63542 0.95313,1.42188 0.95313,2.35938v40h23.17187c0.9375,0 1.72396,0.32292 2.35938,0.96875c0.64583,0.63542 0.96875,1.42188 0.96875,2.35938c0,0.9375 -0.32292,1.72917 -0.96875,2.375c-0.63542,0.63542 -1.42187,0.95313 -2.35937,0.95313zM289.81675,245.55089c-3.54167,0 -6.6875,-0.75521 -9.4375,-2.26562c-2.75,-1.51042 -4.90625,-3.59896 -6.46875,-6.26562c-1.55208,-2.66667 -2.32812,-5.72917 -2.32812,-9.1875c0,-3.5 0.73438,-6.58333 2.20313,-9.25c1.47917,-2.66667 3.51563,-4.75521 6.10938,-6.26562c2.60417,-1.52083 5.59375,-2.28125 8.96875,-2.28125c3.32292,0 6.17708,0.73958 8.5625,2.21875c2.39581,1.46875 4.22393,3.49479 5.48434,6.07813c1.26042,2.57292 1.89063,5.54688 1.89063,8.92188c0,0.8125 -0.28125,1.48438 -0.84375,2.01563c-0.55208,0.53125 -1.25521,0.79688 -2.10937,0.79688h-25.78122v-5.125h25.59372l-2.62497,1.79688c-0.04167,-2.13542 -0.46875,-4.04167 -1.28125,-5.71875c-0.8125,-1.6875 -1.96354,-3.02083 -3.45312,-4c-1.48958,-0.98958 -3.30208,-1.48437 -5.4375,-1.48437c-2.4375,0 -4.52083,0.53646 -6.25,1.60938c-1.71875,1.0625 -3.02604,2.52604 -3.92187,4.39063c-0.89583,1.85417 -1.34375,3.95313 -1.34375,6.29688c0,2.34375 0.53125,4.43229 1.59375,6.26563c1.0625,1.83333 2.53125,3.28646 4.40625,4.35938c1.88542,1.0625 4.04167,1.59375 6.46875,1.59375c1.32292,0 2.67708,-0.24479 4.0625,-0.73437c1.39583,-0.48958 2.51563,-1.05729 3.35938,-1.70312c0.64583,-0.46875 1.33853,-0.71354 2.07809,-0.73437c0.75,-0.02083 1.40104,0.20313 1.95313,0.67188c0.72917,0.64583 1.11458,1.35417 1.15625,2.125c0.04167,0.76042 -0.29687,1.42188 -1.01562,1.98438c-1.45833,1.14583 -3.26561,2.08333 -5.42184,2.8125c-2.14583,0.71875 -4.20312,1.07813 -6.17187,1.07813zM323.67127,245.23839c-1.32292,0 -2.34375,-0.70312 -3.0625,-2.10937l-13.57812,-28.60937c-0.33333,-0.72917 -0.36458,-1.44271 -0.09375,-2.14062c0.28125,-0.70833 0.82813,-1.25521 1.64063,-1.64062c0.71875,-0.38542 1.45313,-0.44792 2.20313,-0.1875c0.75,0.25 1.31771,0.73958 1.70313,1.46875l12.67188,27.32813h-3.07812l12.54688,-27.32812c0.38542,-0.72917 0.96875,-1.21875 1.75,-1.46875c0.79167,-0.26042 1.59375,-0.19792 2.40625,0.1875c0.77083,0.34375 1.28125,0.88021 1.53125,1.60938c0.26042,0.71875 0.21875,1.44271 -0.125,2.17188l-13.5625,28.60938c-0.64583,1.40625 -1.63021,2.10938 -2.95312,2.10938zM362.07261,245.55089c-3.54167,0 -6.6875,-0.75521 -9.4375,-2.26562c-2.75,-1.51042 -4.90625,-3.59896 -6.46875,-6.26562c-1.55208,-2.66667 -2.32812,-5.72917 -2.32812,-9.1875c0,-3.5 0.73438,-6.58333 2.20313,-9.25c1.47917,-2.66667 3.51563,-4.75521 6.10938,-6.26562c2.60417,-1.52083 5.59375,-2.28125 8.96875,-2.28125c3.32292,0 6.17708,0.73958 8.5625,2.21875c2.39583,1.46875 4.22396,3.49479 5.48438,6.07813c1.26042,2.57292 1.89063,5.54688 1.89063,8.92188c0,0.8125 -0.28125,1.48438 -0.84375,2.01563c-0.55208,0.53125 -1.25521,0.79688 -2.10937,0.79688h-25.78125v-5.125h25.59375l-2.625,1.79688c-0.04167,-2.13542 -0.46875,-4.04167 -1.28125,-5.71875c-0.8125,-1.6875 -1.96354,-3.02083 -3.45312,-4c-1.48958,-0.98958 -3.30208,-1.48437 -5.4375,-1.48437c-2.4375,0 -4.52083,0.53646 -6.25,1.60938c-1.71875,1.0625 -3.02604,2.52604 -3.92187,4.39063c-0.89583,1.85417 -1.34375,3.95313 -1.34375,6.29688c0,2.34375 0.53125,4.43229 1.59375,6.26563c1.0625,1.83333 2.53125,3.28646 4.40625,4.35938c1.88542,1.0625 4.04167,1.59375 6.46875,1.59375c1.32292,0 2.67708,-0.24479 4.0625,-0.73437c1.39583,-0.48958 2.51563,-1.05729 3.35938,-1.70312c0.64583,-0.46875 1.33854,-0.71354 2.07813,-0.73437c0.75,-0.02083 1.40104,0.20313 1.95313,0.67188c0.72917,0.64583 1.11458,1.35417 1.15625,2.125c0.04167,0.76042 -0.29687,1.42188 -1.01562,1.98438c-1.45833,1.14583 -3.26562,2.08333 -5.42187,2.8125c-2.14583,0.71875 -4.20312,1.07813 -6.17187,1.07813zM393.69153,245.30089c-1.875,0 -3.54167,-0.51042 -5,-1.53125c-1.44792,-1.03125 -2.57812,-2.43229 -3.39062,-4.20312c-0.80208,-1.77083 -1.20312,-3.80729 -1.20312,-6.10937v-34.9375c0,-0.9375 0.29688,-1.70312 0.89063,-2.29687c0.59375,-0.60417 1.36458,-0.90625 2.3125,-0.90625c0.9375,0 1.70313,0.30208 2.29688,0.90625c0.59375,0.59375 0.89063,1.35938 0.89063,2.29688v34.9375c0,1.58333 0.29688,2.88542 0.89063,3.90625c0.60417,1.02083 1.375,1.53125 2.3125,1.53125h1.60938c0.84375,0 1.53125,0.30208 2.0625,0.90625c0.54167,0.59375 0.8125,1.35938 0.8125,2.29688c0,0.9375 -0.40625,1.70833 -1.21875,2.3125c-0.8125,0.59375 -1.85937,0.89063 -3.14062,0.89063zM403.73523,260.26964c-0.9375,0 -1.71875,-0.31771 -2.34375,-0.95312c-0.61458,-0.63542 -0.92187,-1.42708 -0.92187,-2.375c0,-0.55208 0.13021,-1.08333 0.39063,-1.59375c2.17708,-4.52083 3.84896,-9.10417 5.01563,-13.75c1.17708,-4.65625 1.76563,-9.24479 1.76563,-13.76562c0,-9.17708 -2.23958,-18.30729 -6.71875,-27.39062c-0.25,-0.42708 -0.40104,-0.98437 -0.45312,-1.67187c0,-0.9375 0.30729,-1.73437 0.92188,-2.39062c0.625,-0.66667 1.40625,-1 2.34375,-1c1.41667,0 2.44271,0.74479 3.07813,2.23438c2.42708,4.95833 4.23958,9.95313 5.4375,14.98438c1.19792,5.03125 1.79688,10.08854 1.79688,15.17188c0,5.07292 -0.60937,10.13021 -1.82812,15.17188c-1.21875,5.03125 -3.02083,10.08333 -5.40625,15.15625c-0.38542,0.8125 -0.82292,1.375 -1.3125,1.6875c-0.48958,0.32292 -1.07812,0.48438 -1.76562,0.48438z" data-paper-data="{&quot;origPos&quot;:null}" fill="#ffffff" fill-rule="nonzero" stroke-width="1" stroke-linecap="square"/></g></g></svg>