<svg version="1.1" xmlns="http://www.w3.org/2000/svg" xmlns:xlink="http://www.w3.org/1999/xlink" width="500" height="378.37838" viewBox="0,0,500,378.37838"><g transform="translate(10,9.18919)"><g data-paper-data="{&quot;isPaintingLayer&quot;:true}" fill-rule="nonzero" stroke="none" stroke-linejoin="miter" stroke-miterlimit="10" stroke-dasharray="" stroke-dashoffset="0" style="mix-blend-mode: normal"><path d="M-10,369.18919v-378.37838h500v378.37838z" fill="#000000" stroke-width="0" stroke-linecap="butt"/><path d="M57.63133,192.80065c-0.67313,0 -1.23033,-0.22812 -1.6716,-0.68435c-0.44127,-0.46372 -0.66191,-1.03213 -0.66191,-1.70525v-31.10975c0,-0.67313 0.22812,-1.23781 0.68435,-1.69404c0.45623,-0.46372 1.00595,-0.69556 1.64916,-0.69556c0.6806,0 1.24902,0.23186 1.70525,0.69556c0.45623,0.45623 0.68435,1.02091 0.68435,1.69404v28.72014h16.63749c0.67313,0 1.23781,0.23186 1.69404,0.69556c0.46372,0.45623 0.69556,1.02091 0.69556,1.69404c0,0.67313 -0.23186,1.24155 -0.69556,1.70525c-0.45623,0.45623 -1.02091,0.68435 -1.69404,0.68435zM96.14132,192.98015c-2.54293,0 -4.80165,-0.54224 -6.77616,-1.62673c-1.97451,-1.08449 -3.5227,-2.58406 -4.64458,-4.49874c-1.1144,-1.91467 -1.6716,-4.11355 -1.6716,-6.59665c0,-2.51301 0.52728,-4.72685 1.58186,-6.64153c1.06205,-1.91468 2.52423,-3.41425 4.38656,-4.49874c1.8698,-1.09196 4.01633,-1.63795 6.43959,-1.63795c2.38587,0 4.43517,0.53102 6.1479,1.59307c1.72022,1.05456 3.03282,2.50928 3.9378,4.36412c0.90499,1.84737 1.35747,3.98267 1.35747,6.40594c0,0.58338 -0.20194,1.06578 -0.60582,1.44723c-0.3964,0.38144 -0.90124,0.57215 -1.51454,0.57215h-18.51104v-3.67976h18.37641l-1.88475,1.29016c-0.02991,-1.53324 -0.33656,-2.90193 -0.91995,-4.10608c-0.58338,-1.21163 -1.40983,-2.16897 -2.47936,-2.87201c-1.06952,-0.71052 -2.37091,-1.06578 -3.90415,-1.06578c-1.75014,0 -3.24597,0.38518 -4.48752,1.15554c-1.23406,0.76288 -2.17271,1.8137 -2.81592,3.15248c-0.64322,1.33129 -0.96482,2.83836 -0.96482,4.52117c0,1.68282 0.38144,3.1824 1.14432,4.49874c0.76288,1.31634 1.81745,2.35968 3.1637,3.13004c1.35374,0.76288 2.90193,1.14432 4.64458,1.14432c0.94986,0 1.92215,-0.17576 2.91689,-0.52728c1.00222,-0.35152 1.80623,-0.75914 2.41205,-1.22286c0.46372,-0.33656 0.96108,-0.51232 1.4921,-0.52728c0.5385,-0.01496 1.00595,0.14585 1.40236,0.48241c0.52355,0.46372 0.80028,0.97229 0.83019,1.52575c0.02991,0.54599 -0.21315,1.02091 -0.72922,1.42479c-1.04709,0.82272 -2.34473,1.49584 -3.89293,2.01938c-1.54072,0.51606 -3.01786,0.7741 -4.43143,0.7741zM120.44902,192.75578c-0.94986,0 -1.68282,-0.50485 -2.19888,-1.51454l-9.74914,-20.54163c-0.23933,-0.52355 -0.26177,-1.03587 -0.06731,-1.53697c0.20194,-0.50859 0.5946,-0.90124 1.17797,-1.17797c0.51606,-0.27673 1.04335,-0.3216 1.58186,-0.13463c0.5385,0.1795 0.94612,0.53102 1.22286,1.05456l9.09845,19.62169h-2.2101l9.0087,-19.62169c0.27673,-0.52355 0.69556,-0.87506 1.25651,-1.05456c0.56842,-0.18699 1.14432,-0.1421 1.72769,0.13463c0.55346,0.24682 0.91995,0.632 1.09945,1.15554c0.18699,0.51606 0.15706,1.03587 -0.08974,1.55941l-9.73792,20.54163c-0.46372,1.00969 -1.1705,1.51454 -2.12036,1.51454zM148.0213,192.98015c-2.54293,0 -4.80165,-0.54224 -6.77616,-1.62673c-1.97451,-1.08449 -3.5227,-2.58406 -4.64458,-4.49874c-1.1144,-1.91467 -1.6716,-4.11355 -1.6716,-6.59665c0,-2.51301 0.52728,-4.72685 1.58186,-6.64153c1.06205,-1.91468 2.52423,-3.41425 4.38656,-4.49874c1.8698,-1.09196 4.01633,-1.63795 6.43959,-1.63795c2.38587,0 4.43517,0.53102 6.1479,1.59307c1.72022,1.05456 3.03282,2.50928 3.9378,4.36412c0.90499,1.84737 1.35747,3.98267 1.35747,6.40594c0,0.58338 -0.20194,1.06578 -0.60582,1.44723c-0.3964,0.38144 -0.90124,0.57215 -1.51454,0.57215h-18.51104v-3.67976h18.37641l-1.88475,1.29016c-0.02991,-1.53324 -0.33656,-2.90193 -0.91995,-4.10608c-0.58338,-1.21163 -1.40983,-2.16897 -2.47936,-2.87201c-1.06952,-0.71052 -2.37091,-1.06578 -3.90415,-1.06578c-1.75014,0 -3.24597,0.38518 -4.48752,1.15554c-1.23406,0.76288 -2.17271,1.8137 -2.81592,3.15248c-0.64322,1.33129 -0.96482,2.83836 -0.96482,4.52117c0,1.68282 0.38144,3.1824 1.14432,4.49874c0.76288,1.31634 1.81745,2.35968 3.1637,3.13004c1.35374,0.76288 2.90193,1.14432 4.64458,1.14432c0.94986,0 1.92215,-0.17576 2.91689,-0.52728c1.00222,-0.35152 1.80623,-0.75914 2.41205,-1.22286c0.46372,-0.33656 0.96108,-0.51232 1.4921,-0.52728c0.5385,-0.01496 1.00595,0.14585 1.40236,0.48241c0.52355,0.46372 0.80028,0.97229 0.83019,1.52575c0.02991,0.54599 -0.21315,1.02091 -0.72922,1.42479c-1.04709,0.82272 -2.34473,1.49584 -3.89293,2.01938c-1.54072,0.51606 -3.01786,0.7741 -4.43143,0.7741zM170.72381,192.80065c-1.34625,0 -2.54293,-0.36649 -3.59002,-1.09945c-1.03961,-0.74045 -1.8511,-1.74639 -2.43448,-3.01786c-0.5759,-1.27146 -0.86385,-2.73365 -0.86385,-4.38655v-25.08526c0,-0.67313 0.21315,-1.22286 0.63947,-1.64916c0.42632,-0.43379 0.97978,-0.65069 1.66038,-0.65069c0.67313,0 1.22286,0.2169 1.64916,0.65069c0.42632,0.42632 0.63947,0.97604 0.63947,1.64916v25.08526c0,1.13684 0.21315,2.07174 0.63947,2.8047c0.43379,0.73296 0.98725,1.09945 1.66038,1.09945h1.15554c0.60582,0 1.09945,0.2169 1.48088,0.65069c0.38892,0.42632 0.58338,0.97604 0.58338,1.64916c0,0.67313 -0.29169,1.22659 -0.87506,1.66038c-0.58338,0.42632 -1.33504,0.63947 -2.25498,0.63947zM208.54156,193.26062c-2.4831,0 -4.80539,-0.46745 -6.96688,-1.40236c-2.15401,-0.9349 -4.03503,-2.23628 -5.64306,-3.90415c-1.60802,-1.66787 -2.86453,-3.61993 -3.76952,-5.85622c-0.90499,-2.23628 -1.35747,-4.65954 -1.35747,-7.26978c0,-2.57284 0.45249,-4.96993 1.35747,-7.19126c0.90499,-2.22133 2.1615,-4.16592 3.76952,-5.83377c1.60802,-1.66787 3.48157,-2.97673 5.62062,-3.92658c2.14653,-0.94986 4.4763,-1.42479 6.98932,-1.42479c2.36343,0 4.39403,0.30665 6.09181,0.91995c1.69778,0.61329 3.40678,1.62299 5.12699,3.02907c0.23933,0.18699 0.42632,0.38144 0.56094,0.58338c0.1421,0.19446 0.23559,0.39265 0.28047,0.5946c0.05236,0.19446 0.07854,0.43005 0.07854,0.70678c0,0.58338 -0.20942,1.06578 -0.62825,1.44723c-0.41136,0.38144 -0.90873,0.59833 -1.4921,0.65069c-0.58338,0.04487 -1.14806,-0.14959 -1.69404,-0.58338c-1.13684,-0.97978 -2.31107,-1.72769 -3.5227,-2.24376c-1.21163,-0.52355 -2.81218,-0.78532 -4.80165,-0.78532c-1.80249,0 -3.50026,0.37022 -5.09334,1.11066c-1.59307,0.73296 -2.99542,1.74265 -4.20706,3.02907c-1.21163,1.28642 -2.15401,2.77852 -2.82714,4.4763c-0.67313,1.69778 -1.00969,3.51148 -1.00969,5.44112c0,1.96703 0.33656,3.79943 1.00969,5.49721c0.67313,1.69778 1.61551,3.18988 2.82714,4.4763c1.21163,1.28642 2.61398,2.29238 4.20706,3.01785c1.59307,0.718 3.29085,1.07701 5.09334,1.07701c1.56315,0 3.04029,-0.26925 4.43143,-0.80775c1.39861,-0.5385 2.74113,-1.27895 4.02756,-2.22133c0.55346,-0.40387 1.0957,-0.57964 1.62673,-0.52728c0.5385,0.04487 0.991,0.25804 1.35747,0.63947c0.36649,0.38144 0.54972,0.90873 0.54972,1.58186c0,0.30665 -0.06358,0.60582 -0.19072,0.8975c-0.11967,0.29169 -0.29917,0.56094 -0.5385,0.80775c-1.65291,1.31634 -3.42174,2.31107 -5.30649,2.9842c-1.88475,0.67313 -3.87049,1.00969 -5.95718,1.00969zM237.25885,192.98015c-2.47561,0 -4.66329,-0.54224 -6.563,-1.62673c-1.89972,-1.08449 -3.39556,-2.58406 -4.48752,-4.49874c-1.08449,-1.91467 -1.62673,-4.11355 -1.62673,-6.59665c0,-2.51301 0.54224,-4.72685 1.62673,-6.64153c1.09196,-1.91468 2.5878,-3.41425 4.48752,-4.49874c1.89972,-1.09196 4.08739,-1.63795 6.563,-1.63795c2.45318,0 4.62962,0.54599 6.52935,1.63795c1.89972,1.08449 3.39182,2.58406 4.4763,4.49874c1.09196,1.91468 1.63795,4.12852 1.63795,6.64153c0,2.4831 -0.5385,4.68198 -1.61551,6.59665c-1.06952,1.91468 -2.55415,3.41425 -4.45387,4.49874c-1.89972,1.08449 -4.09112,1.62673 -6.57422,1.62673zM237.25885,188.85163c1.59307,0 3.0029,-0.36649 4.22949,-1.09945c1.22659,-0.74045 2.18393,-1.75387 2.87201,-3.04029c0.68809,-1.28642 1.03213,-2.77105 1.03213,-4.45387c0,-1.68282 -0.34404,-3.17492 -1.03213,-4.4763c-0.68809,-1.30886 -1.64542,-2.32978 -2.87201,-3.06274c-1.22659,-0.73296 -2.63642,-1.09945 -4.22949,-1.09945c-1.59307,0 -3.0029,0.36649 -4.22949,1.09945c-1.21911,0.73296 -2.18393,1.75387 -2.89446,3.06274c-0.70305,1.30138 -1.05456,2.79348 -1.05456,4.4763c0,1.68282 0.35152,3.16744 1.05456,4.45387c0.71052,1.28642 1.67534,2.29985 2.89446,3.04029c1.22659,0.73296 2.63642,1.09945 4.22949,1.09945zM289.88401,192.84553c-0.6806,0 -1.24155,-0.22064 -1.68282,-0.66191c-0.44127,-0.44875 -0.66191,-1.00969 -0.66191,-1.68282v-13.13722c0,-1.92964 -0.47492,-3.3619 -1.42479,-4.2968c-0.94986,-0.9349 -2.19141,-1.40236 -3.72465,-1.40236c-1.59307,0 -2.90567,0.55346 -3.9378,1.66038c-1.02465,1.09945 -1.53697,2.50553 -1.53697,4.21827h-3.80317c0,-1.98947 0.42632,-3.74334 1.27895,-5.26162c0.86011,-1.51828 2.06425,-2.70373 3.61246,-3.55637c1.54819,-0.86011 3.31702,-1.29016 5.30649,-1.29016c1.74265,0 3.28711,0.38518 4.63337,1.15554c1.35374,0.76288 2.40456,1.8885 3.15248,3.37687c0.74792,1.48088 1.12188,3.27964 1.12188,5.39625v13.13722c0,0.67313 -0.21315,1.23406 -0.63947,1.68282c-0.42632,0.44127 -0.991,0.66191 -1.69404,0.66191zM259.23422,192.84553c-0.6806,0 -1.24155,-0.22064 -1.68282,-0.66191c-0.44127,-0.44875 -0.66191,-1.00969 -0.66191,-1.68282v-20.45188c0,-0.70305 0.22064,-1.26773 0.66191,-1.69404c0.44127,-0.42632 1.00222,-0.63947 1.68282,-0.63947c0.70305,0 1.26773,0.21315 1.69404,0.63947c0.42632,0.42632 0.63947,0.991 0.63947,1.69404v20.45188c0,0.67313 -0.21315,1.23406 -0.63947,1.68282c-0.42632,0.44127 -0.991,0.66191 -1.69404,0.66191zM274.58154,192.84553c-0.6806,0 -1.24155,-0.22064 -1.68282,-0.66191c-0.44127,-0.44875 -0.66191,-1.00969 -0.66191,-1.68282v-13.13722c0,-1.92964 -0.47492,-3.3619 -1.42479,-4.2968c-0.94986,-0.9349 -2.19141,-1.40236 -3.72465,-1.40236c-1.59307,0 -2.91315,0.55346 -3.96024,1.66038c-1.03961,1.09945 -1.55941,2.50553 -1.55941,4.21827h-2.89446c0,-1.98947 0.3964,-3.74334 1.18919,-5.26162c0.80028,-1.51828 1.90346,-2.70373 3.30955,-3.55637c1.41357,-0.86011 3.02534,-1.29016 4.8353,-1.29016c1.74265,0 3.28711,0.38518 4.63337,1.15554c1.35374,0.76288 2.40456,1.8885 3.15248,3.37687c0.74792,1.48088 1.12188,3.27964 1.12188,5.39625v13.13722c0,0.67313 -0.21315,1.23406 -0.63947,1.68282c-0.42632,0.44127 -0.991,0.66191 -1.69404,0.66191zM302.33734,203.54827c-0.6806,0 -1.24155,-0.22064 -1.68282,-0.66191c-0.44127,-0.44127 -0.66191,-0.99847 -0.66191,-1.6716v-20.95672c0.02991,-2.42326 0.5946,-4.59971 1.69404,-6.52935c1.10692,-1.92964 2.61024,-3.45165 4.50996,-4.56606c1.89972,-1.12188 4.04251,-1.68282 6.42838,-1.68282c2.42326,0 4.58475,0.56094 6.48448,1.68282c1.89972,1.1144 3.40678,2.63642 4.52117,4.56606c1.12188,1.92964 1.68282,4.10608 1.68282,6.52935c0,2.41578 -0.51606,4.58102 -1.54819,6.49568c-1.02465,1.91468 -2.427,3.43296 -4.20706,4.55484c-1.77257,1.1144 -3.777,1.6716 -6.01328,1.6716c-1.80997,0 -3.4741,-0.37396 -4.99237,-1.12188c-1.51079,-0.74792 -2.8047,-1.76509 -3.88171,-3.05152v12.40801c0,0.67313 -0.21315,1.23033 -0.63947,1.6716c-0.42632,0.44127 -0.991,0.66191 -1.69404,0.66191zM312.62499,188.85163c1.56315,0 2.95802,-0.37396 4.18461,-1.12188c1.22659,-0.7554 2.19888,-1.78379 2.91689,-3.08517c0.718,-1.30138 1.07701,-2.76356 1.07701,-4.38656c0,-1.65291 -0.359,-3.13005 -1.07701,-4.43143c-0.718,-1.30886 -1.6903,-2.33725 -2.91689,-3.08517c-1.22659,-0.74792 -2.62146,-1.12188 -4.18461,-1.12188c-1.53324,0 -2.92064,0.37396 -4.16217,1.12188c-1.24155,0.74792 -2.21384,1.77632 -2.91689,3.08517c-0.70305,1.30138 -1.05456,2.77852 -1.05456,4.43143c0,1.62299 0.35152,3.08517 1.05456,4.38656c0.70305,1.30138 1.67534,2.32976 2.91689,3.08517c1.24155,0.74792 2.62894,1.12188 4.16217,1.12188zM338.26537,192.80065c-1.34625,0 -2.54293,-0.36649 -3.59002,-1.09945c-1.03961,-0.74045 -1.8511,-1.74639 -2.43448,-3.01786c-0.5759,-1.27146 -0.86385,-2.73365 -0.86385,-4.38655v-25.08526c0,-0.67313 0.21315,-1.22286 0.63947,-1.64916c0.42632,-0.43379 0.97978,-0.65069 1.66038,-0.65069c0.67313,0 1.22286,0.2169 1.64916,0.65069c0.42632,0.42632 0.63947,0.97604 0.63947,1.64916v25.08526c0,1.13684 0.21315,2.07174 0.63947,2.8047c0.43379,0.73296 0.98725,1.09945 1.66038,1.09945h1.15554c0.60582,0 1.09945,0.2169 1.48088,0.65069c0.38891,0.42632 0.58335,0.97604 0.58335,1.64916c0,0.67313 -0.29168,1.22659 -0.87504,1.66038c-0.58338,0.42632 -1.33504,0.63947 -2.25498,0.63947zM356.50621,192.98015c-2.54293,0 -4.80165,-0.54224 -6.77616,-1.62673c-1.97451,-1.08449 -3.5227,-2.58406 -4.64458,-4.49874c-1.1144,-1.91467 -1.6716,-4.11355 -1.6716,-6.59665c0,-2.51301 0.52728,-4.72685 1.58186,-6.64153c1.06205,-1.91468 2.52423,-3.41425 4.38656,-4.49874c1.8698,-1.09196 4.01633,-1.63795 6.43959,-1.63795c2.38587,0 4.43517,0.53102 6.1479,1.59307c1.72022,1.05456 3.03282,2.50928 3.9378,4.36412c0.90499,1.84737 1.35747,3.98267 1.35747,6.40594c0,0.58338 -0.20194,1.06578 -0.60582,1.44723c-0.3964,0.38144 -0.90124,0.57215 -1.51454,0.57215h-18.51104v-3.67976h18.37641l-1.88475,1.29016c-0.02991,-1.53324 -0.33656,-2.90193 -0.91995,-4.10608c-0.58338,-1.21163 -1.40983,-2.16897 -2.47936,-2.87201c-1.06952,-0.71052 -2.37091,-1.06578 -3.90415,-1.06578c-1.75014,0 -3.24597,0.38518 -4.48752,1.15554c-1.23406,0.76288 -2.17271,1.8137 -2.81592,3.15248c-0.64322,1.33129 -0.96482,2.83836 -0.96482,4.52117c0,1.68282 0.38144,3.1824 1.14432,4.49874c0.76288,1.31634 1.81745,2.35968 3.1637,3.13004c1.35374,0.76288 2.90193,1.14432 4.64458,1.14432c0.94986,0 1.92215,-0.17576 2.91689,-0.52728c1.00222,-0.35152 1.80623,-0.75914 2.41205,-1.22286c0.46372,-0.33656 0.96108,-0.51232 1.4921,-0.52728c0.5385,-0.01496 1.00595,0.14585 1.40236,0.48241c0.52355,0.46372 0.80028,0.97229 0.83019,1.52575c0.02991,0.54599 -0.21315,1.02091 -0.72922,1.42479c-1.04709,0.82272 -2.34473,1.49584 -3.89293,2.01938c-1.54072,0.51606 -3.01786,0.7741 -4.43143,0.7741zM382.38366,192.80065c-1.53324,0 -2.91315,-0.38892 -4.13974,-1.16675c-1.22659,-0.78532 -2.19141,-1.8511 -2.89446,-3.19737c-0.70305,-1.34625 -1.05456,-2.86453 -1.05456,-4.55483v-21.91033c0,-0.6806 0.21315,-1.23406 0.63947,-1.66038c0.43379,-0.42632 0.98725,-0.63947 1.66038,-0.63947c0.67313,0 1.22286,0.21315 1.64916,0.63947c0.42632,0.42632 0.63947,0.97978 0.63947,1.66038v21.91033c0,1.22659 0.33656,2.25498 1.00969,3.08517c0.6806,0.82272 1.51079,1.23406 2.49057,1.23406h1.55941c0.55346,0 1.02091,0.2169 1.40236,0.65069c0.38144,0.42632 0.57215,0.97604 0.57215,1.64916c0,0.67313 -0.25429,1.22659 -0.76288,1.66038c-0.5011,0.42632 -1.15179,0.63947 -1.95207,0.63947zM372.17455,172.53949c-0.64322,0 -1.16301,-0.18324 -1.55941,-0.54972c-0.3964,-0.37396 -0.5946,-0.83393 -0.5946,-1.37991c0,-0.61329 0.19819,-1.10318 0.5946,-1.46966c0.3964,-0.37396 0.9162,-0.56094 1.55941,-0.56094h10.62421c0.64322,0 1.16301,0.18699 1.55941,0.56094c0.3964,0.36649 0.5946,0.85637 0.5946,1.46966c0,0.54599 -0.19819,1.00595 -0.5946,1.37991c-0.3964,0.36649 -0.9162,0.54972 -1.55941,0.54972zM403.46933,192.98015c-2.54293,0 -4.80165,-0.54224 -6.77616,-1.62673c-1.97451,-1.08449 -3.5227,-2.58406 -4.64458,-4.49874c-1.1144,-1.91467 -1.6716,-4.11355 -1.6716,-6.59665c0,-2.51301 0.52728,-4.72685 1.58186,-6.64153c1.06205,-1.91468 2.52423,-3.41425 4.38656,-4.49874c1.8698,-1.09196 4.01633,-1.63795 6.43959,-1.63795c2.38587,0 4.43517,0.53102 6.1479,1.59307c1.72022,1.05456 3.03282,2.50928 3.9378,4.36412c0.90499,1.84737 1.35747,3.98267 1.35747,6.40594c0,0.58338 -0.20194,1.06578 -0.60582,1.44723c-0.3964,0.38144 -0.90124,0.57215 -1.51454,0.57215h-18.51104v-3.67976h18.37641l-1.88475,1.29016c-0.02991,-1.53324 -0.33656,-2.90193 -0.91995,-4.10608c-0.58338,-1.21163 -1.40983,-2.16897 -2.47936,-2.87201c-1.06952,-0.71052 -2.37091,-1.06578 -3.90415,-1.06578c-1.75014,0 -3.24597,0.38518 -4.48752,1.15554c-1.23406,0.76288 -2.17271,1.8137 -2.81592,3.15248c-0.64322,1.33129 -0.96482,2.83836 -0.96482,4.52117c0,1.68282 0.38144,3.1824 1.14432,4.49874c0.76288,1.31634 1.81745,2.35968 3.1637,3.13004c1.35374,0.76288 2.90193,1.14432 4.64458,1.14432c0.94986,0 1.92215,-0.17576 2.91689,-0.52728c1.00222,-0.35152 1.80623,-0.75914 2.41205,-1.22286c0.46372,-0.33656 0.96108,-0.51232 1.4921,-0.52728c0.5385,-0.01496 1.00595,0.14585 1.40236,0.48241c0.52355,0.46372 0.80028,0.97229 0.83019,1.52575c0.02991,0.54599 -0.21315,1.02091 -0.72922,1.42479c-1.04709,0.82272 -2.34473,1.49584 -3.89293,2.01938c-1.54072,0.51606 -3.01786,0.7741 -4.43143,0.7741zM421.52726,184.2968c-0.67313,0 -1.23033,-0.23559 -1.6716,-0.70678c-0.44127,-0.47867 -0.66191,-1.02465 -0.66191,-1.63795v-22.65077c0,-0.67313 0.22064,-1.23781 0.66191,-1.69404c0.44127,-0.46372 0.99847,-0.69556 1.6716,-0.69556c0.6806,0 1.24155,0.23186 1.68282,0.69556c0.44127,0.45623 0.66191,1.02091 0.66191,1.69404v22.65077c0,0.64322 -0.23933,1.19668 -0.718,1.66038c-0.47119,0.45623 -1.01343,0.68435 -1.62673,0.68435zM421.52726,192.80065c-0.85263,0 -1.59307,-0.30665 -2.22133,-0.91995c-0.62825,-0.61329 -0.94238,-1.36496 -0.94238,-2.25498c0,-0.88255 0.31413,-1.63795 0.94238,-2.2662c0.62825,-0.62825 1.36869,-0.94238 2.22133,-0.94238c0.89002,0 1.64169,0.31413 2.25498,0.94238c0.61329,0.62825 0.91995,1.38365 0.91995,2.2662c0,0.89002 -0.31413,1.64169 -0.94238,2.25498c-0.62825,0.61329 -1.37243,0.91995 -2.23255,0.91995z" fill="#ffffff" stroke-width="1" stroke-linecap="square"/></g></g></svg>