<svg version="1.1" xmlns="http://www.w3.org/2000/svg" xmlns:xlink="http://www.w3.org/1999/xlink" width="720" height="540" viewBox="0,0,720,540"><defs><clipPath id="clip-1"><rect x="-240" y="-180" transform="scale(0.5,0.5)" width="1440" height="1080" fill="none" fill-rule="nonzero" stroke-width="0.5" stroke-linecap="butt"/></clipPath></defs><g transform="translate(120,90)"><g clip-path="url(#clip-1)" data-paper-data="{&quot;isPaintingLayer&quot;:true}" stroke="none" stroke-linejoin="miter" stroke-miterlimit="10" stroke-dasharray="" stroke-dashoffset="0" style="mix-blend-mode: normal"><path d="M-240,-180h960v720h-960z" fill-opacity="0" fill="#000000" fill-rule="evenodd" stroke-width="1" stroke-linecap="square"/><path d="M-141.58793,-111.3832h675.4331v450.29922h-675.4331z" fill-opacity="0" fill="#000000" fill-rule="evenodd" stroke-width="1" stroke-linecap="square"/><path d="M-129.87402,-96.13911h721.16534v521.8268h-721.16534z" fill-opacity="0" fill="#000000" fill-rule="evenodd" stroke-width="1" stroke-linecap="square"/><path d="M-103.84276,-25.69911c-0.77083,0 -1.45833,-0.23437 -2.0625,-0.70312c-0.59375,-0.46875 -1.01562,-1.10937 -1.26562,-1.92187l-12.87501,-42.74999c-0.42708,-1.40625 -0.39583,-2.52604 0.09375,-3.35937c0.48958,-0.83333 1.29167,-1.25 2.40625,-1.25c0.72917,0 1.39063,0.20313 1.98438,0.60938c0.59375,0.40625 1.02083,1.03646 1.28125,1.89063l11.20313,39.03124h-1.40625l10.35938,-38.65624c0.17708,-0.63542 0.5625,-1.16667 1.15625,-1.59375c0.59375,-0.42708 1.27604,-0.64062 2.04688,-0.64062c0.67708,0 1.32292,0.18229 1.9375,0.54688c0.625,0.36458 1.02604,0.90625 1.20313,1.625l10.42188,38.71874h-1.28125l11.26563,-39.35937c0.42708,-1.44792 1.51563,-2.17187 3.26563,-2.17187c1.19792,0 1.96354,0.45833 2.29688,1.375c0.34375,0.91667 0.34896,1.99479 0.01563,3.23438l-12.875,42.68749c-0.29167,0.8125 -0.72917,1.46354 -1.3125,1.95313c-0.57292,0.48958 -1.24479,0.73438 -2.01562,0.73438c-0.8125,0 -1.50521,-0.25521 -2.07812,-0.76562c-0.57292,-0.51042 -0.98958,-1.13021 -1.25,-1.85937l-10.29687,-39.81249h1.53125l-10.42187,39.74999c-0.30208,0.8125 -0.74479,1.46354 -1.32812,1.95313c-0.57292,0.48958 -1.23958,0.73438 -2,0.73438zM-45.67899,-25.44911c-3.54167,0 -6.6875,-0.75521 -9.4375,-2.26562c-2.75,-1.51042 -4.90625,-3.59896 -6.46875,-6.26562c-1.55208,-2.66667 -2.32812,-5.72917 -2.32812,-9.1875c0,-3.5 0.73438,-6.58333 2.20313,-9.24999c1.47917,-2.66667 3.51563,-4.75521 6.10938,-6.26562c2.60417,-1.52083 5.59375,-2.28125 8.96875,-2.28125c3.32292,0 6.17708,0.73958 8.5625,2.21875c2.39583,1.46875 4.22396,3.49479 5.48438,6.07813c1.26042,2.57291 1.89063,5.54687 1.89063,8.92187c0,0.8125 -0.28125,1.48438 -0.84375,2.01563c-0.55208,0.53125 -1.25521,0.79688 -2.10937,0.79688h-25.78125v-5.125h25.59375l-2.625,1.79688c-0.04167,-2.13542 -0.46875,-4.04167 -1.28125,-5.71875c-0.8125,-1.68749 -1.96354,-3.02083 -3.45312,-3.99999c-1.48958,-0.98958 -3.30208,-1.48437 -5.4375,-1.48437c-2.4375,0 -4.52083,0.53646 -6.25,1.60938c-1.71875,1.0625 -3.02604,2.52604 -3.92187,4.39062c-0.89583,1.85417 -1.34375,3.95313 -1.34375,6.29688c0,2.34375 0.53125,4.43229 1.59375,6.26563c1.0625,1.83333 2.53125,3.28646 4.40625,4.35938c1.88542,1.0625 4.04167,1.59375 6.46875,1.59375c1.32292,0 2.67708,-0.24479 4.0625,-0.73437c1.39583,-0.48958 2.51563,-1.05729 3.35938,-1.70312c0.64583,-0.46875 1.33854,-0.71354 2.07813,-0.73437c0.75,-0.02083 1.40104,0.20313 1.95313,0.67188c0.72917,0.64583 1.11458,1.35417 1.15625,2.125c0.04167,0.76042 -0.29687,1.42188 -1.01562,1.98438c-1.45833,1.14583 -3.26562,2.08333 -5.42187,2.8125c-2.14583,0.71875 -4.20312,1.07813 -6.17187,1.07813zM-14.06006,-25.69911c-1.875,0 -3.54167,-0.51042 -5,-1.53125c-1.44792,-1.03125 -2.57812,-2.43229 -3.39062,-4.20312c-0.80208,-1.77083 -1.20312,-3.80729 -1.20312,-6.10937v-34.93749c0,-0.9375 0.29688,-1.70312 0.89063,-2.29687c0.59375,-0.60417 1.36458,-0.90625 2.3125,-0.90625c0.9375,0 1.70313,0.30208 2.29688,0.90625c0.59375,0.59375 0.89063,1.35938 0.89063,2.29688v34.93749c0,1.58333 0.29688,2.88542 0.89063,3.90625c0.60417,1.02083 1.375,1.53125 2.3125,1.53125h1.60938c0.84375,0 1.53125,0.30208 2.0625,0.90625c0.54167,0.59375 0.8125,1.35938 0.8125,2.29688c0,0.9375 -0.40625,1.70833 -1.21875,2.3125c-0.8125,0.59375 -1.85937,0.89063 -3.14062,0.89063zM5.13991,-25.69911c-1.875,0 -3.54167,-0.51042 -5,-1.53125c-1.44792,-1.03125 -2.57812,-2.43229 -3.39062,-4.20312c-0.80208,-1.77083 -1.20312,-3.80729 -1.20312,-6.10937v-34.93749c0,-0.9375 0.29688,-1.70312 0.89063,-2.29687c0.59375,-0.60417 1.36458,-0.90625 2.3125,-0.90625c0.9375,0 1.70313,0.30208 2.29688,0.90625c0.59375,0.59375 0.89063,1.35938 0.89063,2.29688v34.93749c0,1.58333 0.29688,2.88542 0.89063,3.90625c0.60417,1.02083 1.375,1.53125 2.3125,1.53125h1.60938c0.84375,0 1.53125,0.30208 2.0625,0.90625c0.54167,0.59375 0.8125,1.35938 0.8125,2.29688c0,0.9375 -0.40625,1.70833 -1.21875,2.3125c-0.8125,0.59375 -1.85937,0.89063 -3.14062,0.89063zM38.74808,-25.69911c-0.94792,0 -1.73958,-0.31771 -2.375,-0.95312c-0.63542,-0.64583 -0.95312,-1.4375 -0.95312,-2.375v-43.32812c0,-0.97917 0.31771,-1.77604 0.95313,-2.39062c0.63542,-0.625 1.42708,-0.9375 2.375,-0.9375h11.57813c3.66667,0 7.00521,0.60938 10.01563,1.82813c3.01042,1.21875 5.625,2.94792 7.84375,5.1875c2.21875,2.23958 3.92188,4.875 5.10938,7.90625c1.19792,3.02083 1.79688,6.36458 1.79688,10.03124c0,3.67708 -0.59896,7.04167 -1.79687,10.09375c-1.1875,3.04167 -2.89062,5.6875 -5.10937,7.9375c-2.21875,2.23958 -4.83333,3.96875 -7.84375,5.1875c-3.01042,1.20833 -6.34896,1.8125 -10.01562,1.8125zM42.0762,-31.58973h8.25c3.58333,0 6.75,-0.81771 9.5,-2.45312c2.75,-1.64583 4.91667,-3.90625 6.5,-6.78125c1.58333,-2.88542 2.375,-6.1875 2.375,-9.90625c0,-3.74999 -0.79167,-7.05208 -2.375,-9.90624c-1.58333,-2.86458 -3.75,-5.10417 -6.5,-6.71875c-2.75,-1.625 -5.91667,-2.4375 -9.5,-2.4375h-8.25zM100.75061,-25.44911c-3.44792,0 -6.49479,-0.75521 -9.14062,-2.26562c-2.64583,-1.51042 -4.72917,-3.59896 -6.25,-6.26562c-1.51042,-2.66667 -2.26562,-5.72917 -2.26562,-9.1875c0,-3.5 0.75521,-6.58333 2.26563,-9.24999c1.52083,-2.66667 3.60417,-4.75521 6.25,-6.26562c2.64583,-1.52083 5.69271,-2.28125 9.14063,-2.28125c3.41667,0 6.44792,0.76042 9.09375,2.28125c2.64583,1.51042 4.72396,3.59896 6.23438,6.26563c1.52083,2.66666 2.28125,5.74999 2.28125,9.24999c0,3.45833 -0.75,6.52083 -2.25,9.1875c-1.48958,2.66667 -3.55729,4.75521 -6.20312,6.26563c-2.64583,1.51042 -5.69792,2.26563 -9.15625,2.26563zM100.75061,-31.19911c2.21875,0 4.18229,-0.51042 5.89063,-1.53125c1.70833,-1.03125 3.04167,-2.44271 4,-4.23437c0.95833,-1.79167 1.4375,-3.85937 1.4375,-6.20312c0,-2.34375 -0.47917,-4.42187 -1.4375,-6.23437c-0.95833,-1.82291 -2.29167,-3.24478 -4,-4.26562c-1.70833,-1.02083 -3.67187,-1.53125 -5.89062,-1.53125c-2.21875,0 -4.18229,0.51042 -5.89062,1.53125c-1.69792,1.02083 -3.04167,2.44271 -4.03125,4.26562c-0.97917,1.8125 -1.46875,3.89063 -1.46875,6.23438c0,2.34375 0.48958,4.41146 1.46875,6.20313c0.98958,1.79167 2.33333,3.20313 4.03125,4.23438c1.70833,1.02083 3.67188,1.53125 5.89063,1.53125zM157.65365,-25.63661c-0.9375,0 -1.71875,-0.30729 -2.34375,-0.92187c-0.61458,-0.625 -0.92187,-1.40625 -0.92187,-2.34375v-15.73437c0,-2.4375 -0.44792,-4.42187 -1.34375,-5.95312c-0.89583,-1.54166 -2.10417,-2.68228 -3.625,-3.42187c-1.51042,-0.75 -3.24479,-1.125 -5.20312,-1.125c-1.79167,0 -3.41667,0.36458 -4.875,1.09375c-1.44792,0.71875 -2.59896,1.6875 -3.45312,2.90624c-0.85417,1.21875 -1.28125,2.61458 -1.28125,4.1875h-4.03125c0,-2.6875 0.65104,-5.08333 1.95313,-7.18749c1.30208,-2.11458 3.08333,-3.79167 5.34375,-5.03125c2.26042,-1.23958 4.80208,-1.85937 7.625,-1.85937c2.9375,0 5.56771,0.63021 7.89063,1.89063c2.33333,1.26042 4.17188,3.10938 5.51563,5.54688c1.34375,2.42708 2.01563,5.41145 2.01563,8.95312v15.73438c0,0.9375 -0.3125,1.71875 -0.9375,2.34375c-0.61458,0.61458 -1.39062,0.92188 -2.32812,0.92188zM131.35678,-25.63661c-0.94792,0 -1.72917,-0.30729 -2.34375,-0.92187c-0.61458,-0.625 -0.92187,-1.40625 -0.92187,-2.34375v-28.54687c0,-0.97917 0.30729,-1.76562 0.92188,-2.35937c0.61458,-0.60417 1.39583,-0.90625 2.34375,-0.90625c0.97917,0 1.76563,0.30208 2.35938,0.90625c0.59375,0.59375 0.89063,1.38021 0.89063,2.35938v28.54687c0,0.9375 -0.29687,1.71875 -0.89062,2.34375c-0.59375,0.61458 -1.38021,0.92188 -2.35937,0.92188zM188.17657,-25.44911c-3.54167,0 -6.6875,-0.75521 -9.4375,-2.26562c-2.75,-1.51042 -4.90625,-3.59896 -6.46875,-6.26562c-1.55208,-2.66667 -2.32812,-5.72917 -2.32812,-9.1875c0,-3.5 0.73438,-6.58333 2.20313,-9.24999c1.47917,-2.66667 3.51563,-4.75521 6.10938,-6.26562c2.60417,-1.52083 5.59375,-2.28125 8.96875,-2.28125c3.32292,0 6.17708,0.73958 8.5625,2.21875c2.39583,1.46875 4.22396,3.49479 5.48438,6.07813c1.26042,2.57291 1.89063,5.54687 1.89063,8.92187c0,0.8125 -0.28125,1.48438 -0.84375,2.01563c-0.55208,0.53125 -1.25521,0.79688 -2.10937,0.79688h-25.78125v-5.125h25.59375l-2.625,1.79688c-0.04167,-2.13542 -0.46875,-4.04167 -1.28125,-5.71875c-0.8125,-1.68749 -1.96354,-3.02083 -3.45312,-3.99999c-1.48958,-0.98958 -3.30208,-1.48437 -5.4375,-1.48437c-2.4375,0 -4.52083,0.53646 -6.25,1.60938c-1.71875,1.0625 -3.02604,2.52604 -3.92187,4.39062c-0.89583,1.85417 -1.34375,3.95313 -1.34375,6.29688c0,2.34375 0.53125,4.43229 1.59375,6.26563c1.0625,1.83333 2.53125,3.28646 4.40625,4.35938c1.88542,1.0625 4.04167,1.59375 6.46875,1.59375c1.32292,0 2.67708,-0.24479 4.0625,-0.73437c1.39583,-0.48958 2.51563,-1.05729 3.35938,-1.70312c0.64583,-0.46875 1.33854,-0.71354 2.07813,-0.73437c0.75,-0.02083 1.40104,0.20313 1.95313,0.67188c0.72917,0.64583 1.11458,1.35417 1.15625,2.125c0.04167,0.76042 -0.29687,1.42188 -1.01562,1.98438c-1.45833,1.14583 -3.26562,2.08333 -5.42187,2.8125c-2.14583,0.71875 -4.20312,1.07813 -6.17187,1.07813zM213.32675,-37.54286c-0.9375,0 -1.71354,-0.32812 -2.32812,-0.98437c-0.61458,-0.66667 -0.92187,-1.42708 -0.92187,-2.28125v-31.54687c0,-0.9375 0.30729,-1.72396 0.92188,-2.35937c0.61458,-0.64583 1.39063,-0.96875 2.32813,-0.96875c0.94792,0 1.72917,0.32292 2.34375,0.96875c0.61458,0.63542 0.92188,1.42188 0.92188,2.35938v31.54687c0,0.89583 -0.33333,1.66667 -1,2.3125c-0.65625,0.63542 -1.41146,0.95313 -2.26562,0.95313zM213.32675,-25.69911c-1.1875,0 -2.21875,-0.42708 -3.09375,-1.28125c-0.875,-0.85417 -1.3125,-1.90104 -1.3125,-3.14062c0,-1.22917 0.4375,-2.28125 1.3125,-3.15625c0.875,-0.875 1.90625,-1.3125 3.09375,-1.3125c1.23958,0 2.28646,0.4375 3.14063,1.3125c0.85417,0.875 1.28125,1.92708 1.28125,3.15625c0,1.23958 -0.4375,2.28646 -1.3125,3.14063c-0.875,0.85417 -1.91146,1.28125 -3.10937,1.28125z" fill="#ffffff" fill-rule="nonzero" stroke-width="1" stroke-linecap="square"/></g></g></svg>