<svg version="1.1" xmlns="http://www.w3.org/2000/svg" xmlns:xlink="http://www.w3.org/1999/xlink" width="500" height="378.37838" viewBox="0,0,500,378.37838"><g transform="translate(10,9.18919)"><g data-paper-data="{&quot;isPaintingLayer&quot;:true}" fill-rule="nonzero" stroke="none" stroke-linejoin="miter" stroke-miterlimit="10" stroke-dasharray="" stroke-dashoffset="0" style="mix-blend-mode: normal"><path d="M-10,369.18919v-378.37838h500v378.37838z" fill="#000000" stroke-width="0" stroke-linecap="butt"/><path d="M131.3161,204.86718c-0.9375,0 -1.71354,-0.31771 -2.32812,-0.95312c-0.61459,-0.64584 -0.92187,-1.4375 -0.92187,-2.375v-43.32812c0,-0.9375 0.31771,-1.72396 0.95313,-2.35937c0.63541,-0.64584 1.40104,-0.96875 2.29688,-0.96875c0.94791,0 1.73959,0.32291 2.375,0.96875c0.63541,0.63541 0.95313,1.42188 0.95313,2.35938v39.99999h23.17189c0.9375,0 1.72396,0.32291 2.35938,0.96875c0.64584,0.63541 0.96875,1.42188 0.96875,2.35938c0,0.9375 -0.32291,1.72916 -0.96875,2.375c-0.63541,0.63541 -1.42187,0.95313 -2.35937,0.95313zM184.95092,205.11718c-3.54166,0 -6.6875,-0.75521 -9.4375,-2.26562c-2.75,-1.51042 -4.90625,-3.59896 -6.46875,-6.26562c-1.55209,-2.66666 -2.32812,-5.72916 -2.32812,-9.18749c0,-3.5 0.73438,-6.58334 2.20313,-9.25c1.47916,-2.66667 3.51563,-4.75521 6.10938,-6.26563c2.60416,-1.52083 5.59375,-2.28125 8.96875,-2.28125c3.32292,0 6.17708,0.73959 8.5625,2.21875c2.39583,1.46875 4.22396,3.49479 5.48438,6.07813c1.26042,2.57291 1.89063,5.54687 1.89063,8.92188c0,0.8125 -0.28125,1.48438 -0.84375,2.01563c-0.55208,0.53125 -1.25521,0.79687 -2.10937,0.79687h-25.78125v-5.125h25.59375l-2.625,1.79687c-0.04167,-2.13541 -0.46875,-4.04166 -1.28125,-5.71875c-0.8125,-1.6875 -1.96354,-3.02084 -3.45312,-4c-1.48958,-0.98959 -3.30208,-1.48437 -5.4375,-1.48437c-2.4375,0 -4.52084,0.53646 -6.25,1.60938c-1.71875,1.0625 -3.02604,2.52604 -3.92187,4.39063c-0.89584,1.85416 -1.34375,3.95313 -1.34375,6.29688c0,2.34375 0.53125,4.43229 1.59375,6.26562c1.0625,1.83333 2.53125,3.28645 4.40625,4.35937c1.88541,1.0625 4.04166,1.59375 6.46875,1.59375c1.32292,0 2.67709,-0.24479 4.0625,-0.73437c1.39584,-0.48959 2.51563,-1.05729 3.35938,-1.70312c0.64583,-0.46875 1.33854,-0.71354 2.07813,-0.73437c0.75,-0.02084 1.40104,0.20313 1.95313,0.67188c0.72917,0.64583 1.11458,1.35416 1.15625,2.125c0.04167,0.76041 -0.29687,1.42188 -1.01562,1.98438c-1.45833,1.14584 -3.26562,2.08334 -5.42187,2.8125c-2.14583,0.71875 -4.20312,1.07813 -6.17187,1.07813zM218.80547,204.80468c-1.32292,0 -2.34375,-0.70312 -3.0625,-2.10937l-13.57812,-28.60936c-0.33333,-0.72917 -0.36458,-1.44271 -0.09375,-2.14063c0.28125,-0.70833 0.82813,-1.25521 1.64063,-1.64062c0.71875,-0.38541 1.45313,-0.44791 2.20313,-0.1875c0.75,0.25 1.31771,0.73959 1.70313,1.46875l12.67188,27.32812h-3.07812l12.54688,-27.32812c0.38541,-0.72916 0.96875,-1.21875 1.75,-1.46875c0.79166,-0.26041 1.59375,-0.19791 2.40625,0.1875c0.77083,0.34375 1.28125,0.88021 1.53125,1.60938c0.26041,0.71875 0.21875,1.44271 -0.125,2.17188l-13.5625,28.60936c-0.64583,1.40625 -1.63021,2.10938 -2.95312,2.10938zM257.20679,205.11718c-3.54166,0 -6.6875,-0.75521 -9.4375,-2.26562c-2.75,-1.51042 -4.90625,-3.59896 -6.46875,-6.26562c-1.55209,-2.66666 -2.32812,-5.72916 -2.32812,-9.18749c0,-3.5 0.73438,-6.58334 2.20313,-9.25c1.47916,-2.66667 3.51563,-4.75521 6.10938,-6.26563c2.60417,-1.52083 5.59375,-2.28125 8.96875,-2.28125c3.32292,0 6.17708,0.73959 8.5625,2.21875c2.39583,1.46875 4.22396,3.49479 5.48438,6.07813c1.26042,2.57291 1.89063,5.54687 1.89063,8.92188c0,0.8125 -0.28125,1.48438 -0.84375,2.01563c-0.55208,0.53125 -1.25521,0.79687 -2.10937,0.79687h-25.78125v-5.125h25.59375l-2.625,1.79687c-0.04167,-2.13541 -0.46875,-4.04166 -1.28125,-5.71875c-0.8125,-1.6875 -1.96354,-3.02084 -3.45312,-4c-1.48958,-0.98959 -3.30208,-1.48437 -5.4375,-1.48437c-2.4375,0 -4.52083,0.53646 -6.25,1.60938c-1.71875,1.0625 -3.02604,2.52604 -3.92187,4.39063c-0.89584,1.85416 -1.34375,3.95313 -1.34375,6.29688c0,2.34375 0.53125,4.43229 1.59375,6.26562c1.0625,1.83333 2.53125,3.28645 4.40625,4.35937c1.88542,1.0625 4.04167,1.59375 6.46875,1.59375c1.32292,0 2.67708,-0.24479 4.0625,-0.73437c1.39583,-0.48959 2.51563,-1.05729 3.35938,-1.70312c0.64583,-0.46875 1.33854,-0.71354 2.07813,-0.73437c0.75,-0.02084 1.40104,0.20313 1.95313,0.67188c0.72917,0.64583 1.11458,1.35416 1.15625,2.125c0.04167,0.76041 -0.29687,1.42188 -1.01562,1.98438c-1.45833,1.14584 -3.26562,2.08334 -5.42187,2.8125c-2.14583,0.71875 -4.20312,1.07813 -6.17187,1.07813zM288.82572,204.86718c-1.875,0 -3.54166,-0.51041 -5,-1.53125c-1.44791,-1.03125 -2.57812,-2.43229 -3.39062,-4.20312c-0.80208,-1.77084 -1.20312,-3.80729 -1.20312,-6.10937v-34.9375c0,-0.9375 0.29688,-1.70312 0.89063,-2.29687c0.59375,-0.60416 1.36459,-0.90625 2.3125,-0.90625c0.9375,0 1.70313,0.30209 2.29688,0.90625c0.59375,0.59375 0.89063,1.35938 0.89063,2.29688v34.9375c0,1.58333 0.29688,2.88541 0.89063,3.90624c0.60416,1.02083 1.375,1.53125 2.3125,1.53125h1.60938c0.84375,0 1.53125,0.30208 2.0625,0.90625c0.54166,0.59375 0.8125,1.35938 0.8125,2.29688c0,0.9375 -0.40625,1.70834 -1.21875,2.3125c-0.8125,0.59375 -1.85937,0.89063 -3.14062,0.89063zM341.6214,204.86718c-0.85417,0 -1.57812,-0.31771 -2.17187,-0.95312c-0.59375,-0.64584 -0.89062,-1.41666 -0.89062,-2.3125v-8.06249h-21.3125c-0.97917,0 -1.75,-0.29687 -2.3125,-0.89062c-0.55209,-0.60416 -0.85937,-1.29687 -0.92187,-2.07812c-0.0625,-0.79166 0.14063,-1.51041 0.60938,-2.15625l24.51563,-32.125c0.33333,-0.42709 0.72396,-0.76562 1.17188,-1.01562c0.44791,-0.26041 0.95313,-0.39062 1.51563,-0.39062c0.89583,0 1.61979,0.32291 2.17188,0.96875c0.55208,0.63541 0.82813,1.42188 0.82813,2.35938v29.4375h3.84375c0.89583,0 1.66146,0.21354 2.29688,0.64063c0.64583,0.42708 0.96875,1.19791 0.96875,2.3125c0,0.80209 -0.32292,1.49479 -0.96875,2.07813c-0.63542,0.57292 -1.40104,0.85938 -2.29687,0.85938h-3.84375v8.06249c0,0.89584 -0.29687,1.66666 -0.89062,2.3125c-0.59375,0.63541 -1.36459,0.95313 -2.3125,0.95313zM321.09015,189.44532l-1.73437,-1.79687h19.20313v-26.35938l1.98438,2.54688z" fill="#ffffff" stroke-width="1" stroke-linecap="square"/></g></g></svg>