<svg version="1.1" xmlns="http://www.w3.org/2000/svg" xmlns:xlink="http://www.w3.org/1999/xlink" width="720" height="540" viewBox="0,0,720,540"><defs><clipPath id="clip-1"><rect x="-240" y="-180" transform="scale(0.5,0.5)" width="1440" height="1080" fill="none" fill-rule="nonzero" stroke-width="0.5" stroke-linecap="butt"/></clipPath></defs><g transform="translate(120,90)"><g clip-path="url(#clip-1)" data-paper-data="{&quot;isPaintingLayer&quot;:true}" stroke="none" stroke-linejoin="miter" stroke-miterlimit="10" stroke-dasharray="" stroke-dashoffset="0" style="mix-blend-mode: normal"><path d="M-240,-180h960v720h-960z" fill-opacity="0" fill="#000000" fill-rule="evenodd" stroke-width="1" stroke-linecap="square"/><path d="M-141.58793,-111.3832h675.4331v450.29922h-675.4331z" fill-opacity="0" fill="#000000" fill-rule="evenodd" stroke-width="1" stroke-linecap="square"/><path d="M-129.87402,-96.13911h721.16534v521.8268h-721.16534z" fill-opacity="0" fill="#000000" fill-rule="evenodd" stroke-width="1" stroke-linecap="square"/><path d="M-76.05856,369.18919v-381.38138h569.06907v381.38138z" fill="#000000" fill-rule="nonzero" stroke-width="0" stroke-linecap="butt"/><path d="M52.42751,156.62626c-2.65223,0 -5.13269,-0.49928 -7.44139,-1.49786c-2.30072,-0.99858 -4.30985,-2.3886 -6.02741,-4.17006c-1.71756,-1.78146 -3.05965,-3.86649 -4.02627,-6.25508c-0.96662,-2.3886 -1.44993,-4.97691 -1.44993,-7.76494c0,-2.74808 0.48331,-5.30843 1.44994,-7.68105c0.96661,-2.37262 2.30871,-4.44967 4.02627,-6.23112c1.71756,-1.78145 3.71871,-3.17947 6.00345,-4.19403c2.29274,-1.01455 4.78119,-1.52183 7.46536,-1.52183c2.5244,0 4.69331,0.32754 6.50674,0.9826c1.81342,0.65506 3.63881,1.73352 5.4762,3.23539c0.25564,0.19971 0.45535,0.40742 0.59914,0.62311c0.15178,0.20771 0.25164,0.4194 0.29958,0.6351c0.05591,0.20771 0.08388,0.45935 0.08388,0.75493c0,0.62311 -0.22368,1.15036 -0.67105,1.58174c-0.43937,0.4234 -0.9786,0.65108 -1.61769,0.68303c-0.63909,0.03195 -1.23423,-0.18374 -1.78545,-0.64708c-1.21428,-1.04651 -2.46849,-1.84537 -3.76264,-2.39658c-1.29416,-0.5592 -3.00372,-0.83881 -5.12869,-0.83881c-1.92525,0 -3.73868,0.39544 -5.44025,1.18632c-1.70157,0.78289 -3.19943,1.86135 -4.49359,3.23538c-1.29416,1.37404 -2.30072,2.96777 -3.0197,4.78119c-0.71898,1.81342 -1.07846,3.75065 -1.07846,5.81171c0,2.10101 0.35948,4.05822 1.07846,5.87163c0.71898,1.81341 1.72554,3.40715 3.0197,4.78119c1.29416,1.37405 2.79203,2.44851 4.4936,3.22341c1.70157,0.76691 3.51499,1.15037 5.44025,1.15037c1.66962,0 3.24737,-0.2876 4.73326,-0.86277c1.49386,-0.57518 2.92783,-1.36605 4.30188,-2.37261c0.59117,-0.43139 1.17033,-0.61912 1.73752,-0.5632c0.57518,0.04793 1.0585,0.27561 1.44994,0.68303c0.39143,0.40742 0.58716,0.97062 0.58716,1.68959c0,0.32753 -0.05592,0.64708 -0.16776,0.95864c-0.11185,0.31155 -0.31555,0.59914 -0.61113,0.86277c-1.73353,1.43795 -3.61485,2.50843 -5.64396,3.21142c-2.02912,0.703 -4.15807,1.0545 -6.38689,1.0545zM65.23726,150.53893l-4.90102,-0.9826v-8.78348h-6.78233c-0.71898,0 -1.3261,-0.2117 -1.8214,-0.63509c-0.4873,-0.43139 -0.73096,-0.97061 -0.73096,-1.61769c0,-0.65507 0.24366,-1.1943 0.73096,-1.61769c0.4953,-0.43139 1.10243,-0.64708 1.8214,-0.64708h9.17892c0.75893,0 1.36606,0.23966 1.8214,0.71898c0.45535,0.47133 0.68303,1.08246 0.68303,1.83339zM82.13015,156.32668c-2.3886,0 -4.53354,-0.59515 -6.43483,-1.78545c-1.90129,-1.19829 -3.39915,-2.81998 -4.49359,-4.86507c-1.09445,-2.04509 -1.64165,-4.35779 -1.64165,-6.93811c0,-2.58831 0.59515,-4.913 1.78546,-6.97405c1.19829,-2.06106 2.81998,-3.68675 4.86507,-4.87705c2.04509,-1.19829 4.34181,-1.79744 6.89019,-1.79744c2.55635,0 4.84909,0.59915 6.87819,1.79744c2.02911,1.1903 3.63882,2.81599 4.82912,4.87705c1.19829,2.06106 1.79744,4.38575 1.79744,6.97406h-1.91727c0,2.58032 -0.54722,4.89303 -1.64165,6.93811c-1.09444,2.04509 -2.59231,3.66678 -4.49359,4.86507c-1.8933,1.1903 -4.03425,1.78546 -6.42284,1.78546zM83.10077,151.91697c1.66962,0 3.1595,-0.39943 4.46963,-1.19829c1.31013,-0.80685 2.34067,-1.90528 3.0916,-3.2953c0.75093,-1.39002 1.12639,-2.95179 1.12639,-4.68532c0,-1.76548 -0.37547,-3.34323 -1.12639,-4.73326c-0.75093,-1.398 -1.78147,-2.49643 -3.0916,-3.2953c-1.31013,-0.79886 -2.8,-1.19829 -4.46962,-1.19829c-1.62968,0 -3.10757,0.39943 -4.43369,1.19829c-1.32611,0.79887 -2.37661,1.8973 -3.1515,3.2953c-0.76691,1.39002 -1.15036,2.96777 -1.15036,4.73326c0,1.73353 0.38345,3.29531 1.15036,4.68533c0.7749,1.39002 1.8254,2.48845 3.15151,3.2953c1.32612,0.79886 2.804,1.19829 4.43368,1.19829zM94.10109,156.18289c-0.71898,0 -1.31812,-0.23566 -1.79744,-0.70698c-0.47132,-0.47931 -0.70699,-1.07846 -0.70699,-1.79744v-7.50131l0.93467,-5.21257l4.07419,1.77347v10.94041c0,0.71898 -0.23966,1.31813 -0.71898,1.79744c-0.47132,0.47134 -1.06648,0.707 -1.78545,0.707zM139.31021,156.18289c-0.72696,0 -1.3261,-0.23566 -1.79744,-0.70698c-0.47133,-0.47931 -0.70698,-1.07846 -0.70698,-1.79744v-14.032c0,-2.06106 -0.50728,-3.59088 -1.52183,-4.58946c-1.01455,-0.99858 -2.34066,-1.49786 -3.97833,-1.49786c-1.70158,0 -3.10358,0.59115 -4.20601,1.77347c-1.09444,1.17432 -1.64166,2.67618 -1.64166,4.50557h-4.06221c0,-2.12497 0.45535,-3.99829 1.36605,-5.61999c0.9187,-1.62168 2.20486,-2.88788 3.8585,-3.79858c1.65365,-0.9187 3.54295,-1.37804 5.66792,-1.37804c1.86136,0 3.51099,0.41142 4.94894,1.23424c1.44594,0.81484 2.56834,2.01713 3.36721,3.60687c0.79887,1.58174 1.1983,3.503 1.1983,5.76378v14.03201c0,0.71898 -0.22768,1.31812 -0.68303,1.79744c-0.45535,0.47133 -1.05849,0.707 -1.80942,0.707zM106.57286,156.18289c-0.72696,0 -1.3261,-0.23566 -1.79744,-0.70698c-0.47134,-0.47931 -0.70699,-1.07846 -0.70699,-1.79744v-21.84487c0,-0.75093 0.23566,-1.35406 0.707,-1.80942c0.47133,-0.45535 1.07048,-0.68302 1.79744,-0.68302c0.75092,0 1.35407,0.22768 1.80943,0.68303c0.45535,0.45535 0.68303,1.05849 0.68303,1.80943v21.84487c0,0.71898 -0.22768,1.31813 -0.68303,1.79744c-0.45535,0.47133 -1.05849,0.70699 -1.80941,0.70699zM122.9655,156.18289c-0.72696,0 -1.3261,-0.23566 -1.79743,-0.70698c-0.47133,-0.47931 -0.70699,-1.07846 -0.70699,-1.79744v-14.032c0,-2.06106 -0.50728,-3.59088 -1.52183,-4.58946c-1.01455,-0.99858 -2.34066,-1.49786 -3.97833,-1.49786c-1.70158,0 -3.11157,0.59115 -4.22998,1.77347c-1.11042,1.17432 -1.66562,2.67618 -1.66562,4.50557h-3.09159c0,-2.12497 0.42339,-3.99829 1.27019,-5.61999c0.85478,-1.62168 2.0331,-2.88788 3.53496,-3.79858c1.50985,-0.9187 3.2314,-1.37804 5.16464,-1.37804c1.86136,0 3.511,0.41142 4.94895,1.23424c1.44594,0.81484 2.56834,2.01713 3.36721,3.60687c0.79886,1.58174 1.19829,3.503 1.19829,5.76378v14.03201c0,0.71898 -0.22768,1.31812 -0.68302,1.79744c-0.45535,0.47133 -1.05849,0.707 -1.80942,0.707zM162.71335,156.32668c-2.71613,0 -5.12869,-0.57918 -7.23768,-1.73752c-2.10899,-1.15835 -3.76264,-2.76007 -4.96093,-4.80515c-1.1903,-2.04509 -1.78546,-4.39373 -1.78546,-7.04596c0,-2.68418 0.5632,-5.0488 1.6896,-7.09388c1.13439,-2.04509 2.69616,-3.64681 4.68533,-4.80515c1.99715,-1.16634 4.28989,-1.7495 6.8782,-1.7495c2.54837,0 4.73724,0.56719 6.56664,1.70157c1.83738,1.1264 3.23939,2.68018 4.20601,4.66136c0.96662,1.97319 1.44994,4.25394 1.44994,6.84224c0,0.62311 -0.21569,1.13838 -0.64708,1.5458c-0.4234,0.40742 -0.96263,0.61114 -1.61769,0.61114h-19.77183v-3.9304h19.62803l-2.01313,1.37804c-0.03196,-1.63767 -0.35949,-3.09958 -0.9826,-4.38575c-0.62311,-1.29415 -1.50585,-2.3167 -2.64822,-3.06762c-1.14237,-0.75892 -2.53239,-1.13837 -4.17006,-1.13837c-1.86934,0 -3.46706,0.41142 -4.79317,1.23425c-1.31812,0.81484 -2.32069,1.93724 -3.00771,3.3672c-0.68702,1.42198 -1.03053,3.03168 -1.03053,4.82912c0,1.79744 0.40742,3.39916 1.22226,4.80516c0.81484,1.40599 1.94124,2.5204 3.37919,3.34323c1.44594,0.81484 3.09958,1.22226 4.96093,1.22226c1.01456,0 2.05307,-0.18773 3.11556,-0.5632c1.07047,-0.37546 1.92925,-0.81084 2.57633,-1.30613c0.49529,-0.35949 1.02654,-0.54721 1.59374,-0.56319c0.57518,-0.01597 1.07447,0.15578 1.49787,0.51527c0.55921,0.49529 0.85478,1.03852 0.88673,1.62967c0.03195,0.58317 -0.22767,1.09045 -0.77888,1.52184c-1.1184,0.87874 -2.50442,1.59773 -4.15807,2.15693c-1.64565,0.55122 -3.2234,0.82683 -4.73326,0.82683zM212.63106,156.62626c-2.65222,0 -5.13269,-0.49928 -7.44139,-1.49786c-2.30072,-0.99858 -4.30985,-2.3886 -6.0274,-4.17006c-1.71756,-1.78146 -3.05965,-3.86649 -4.02626,-6.25508c-0.96661,-2.3886 -1.44993,-4.97691 -1.44993,-7.76494c0,-2.74808 0.48331,-5.30843 1.44993,-7.68105c0.96661,-2.37262 2.30871,-4.44967 4.02627,-6.23112c1.71756,-1.78145 3.7187,-3.17947 6.00344,-4.19403c2.29274,-1.01455 4.78119,-1.52183 7.46537,-1.52183c2.5244,0 4.69331,0.32754 6.50673,0.9826c1.81342,0.65506 3.63881,1.73352 5.4762,3.23539c0.25564,0.19971 0.45535,0.40742 0.59914,0.62311c0.15178,0.20771 0.25165,0.4194 0.29958,0.6351c0.05591,0.20771 0.08388,0.45935 0.08388,0.75493c0,0.62311 -0.22367,1.13838 -0.67104,1.5458c-0.43937,0.40742 -0.97062,0.63909 -1.59373,0.69501c-0.62311,0.04793 -1.22625,-0.15977 -1.80942,-0.62311c-1.21427,-1.04651 -2.46849,-1.84537 -3.76264,-2.39658c-1.29415,-0.5592 -3.00371,-0.83881 -5.12869,-0.83881c-1.92525,0 -3.73867,0.39544 -5.44025,1.18632c-1.70157,0.78289 -3.19944,1.86135 -4.49359,3.23538c-1.29415,1.37404 -2.30072,2.96777 -3.01969,4.78119c-0.71898,1.81342 -1.07846,3.75065 -1.07846,5.81171c0,2.10101 0.35949,4.05822 1.07846,5.87163c0.71898,1.81341 1.72554,3.40715 3.01969,4.78119c1.29415,1.37405 2.79203,2.44851 4.4936,3.22341c1.70157,0.76691 3.515,1.15037 5.44025,1.15037c1.66962,0 3.24737,-0.2876 4.73326,-0.86277c1.49386,-0.57518 2.92783,-1.36605 4.30187,-2.37261c0.59116,-0.43139 1.17033,-0.61912 1.73753,-0.5632c0.57518,0.04793 1.05849,0.27561 1.44994,0.68303c0.39144,0.40742 0.58717,0.97062 0.58717,1.68959c0,0.32753 -0.0679,0.64708 -0.2037,0.95864c-0.12781,0.31155 -0.31955,0.59914 -0.57519,0.86277c-1.76549,1.40599 -3.6548,2.46848 -5.66792,3.18746c-2.01313,0.71898 -4.13411,1.07846 -6.36293,1.07846zM243.3043,156.32668c-2.64423,0 -4.9809,-0.57918 -7.01,-1.73752c-2.02911,-1.15835 -3.62682,-2.76007 -4.79317,-4.80515c-1.15834,-2.04509 -1.73752,-4.39373 -1.73752,-7.04596c0,-2.68418 0.57917,-5.0488 1.73753,-7.09388c1.16635,-2.04509 2.76406,-3.64681 4.79317,-4.80515c2.02911,-1.16634 4.36578,-1.7495 7.01002,-1.7495c2.62026,0 4.94495,0.58317 6.97406,1.7495c2.02912,1.15835 3.62284,2.76006 4.78119,4.80516c1.16634,2.04508 1.7495,4.40971 1.7495,7.09389c0,2.65222 -0.57518,5.00087 -1.72554,7.04596c-1.14238,2.04509 -2.72811,3.64681 -4.75721,4.80516c-2.02911,1.15835 -4.36977,1.73753 -7.022,1.73753zM243.3043,151.91697c1.70157,0 3.20743,-0.39144 4.51757,-1.17433c1.31014,-0.79087 2.33267,-1.87333 3.06763,-3.24737c0.73496,-1.37404 1.10243,-2.95977 1.10243,-4.75722c0,-1.79744 -0.36747,-3.39116 -1.10243,-4.78118c-0.73496,-1.398 -1.75749,-2.48844 -3.06763,-3.27133c-1.31014,-0.78288 -2.81599,-1.17433 -4.51756,-1.17433c-1.70157,0 -3.20743,0.39145 -4.51756,1.17433c-1.30214,0.78288 -2.33267,1.87333 -3.09159,3.27133c-0.75092,1.39002 -1.1264,2.98375 -1.1264,4.78119c0,1.79744 0.37547,3.38318 1.1264,4.75723c0.75893,1.37405 1.78945,2.4565 3.09159,3.24737c1.31014,0.78288 2.81599,1.17433 4.51757,1.17433zM299.51374,156.18289c-0.72696,0 -1.3261,-0.23566 -1.79744,-0.70698c-0.47133,-0.47931 -0.70699,-1.07846 -0.70699,-1.79744v-14.032c0,-2.06106 -0.50728,-3.59088 -1.52183,-4.58946c-1.01455,-0.99858 -2.34067,-1.49786 -3.97833,-1.49786c-1.70157,0 -3.10357,0.59115 -4.206,1.77347c-1.09445,1.17432 -1.64166,2.67618 -1.64166,4.50557h-4.06221c0,-2.12497 0.45535,-3.99829 1.36605,-5.61999c0.91869,-1.62168 2.20486,-2.88788 3.85851,-3.79858c1.65364,-0.9187 3.54295,-1.37804 5.66792,-1.37804c1.86136,0 3.51101,0.41142 4.94896,1.23424c1.44593,0.81484 2.56834,2.01713 3.36721,3.60687c0.79886,1.58174 1.19829,3.503 1.19829,5.76378v14.03201c0,0.71898 -0.22767,1.31812 -0.68302,1.79744c-0.45535,0.47133 -1.05849,0.707 -1.80942,0.707zM266.77639,156.18289c-0.72696,0 -1.3261,-0.23566 -1.79744,-0.70698c-0.47134,-0.47931 -0.70699,-1.07846 -0.70699,-1.79744v-21.84487c0,-0.75093 0.23566,-1.35406 0.707,-1.80942c0.47134,-0.45535 1.07048,-0.68302 1.79744,-0.68302c0.75092,0 1.35407,0.22768 1.80942,0.68303c0.45535,0.45535 0.68303,1.05849 0.68303,1.80943v21.84487c0,0.71898 -0.22767,1.31813 -0.68302,1.79744c-0.45535,0.47133 -1.0585,0.70699 -1.80942,0.70699zM283.16903,156.18289c-0.72696,0 -1.3261,-0.23566 -1.79744,-0.70698c-0.47133,-0.47931 -0.70699,-1.07846 -0.70699,-1.79744v-14.032c0,-2.06106 -0.50727,-3.59088 -1.52182,-4.58946c-1.01455,-0.99858 -2.34068,-1.49786 -3.97834,-1.49786c-1.70157,0 -3.11156,0.59115 -4.22996,1.77347c-1.11041,1.17432 -1.66563,2.67618 -1.66563,4.50557h-3.09159c0,-2.12497 0.4234,-3.99829 1.27019,-5.61999c0.85478,-1.62168 2.0331,-2.88788 3.53497,-3.79858c1.50985,-0.9187 3.23139,-1.37804 5.16464,-1.37804c1.86136,0 3.511,0.41142 4.94895,1.23424c1.44594,0.81484 2.56834,2.01713 3.36721,3.60687c0.79886,1.58174 1.19829,3.503 1.19829,5.76378v14.03201c0,0.71898 -0.22767,1.31812 -0.68302,1.79744c-0.45535,0.47133 -1.05849,0.707 -1.80942,0.707zM312.81528,167.6146c-0.72696,0 -1.3261,-0.23566 -1.79744,-0.70699c-0.47134,-0.47133 -0.70699,-1.06648 -0.70699,-1.78545v-22.3841c0.03195,-2.58831 0.6351,-4.913 1.80942,-6.97405c1.18231,-2.06106 2.78802,-3.68675 4.81714,-4.87705c2.02911,-1.19829 4.31785,-1.79744 6.86622,-1.79744c2.58831,0 4.89702,0.59915 6.92613,1.79744c2.02911,1.1903 3.63881,2.81599 4.82912,4.87705c1.19829,2.06106 1.79744,4.38575 1.79744,6.97406c0,2.58032 -0.55121,4.89303 -1.65364,6.93811c-1.09444,2.04509 -2.59231,3.66678 -4.49359,4.86507c-1.8933,1.1903 -4.03425,1.78546 -6.42284,1.78546c-1.93324,0 -3.71071,-0.39943 -5.3324,-1.19829c-1.6137,-0.79887 -2.99573,-1.88531 -4.14609,-3.25936v13.25312c0,0.71898 -0.22767,1.31412 -0.68302,1.78546c-0.45535,0.47132 -1.05849,0.707 -1.80942,0.707zM323.80361,151.91697c1.66962,0 3.1595,-0.39943 4.46964,-1.19829c1.31013,-0.80685 2.34865,-1.90528 3.11556,-3.2953c0.76691,-1.39002 1.15036,-2.95179 1.15036,-4.68532c0,-1.76548 -0.38346,-3.34323 -1.15036,-4.73326c-0.76691,-1.398 -1.80543,-2.49643 -3.11556,-3.2953c-1.31013,-0.79886 -2.8,-1.19829 -4.46963,-1.19829c-1.63767,0 -3.11955,0.39943 -4.44567,1.19829c-1.3261,0.79887 -2.36464,1.8973 -3.11556,3.2953c-0.75092,1.39002 -1.1264,2.96777 -1.1264,4.73326c0,1.73353 0.37547,3.29531 1.1264,4.68533c0.75092,1.39002 1.78946,2.48845 3.11556,3.2953c1.3261,0.79886 2.808,1.19829 4.44567,1.19829zM351.19041,156.13496c-1.43795,0 -2.71614,-0.39144 -3.83454,-1.17432c-1.11042,-0.79088 -1.97718,-1.86535 -2.60029,-3.22341c-0.61512,-1.35806 -0.92268,-2.91984 -0.92268,-4.68532v-26.79381c0,-0.71898 0.22768,-1.30614 0.68303,-1.76149c0.45535,-0.46334 1.04651,-0.69501 1.77348,-0.69501c0.71898,0 1.30614,0.23167 1.76149,0.69501c0.45535,0.45535 0.68304,1.04252 0.68304,1.76149v26.79381c0,1.21427 0.22768,2.21285 0.68303,2.99573c0.46334,0.78288 1.05449,1.17433 1.77347,1.17433h1.23424c0.64708,0 1.17433,0.23167 1.58175,0.69501c0.41541,0.45535 0.62311,1.04252 0.62311,1.76149c0,0.71898 -0.31156,1.31014 -0.93467,1.77347c-0.62311,0.45535 -1.42597,0.68304 -2.40857,0.68304zM370.67366,156.32668c-2.71613,0 -5.12869,-0.57918 -7.23768,-1.73752c-2.10899,-1.15835 -3.76264,-2.76007 -4.96093,-4.80515c-1.1903,-2.04509 -1.78545,-4.39373 -1.78545,-7.04596c0,-2.68418 0.5632,-5.0488 1.68959,-7.09388c1.13439,-2.04509 2.69616,-3.64681 4.68532,-4.80515c1.99716,-1.16634 4.28989,-1.7495 6.8782,-1.7495c2.54837,0 4.73724,0.56719 6.56664,1.70157c1.83738,1.1264 3.23939,2.68018 4.20602,4.66136c0.96663,1.97319 1.44993,4.25394 1.44993,6.84224c0,0.62311 -0.2157,1.13838 -0.64708,1.5458c-0.4234,0.40742 -0.96263,0.61114 -1.61769,0.61114h-19.77182v-3.9304h19.62803l-2.01313,1.37804c-0.03195,-1.63767 -0.35949,-3.09958 -0.9826,-4.38575c-0.62311,-1.29415 -1.50585,-2.3167 -2.64822,-3.06762c-1.14237,-0.75892 -2.53239,-1.13837 -4.17006,-1.13837c-1.86933,0 -3.46705,0.41142 -4.79317,1.23425c-1.31812,0.81484 -2.32069,1.93724 -3.00771,3.3672c-0.68702,1.42198 -1.03053,3.03168 -1.03053,4.82912c0,1.79744 0.40742,3.39916 1.22226,4.80516c0.81484,1.40599 1.94124,2.5204 3.37919,3.34323c1.44594,0.81484 3.09959,1.22226 4.96093,1.22226c1.01455,0 2.05307,-0.18773 3.11556,-0.5632c1.07047,-0.37546 1.92925,-0.81084 2.57633,-1.30613c0.49529,-0.35949 1.02654,-0.54721 1.59373,-0.56319c0.57518,-0.01597 1.07446,0.15578 1.49786,0.51527c0.55921,0.49529 0.85479,1.03852 0.88674,1.62967c0.03195,0.58317 -0.22767,1.09045 -0.77889,1.52184c-1.1184,0.87874 -2.50443,1.59773 -4.15807,2.15693c-1.64565,0.55122 -3.2234,0.82683 -4.73325,0.82683zM398.31363,156.13496c-1.63767,0 -3.11156,-0.41541 -4.42169,-1.24622c-1.31013,-0.8388 -2.34067,-1.97718 -3.09159,-3.41513c-0.75093,-1.43795 -1.12639,-3.05964 -1.12639,-4.86507v-23.40265c0,-0.72696 0.22768,-1.31812 0.68303,-1.77347c0.46334,-0.45535 1.05449,-0.68302 1.77347,-0.68302c0.71898,0 1.30615,0.22768 1.7615,0.68303c0.45535,0.45535 0.68303,1.04651 0.68303,1.77347v23.40265c0,1.31013 0.35949,2.40857 1.07846,3.29531c0.72697,0.87874 1.6137,1.31812 2.66021,1.31812h1.66563c0.59116,0 1.09044,0.23167 1.49786,0.69501c0.40742,0.45535 0.61113,1.04252 0.61113,1.76149c0,0.71898 -0.27161,1.31014 -0.81484,1.77347c-0.53524,0.45535 -1.23024,0.68304 -2.08502,0.68304zM387.40917,134.49381c-0.68702,0 -1.24223,-0.19573 -1.66562,-0.58716c-0.4234,-0.39943 -0.63509,-0.89073 -0.63509,-1.47389c0,-0.65507 0.2117,-1.17833 0.6351,-1.56976c0.4234,-0.39943 0.9786,-0.59914 1.66563,-0.59914h11.34784c0.68702,0 1.24223,0.19971 1.66563,0.59914c0.4234,0.39145 0.6351,0.9147 0.6351,1.56977c0,0.58317 -0.21169,1.07447 -0.63509,1.4739c-0.4234,0.39145 -0.97861,0.58717 -1.66563,0.58717zM420.83544,156.32668c-2.71613,0 -5.12869,-0.57918 -7.23768,-1.73752c-2.10899,-1.15835 -3.76264,-2.76007 -4.96093,-4.80515c-1.1903,-2.04509 -1.78546,-4.39373 -1.78546,-7.04596c0,-2.68418 0.56321,-5.0488 1.6896,-7.09388c1.13439,-2.04509 2.69616,-3.64681 4.68532,-4.80515c1.99716,-1.16634 4.28989,-1.7495 6.8782,-1.7495c2.54837,0 4.73725,0.56719 6.56664,1.70157c1.83738,1.1264 3.23938,2.68018 4.20601,4.66136c0.96663,1.97319 1.44994,4.25394 1.44994,6.84224c0,0.62311 -0.2157,1.13838 -0.64708,1.5458c-0.4234,0.40742 -0.96263,0.61114 -1.61769,0.61114h-19.77183v-3.9304h19.62803l-2.01313,1.37804c-0.03195,-1.63767 -0.35949,-3.09958 -0.9826,-4.38575c-0.62311,-1.29415 -1.50585,-2.3167 -2.64823,-3.06762c-1.14237,-0.75892 -2.53238,-1.13837 -4.17005,-1.13837c-1.86933,0 -3.46706,0.41142 -4.79317,1.23425c-1.31812,0.81484 -2.32069,1.93724 -3.00771,3.3672c-0.68702,1.42198 -1.03053,3.03168 -1.03053,4.82912c0,1.79744 0.40742,3.39916 1.22226,4.80516c0.81484,1.40599 1.94124,2.5204 3.37919,3.34323c1.44594,0.81484 3.09958,1.22226 4.96093,1.22226c1.01455,0 2.05307,-0.18773 3.11556,-0.5632c1.07047,-0.37546 1.92925,-0.81084 2.57633,-1.30613c0.49529,-0.35949 1.02653,-0.54721 1.59373,-0.56319c0.57518,-0.01597 1.07447,0.15578 1.49787,0.51527c0.55921,0.49529 0.85478,1.03852 0.88674,1.62967c0.03195,0.58317 -0.22767,1.09045 -0.77889,1.52184c-1.1184,0.87874 -2.50443,1.59773 -4.15807,2.15693c-1.64565,0.55122 -3.2234,0.82683 -4.73325,0.82683zM440.12331,147.05191c-0.71898,0 -1.31412,-0.25164 -1.78545,-0.75493c-0.47132,-0.51128 -0.70699,-1.09444 -0.70699,-1.7495v-24.19352c0,-0.71898 0.23566,-1.32212 0.707,-1.80942c0.47132,-0.4953 1.06648,-0.74294 1.78546,-0.74294c0.72697,0 1.32612,0.24764 1.79744,0.74294c0.47132,0.4873 0.707,1.09046 0.707,1.80943v24.19352c0,0.68702 -0.25563,1.27818 -0.76691,1.77347c-0.50329,0.48731 -1.08246,0.73096 -1.73752,0.73096zM440.12331,156.13496c-0.9107,0 -1.70157,-0.32754 -2.37261,-0.9826c-0.67104,-0.65506 -1.00657,-1.45792 -1.00657,-2.40857c0,-0.94266 0.33553,-1.7495 1.00657,-2.42055c0.67104,-0.67104 1.46191,-1.00656 2.37261,-1.00656c0.95065,0 1.7535,0.33552 2.40857,1.00656c0.65507,0.67105 0.9826,1.47789 0.9826,2.42055c0,0.95065 -0.33552,1.7535 -1.00657,2.40857c-0.67104,0.65506 -1.46591,0.9826 -2.3846,0.9826z" fill="#ffffff" fill-rule="nonzero" stroke-width="1" stroke-linecap="square"/><path d="M82.34343,244.57116c-0.77084,0 -1.45834,-0.23437 -2.0625,-0.70312c-0.59375,-0.46875 -1.01562,-1.10937 -1.26562,-1.92187l-12.87501,-42.74999c-0.42709,-1.40625 -0.39584,-2.52604 0.09375,-3.35937c0.48959,-0.83333 1.29166,-1.25 2.40625,-1.25c0.72916,0 1.39063,0.20313 1.98438,0.60938c0.59375,0.40625 1.02084,1.03646 1.28125,1.89063l11.20314,39.03124h-1.40625l10.35938,-38.65624c0.17709,-0.63541 0.5625,-1.16666 1.15625,-1.59375c0.59375,-0.42708 1.27604,-0.64062 2.04688,-0.64062c0.67709,0 1.32291,0.18229 1.9375,0.54688c0.625,0.36459 1.02604,0.90625 1.20313,1.625l10.42188,38.71874h-1.28125l11.26563,-39.35936c0.42709,-1.44791 1.51563,-2.17187 3.26562,-2.17187c1.19792,0 1.96354,0.45834 2.29688,1.375c0.34375,0.91667 0.34896,1.99479 0.01563,3.23438l-12.875,42.68749c-0.29166,0.8125 -0.72916,1.46354 -1.3125,1.95313c-0.57291,0.48959 -1.24479,0.73437 -2.01562,0.73437c-0.8125,0 -1.50521,-0.25521 -2.07812,-0.76562c-0.57291,-0.51041 -0.98959,-1.13021 -1.25,-1.85937l-10.29687,-39.81249h1.53125l-10.42187,39.74999c-0.30209,0.8125 -0.74479,1.46354 -1.32812,1.95313c-0.57291,0.48959 -1.23959,0.73437 -2,0.73437zM140.5072,244.82116c-3.54166,0 -6.6875,-0.75521 -9.4375,-2.26562c-2.75,-1.51041 -4.90625,-3.59896 -6.46875,-6.26562c-1.55208,-2.66666 -2.32812,-5.72916 -2.32812,-9.1875c0,-3.5 0.73438,-6.58333 2.20312,-9.24999c1.47917,-2.66666 3.51563,-4.75521 6.10938,-6.26562c2.60417,-1.52083 5.59375,-2.28125 8.96875,-2.28125c3.32291,0 6.17709,0.73959 8.5625,2.21875c2.39584,1.46875 4.22396,3.49479 5.48438,6.07813c1.26042,2.57291 1.89063,5.54686 1.89063,8.92186c0,0.8125 -0.28125,1.48438 -0.84375,2.01563c-0.55209,0.53125 -1.25521,0.79688 -2.10937,0.79688h-25.78125v-5.125h25.59375l-2.625,1.79688c-0.04166,-2.13541 -0.46875,-4.04166 -1.28125,-5.71875c-0.8125,-1.68749 -1.96354,-3.02082 -3.45312,-3.99999c-1.48959,-0.98958 -3.30209,-1.48437 -5.4375,-1.48437c-2.4375,0 -4.52083,0.53646 -6.25,1.60938c-1.71875,1.0625 -3.02604,2.52603 -3.92187,4.39061c-0.89584,1.85416 -1.34375,3.95312 -1.34375,6.29687c0,2.34375 0.53125,4.43229 1.59375,6.26563c1.0625,1.83334 2.53125,3.28646 4.40625,4.35938c1.88541,1.0625 4.04166,1.59375 6.46875,1.59375c1.32291,0 2.67709,-0.24479 4.0625,-0.73437c1.39584,-0.48959 2.51563,-1.05729 3.35938,-1.70312c0.64584,-0.46875 1.33854,-0.71354 2.07813,-0.73437c0.75,-0.02084 1.40104,0.20313 1.95313,0.67188c0.72917,0.64584 1.11459,1.35416 1.15625,2.125c0.04167,0.76041 -0.29687,1.42188 -1.01562,1.98438c-1.45833,1.14584 -3.26562,2.08334 -5.42187,2.8125c-2.14584,0.71875 -4.20312,1.07812 -6.17187,1.07812zM172.12613,244.57116c-1.875,0 -3.54167,-0.51041 -5,-1.53125c-1.44792,-1.03125 -2.57812,-2.43229 -3.39062,-4.20312c-0.80209,-1.77084 -1.20312,-3.80729 -1.20312,-6.10937v-34.93749c0,-0.9375 0.29688,-1.70312 0.89063,-2.29687c0.59375,-0.60416 1.36458,-0.90625 2.3125,-0.90625c0.9375,0 1.70313,0.30209 2.29688,0.90625c0.59375,0.59375 0.89063,1.35938 0.89063,2.29688v34.93749c0,1.58334 0.29688,2.88541 0.89063,3.90625c0.60416,1.02084 1.375,1.53125 2.3125,1.53125h1.60938c0.84375,0 1.53125,0.30209 2.0625,0.90625c0.54166,0.59375 0.8125,1.35938 0.8125,2.29688c0,0.9375 -0.40625,1.70834 -1.21875,2.3125c-0.8125,0.59375 -1.85937,0.89062 -3.14062,0.89062zM191.32609,244.57116c-1.875,0 -3.54166,-0.51041 -5,-1.53125c-1.44791,-1.03125 -2.57812,-2.43229 -3.39062,-4.20312c-0.80209,-1.77084 -1.20312,-3.80729 -1.20312,-6.10937v-34.93749c0,-0.9375 0.29688,-1.70312 0.89063,-2.29687c0.59375,-0.60416 1.36459,-0.90625 2.3125,-0.90625c0.9375,0 1.70313,0.30209 2.29688,0.90625c0.59375,0.59375 0.89063,1.35938 0.89063,2.29688v34.93749c0,1.58334 0.29688,2.88541 0.89063,3.90625c0.60416,1.02084 1.375,1.53125 2.3125,1.53125h1.60938c0.84375,0 1.53125,0.30209 2.0625,0.90625c0.54166,0.59375 0.8125,1.35938 0.8125,2.29688c0,0.9375 -0.40625,1.70834 -1.21875,2.3125c-0.8125,0.59375 -1.85937,0.89062 -3.14062,0.89062zM224.93426,244.57116c-0.94791,0 -1.73959,-0.31771 -2.375,-0.95312c-0.63541,-0.64584 -0.95312,-1.4375 -0.95312,-2.375v-43.32811c0,-0.97916 0.31771,-1.77604 0.95313,-2.39062c0.63541,-0.625 1.42709,-0.9375 2.375,-0.9375h11.57813c3.66666,0 7.00521,0.60938 10.01563,1.82813c3.01042,1.21875 5.625,2.94792 7.84375,5.1875c2.21875,2.23959 3.92188,4.875 5.10938,7.90625c1.19791,3.02084 1.79688,6.36458 1.79688,10.03124c0,3.67708 -0.59896,7.04166 -1.79687,10.09375c-1.1875,3.04166 -2.89062,5.6875 -5.10937,7.9375c-2.21875,2.23959 -4.83334,3.96875 -7.84375,5.1875c-3.01041,1.20834 -6.34896,1.8125 -10.01562,1.8125zM228.26239,238.68054h8.25c3.58334,0 6.75,-0.81771 9.5,-2.45312c2.75,-1.64584 4.91667,-3.90625 6.5,-6.78125c1.58334,-2.88541 2.375,-6.1875 2.375,-9.90625c0,-3.75 -0.79166,-7.05208 -2.375,-9.90624c-1.58334,-2.86458 -3.75,-5.10416 -6.5,-6.71875c-2.75,-1.625 -5.91666,-2.4375 -9.5,-2.4375h-8.25zM286.9368,244.82116c-3.44792,0 -6.49479,-0.75521 -9.14063,-2.26562c-2.64583,-1.51041 -4.72916,-3.59896 -6.25,-6.26562c-1.51042,-2.66666 -2.26562,-5.72916 -2.26562,-9.1875c0,-3.5 0.75521,-6.58333 2.26563,-9.24999c1.52084,-2.66666 3.60416,-4.75521 6.25,-6.26562c2.64584,-1.52083 5.69271,-2.28125 9.14063,-2.28125c3.41666,0 6.44791,0.76042 9.09375,2.28125c2.64583,1.51042 4.72396,3.59896 6.23438,6.26563c1.52083,2.66666 2.28125,5.74999 2.28125,9.24999c0,3.45834 -0.75,6.52084 -2.25,9.1875c-1.48959,2.66666 -3.55729,4.75521 -6.20312,6.26563c-2.64584,1.51041 -5.69791,2.26562 -9.15625,2.26562zM286.9368,239.07116c2.21875,0 4.18229,-0.51041 5.89063,-1.53125c1.70833,-1.03125 3.04166,-2.44271 4,-4.23437c0.95833,-1.79166 1.4375,-3.85937 1.4375,-6.20312c0,-2.34375 -0.47917,-4.42187 -1.4375,-6.23437c-0.95834,-1.82291 -2.29167,-3.24478 -4,-4.26561c-1.70834,-1.02083 -3.67187,-1.53125 -5.89062,-1.53125c-2.21875,0 -4.18229,0.51042 -5.89062,1.53125c-1.69792,1.02084 -3.04167,2.44271 -4.03125,4.26561c-0.97917,1.8125 -1.46875,3.89062 -1.46875,6.23437c0,2.34375 0.48958,4.41146 1.46875,6.20313c0.98958,1.79166 2.33333,3.20313 4.03125,4.23438c1.70833,1.02084 3.67188,1.53125 5.89063,1.53125zM343.83984,244.63366c-0.9375,0 -1.71875,-0.30729 -2.34375,-0.92187c-0.61458,-0.625 -0.92187,-1.40625 -0.92187,-2.34375v-15.73437c0,-2.4375 -0.44791,-4.42187 -1.34375,-5.95312c-0.89583,-1.54166 -2.10416,-2.68228 -3.625,-3.42187c-1.51041,-0.75 -3.24479,-1.125 -5.20312,-1.125c-1.79166,0 -3.41666,0.36459 -4.875,1.09375c-1.44791,0.71875 -2.59896,1.6875 -3.45312,2.90624c-0.85416,1.21875 -1.28125,2.61458 -1.28125,4.1875h-4.03125c0,-2.6875 0.65104,-5.08333 1.95313,-7.18749c1.30209,-2.11458 3.08334,-3.79166 5.34375,-5.03125c2.26041,-1.23958 4.80209,-1.85937 7.625,-1.85937c2.9375,0 5.56771,0.63021 7.89063,1.89063c2.33334,1.26042 4.17188,3.10938 5.51563,5.54688c1.34375,2.42708 2.01563,5.41145 2.01563,8.95311v15.73438c0,0.9375 -0.3125,1.71875 -0.9375,2.34375c-0.61458,0.61459 -1.39062,0.92187 -2.32812,0.92187zM317.54297,244.63366c-0.94791,0 -1.72916,-0.30729 -2.34375,-0.92187c-0.61458,-0.625 -0.92187,-1.40625 -0.92187,-2.34375v-28.54686c0,-0.97916 0.30729,-1.76562 0.92188,-2.35937c0.61459,-0.60416 1.39584,-0.90625 2.34375,-0.90625c0.97916,0 1.76563,0.30209 2.35938,0.90625c0.59375,0.59375 0.89063,1.38021 0.89063,2.35938v28.54686c0,0.9375 -0.29687,1.71875 -0.89062,2.34375c-0.59375,0.61459 -1.38021,0.92187 -2.35937,0.92187zM374.36276,244.82116c-3.54167,0 -6.6875,-0.75521 -9.4375,-2.26562c-2.75,-1.51041 -4.90625,-3.59896 -6.46875,-6.26562c-1.55209,-2.66666 -2.32812,-5.72916 -2.32812,-9.1875c0,-3.5 0.73438,-6.58333 2.20313,-9.24999c1.47916,-2.66666 3.51563,-4.75521 6.10938,-6.26562c2.60416,-1.52083 5.59375,-2.28125 8.96875,-2.28125c3.32291,0 6.17708,0.73959 8.5625,2.21875c2.39583,1.46875 4.22396,3.49479 5.48438,6.07813c1.26041,2.57291 1.89063,5.54686 1.89063,8.92186c0,0.8125 -0.28125,1.48438 -0.84375,2.01563c-0.55209,0.53125 -1.25521,0.79688 -2.10937,0.79688h-25.78125v-5.125h25.59375l-2.625,1.79688c-0.04167,-2.13541 -0.46875,-4.04166 -1.28125,-5.71875c-0.8125,-1.68749 -1.96354,-3.02082 -3.45312,-3.99999c-1.48959,-0.98958 -3.30209,-1.48437 -5.4375,-1.48437c-2.4375,0 -4.52084,0.53646 -6.25,1.60938c-1.71875,1.0625 -3.02604,2.52603 -3.92187,4.39061c-0.89584,1.85416 -1.34375,3.95312 -1.34375,6.29687c0,2.34375 0.53125,4.43229 1.59375,6.26563c1.0625,1.83334 2.53125,3.28646 4.40625,4.35938c1.88541,1.0625 4.04166,1.59375 6.46875,1.59375c1.32291,0 2.67708,-0.24479 4.0625,-0.73437c1.39583,-0.48959 2.51563,-1.05729 3.35938,-1.70312c0.64583,-0.46875 1.33854,-0.71354 2.07813,-0.73437c0.75,-0.02084 1.40104,0.20313 1.95313,0.67188c0.72916,0.64584 1.11458,1.35416 1.15625,2.125c0.04166,0.76041 -0.29687,1.42188 -1.01562,1.98438c-1.45834,1.14584 -3.26562,2.08334 -5.42187,2.8125c-2.14584,0.71875 -4.20312,1.07812 -6.17187,1.07812zM399.51294,232.72741c-0.9375,0 -1.71354,-0.32812 -2.32812,-0.98437c-0.61459,-0.66666 -0.92187,-1.42709 -0.92187,-2.28125v-31.54686c0,-0.9375 0.30729,-1.72396 0.92188,-2.35937c0.61458,-0.64583 1.39063,-0.96875 2.32813,-0.96875c0.94791,0 1.72916,0.32292 2.34375,0.96875c0.61458,0.63542 0.92188,1.42188 0.92188,2.35938v31.54686c0,0.89584 -0.33334,1.66666 -1,2.3125c-0.65625,0.63541 -1.41146,0.95313 -2.26562,0.95313zM399.51294,244.57116c-1.1875,0 -2.21875,-0.42709 -3.09375,-1.28125c-0.875,-0.85416 -1.3125,-1.90104 -1.3125,-3.14062c0,-1.22916 0.4375,-2.28125 1.3125,-3.15625c0.875,-0.875 1.90625,-1.3125 3.09375,-1.3125c1.23958,0 2.28646,0.4375 3.14063,1.3125c0.85416,0.875 1.28125,1.92709 1.28125,3.15625c0,1.23959 -0.4375,2.28646 -1.3125,3.14063c-0.875,0.85416 -1.91146,1.28125 -3.10937,1.28125z" fill="#ffffff" fill-rule="nonzero" stroke-width="1" stroke-linecap="square"/></g></g></svg>