<svg version="1.1" xmlns="http://www.w3.org/2000/svg" xmlns:xlink="http://www.w3.org/1999/xlink" width="500" height="378.37838" viewBox="0,0,500,378.37838"><g transform="translate(10,9.18919)"><g data-paper-data="{&quot;isPaintingLayer&quot;:true}" fill-rule="nonzero" stroke="none" stroke-linejoin="miter" stroke-miterlimit="10" stroke-dasharray="" stroke-dashoffset="0" style="mix-blend-mode: normal"><path d="M-10,369.18919v-378.37838h500v378.37838z" fill="#000000" stroke-width="0" stroke-linecap="butt"/><path d="M134.26044,205.06362c-0.9375,0 -1.71354,-0.31771 -2.32812,-0.95312c-0.61458,-0.64584 -0.92187,-1.4375 -0.92187,-2.375v-43.32811c0,-0.9375 0.31771,-1.72396 0.95313,-2.35937c0.63542,-0.64584 1.40104,-0.96875 2.29688,-0.96875c0.94792,0 1.73959,0.32291 2.375,0.96875c0.63542,0.63541 0.95313,1.42188 0.95313,2.35938v39.99999h23.17189c0.9375,0 1.72396,0.32292 2.35938,0.96875c0.64583,0.63542 0.96875,1.42188 0.96875,2.35938c0,0.9375 -0.32292,1.72917 -0.96875,2.375c-0.63542,0.63541 -1.42187,0.95313 -2.35937,0.95313zM187.89526,205.31362c-3.54166,0 -6.6875,-0.75521 -9.4375,-2.26563c-2.75,-1.51041 -4.90625,-3.59896 -6.46875,-6.26562c-1.55209,-2.66666 -2.32812,-5.72915 -2.32812,-9.18749c0,-3.5 0.73438,-6.58334 2.20313,-9.25c1.47916,-2.66667 3.51563,-4.75521 6.10938,-6.26562c2.60416,-1.52084 5.59375,-2.28125 8.96875,-2.28125c3.32291,0 6.17708,0.73958 8.5625,2.21875c2.39583,1.46875 4.22396,3.49479 5.48438,6.07813c1.26041,2.57291 1.89063,5.54688 1.89063,8.92188c0,0.8125 -0.28125,1.48438 -0.84375,2.01563c-0.55209,0.53125 -1.25521,0.79688 -2.10937,0.79688h-25.78125v-5.125h25.59375l-2.625,1.79688c-0.04167,-2.13542 -0.46875,-4.04167 -1.28125,-5.71875c-0.8125,-1.6875 -1.96354,-3.02084 -3.45312,-4c-1.48959,-0.98959 -3.30209,-1.48437 -5.4375,-1.48437c-2.4375,0 -4.52084,0.53646 -6.25,1.60938c-1.71875,1.0625 -3.02604,2.52604 -3.92187,4.39063c-0.89584,1.85416 -1.34375,3.95313 -1.34375,6.29688c0,2.34375 0.53125,4.43229 1.59375,6.26563c1.0625,1.83333 2.53125,3.28645 4.40625,4.35936c1.88541,1.0625 4.04166,1.59375 6.46875,1.59375c1.32291,0 2.67709,-0.24479 4.0625,-0.73437c1.39584,-0.48958 2.51563,-1.05729 3.35938,-1.70312c0.64583,-0.46875 1.33854,-0.71354 2.07813,-0.73437c0.75,-0.02083 1.40104,0.20313 1.95313,0.67188c0.72916,0.64584 1.11458,1.35417 1.15625,2.125c0.04166,0.76042 -0.29687,1.42188 -1.01562,1.98438c-1.45834,1.14584 -3.26562,2.08334 -5.42187,2.8125c-2.14584,0.71875 -4.20312,1.07813 -6.17187,1.07813zM221.74982,205.00112c-1.32292,0 -2.34375,-0.70312 -3.0625,-2.10938l-13.57812,-28.60936c-0.33334,-0.72917 -0.36459,-1.44271 -0.09375,-2.14062c0.28125,-0.70834 0.82813,-1.25521 1.64062,-1.64062c0.71875,-0.38542 1.45313,-0.44792 2.20313,-0.1875c0.75,0.25 1.31771,0.73958 1.70313,1.46875l12.67188,27.32811h-3.07812l12.54687,-27.32811c0.38542,-0.72917 0.96875,-1.21875 1.75,-1.46875c0.79167,-0.26042 1.59375,-0.19792 2.40625,0.1875c0.77084,0.34375 1.28125,0.88021 1.53125,1.60938c0.26042,0.71875 0.21875,1.44271 -0.125,2.17188l-13.5625,28.60936c-0.64584,1.40625 -1.63021,2.10938 -2.95312,2.10938zM260.15114,205.31362c-3.54167,0 -6.6875,-0.75521 -9.4375,-2.26563c-2.75,-1.51041 -4.90625,-3.59896 -6.46875,-6.26562c-1.55209,-2.66666 -2.32812,-5.72915 -2.32812,-9.18749c0,-3.5 0.73438,-6.58334 2.20313,-9.25c1.47916,-2.66667 3.51563,-4.75521 6.10937,-6.26562c2.60417,-1.52084 5.59375,-2.28125 8.96875,-2.28125c3.32291,0 6.17708,0.73958 8.5625,2.21875c2.39583,1.46875 4.22396,3.49479 5.48438,6.07813c1.26041,2.57291 1.89063,5.54688 1.89063,8.92188c0,0.8125 -0.28125,1.48438 -0.84375,2.01563c-0.55209,0.53125 -1.25521,0.79688 -2.10937,0.79688h-25.78125v-5.125h25.59375l-2.625,1.79688c-0.04167,-2.13542 -0.46875,-4.04167 -1.28125,-5.71875c-0.8125,-1.6875 -1.96354,-3.02084 -3.45312,-4c-1.48959,-0.98959 -3.30209,-1.48437 -5.4375,-1.48437c-2.4375,0 -4.52084,0.53646 -6.25,1.60938c-1.71875,1.0625 -3.02604,2.52604 -3.92188,4.39063c-0.89583,1.85416 -1.34375,3.95313 -1.34375,6.29688c0,2.34375 0.53125,4.43229 1.59375,6.26563c1.0625,1.83333 2.53125,3.28645 4.40625,4.35936c1.88541,1.0625 4.04166,1.59375 6.46875,1.59375c1.32291,0 2.67708,-0.24479 4.0625,-0.73437c1.39583,-0.48958 2.51563,-1.05729 3.35938,-1.70312c0.64583,-0.46875 1.33854,-0.71354 2.07813,-0.73437c0.75,-0.02083 1.40104,0.20313 1.95313,0.67188c0.72916,0.64584 1.11458,1.35417 1.15625,2.125c0.04166,0.76042 -0.29687,1.42188 -1.01562,1.98438c-1.45834,1.14584 -3.26562,2.08334 -5.42187,2.8125c-2.14584,0.71875 -4.20313,1.07813 -6.17188,1.07813zM291.77006,205.06362c-1.875,0 -3.54167,-0.51042 -5,-1.53125c-1.44792,-1.03125 -2.57812,-2.43229 -3.39062,-4.20313c-0.80209,-1.77083 -1.20312,-3.80728 -1.20312,-6.10936v-34.9375c0,-0.9375 0.29688,-1.70312 0.89063,-2.29687c0.59375,-0.60417 1.36458,-0.90625 2.3125,-0.90625c0.9375,0 1.70313,0.30208 2.29688,0.90625c0.59375,0.59375 0.89063,1.35938 0.89063,2.29688v34.9375c0,1.58333 0.29688,2.8854 0.89063,3.90624c0.60416,1.02084 1.375,1.53125 2.3125,1.53125h1.60938c0.84375,0 1.53125,0.30209 2.0625,0.90625c0.54166,0.59375 0.8125,1.35938 0.8125,2.29688c0,0.9375 -0.40625,1.70834 -1.21875,2.3125c-0.8125,0.59375 -1.85937,0.89063 -3.14062,0.89063zM334.26887,205.00112c-2.8125,0 -5.33854,-0.67187 -7.57812,-2.01563c-2.23958,-1.34375 -4,-3.17708 -5.28125,-5.5c-1.28125,-2.33333 -1.92187,-4.9479 -1.92187,-7.84374c0,-2.8125 0.64063,-5.33854 1.92188,-7.57812c1.28125,-2.25 3.04167,-4.01042 5.28125,-5.28125c2.23959,-1.28125 4.76563,-1.92187 7.57813,-1.92187c2.8125,0 5.32813,0.64063 7.54688,1.92188c2.21875,1.27083 3.97917,3.03125 5.28125,5.28125c1.30209,2.23958 1.93229,4.76563 1.89063,7.57813c0,2.89583 -0.65104,5.51041 -1.95312,7.84374c-1.30208,2.32292 -3.0625,4.15625 -5.28125,5.5c-2.21875,1.34375 -4.71354,2.01563 -7.48437,2.01563zM334.26887,199.1105c1.57292,0 2.98959,-0.42708 4.25,-1.28125c1.26042,-0.85416 2.25,-1.99479 2.96875,-3.42187c0.72917,-1.42708 1.09375,-3.01561 1.09375,-4.76561c0.05209,-1.70834 -0.28646,-3.23437 -1.01562,-4.57812c-0.72916,-1.34375 -1.72396,-2.41146 -2.98437,-3.20312c-1.25,-0.79167 -2.6875,-1.1875 -4.3125,-1.1875c-1.58333,0 -3.01562,0.39583 -4.29687,1.1875c-1.27083,0.79166 -2.27083,1.85938 -3,3.20313c-0.72916,1.34375 -1.09375,2.86979 -1.09375,4.57813c0,1.75 0.35417,3.33853 1.0625,4.76561c0.70834,1.42709 1.69792,2.56771 2.96875,3.42188c1.28125,0.85417 2.73438,1.28125 4.35938,1.28125zM334.26887,179.53238c-2.4375,0 -4.60416,-0.53125 -6.5,-1.59375c-1.89583,-1.07292 -3.40104,-2.51562 -4.51562,-4.32812c-1.10416,-1.8125 -1.65625,-3.86979 -1.65625,-6.17187c0,-2.4375 0.55209,-4.60417 1.65625,-6.5c1.11459,-1.89584 2.61979,-3.41146 4.51563,-4.54687c1.89584,-1.13542 4.0625,-1.70312 6.5,-1.70312c2.42709,-0.04167 4.58854,0.49479 6.48438,1.60938c1.90625,1.10416 3.41146,2.61979 4.51563,4.54688c1.11459,1.91666 1.65104,4.11458 1.60938,6.59375c0,2.30208 -0.55729,4.35938 -1.67187,6.17188c-1.10416,1.8125 -2.60937,3.25521 -4.51562,4.32813c-1.89583,1.0625 -4.03646,1.59375 -6.42187,1.59375zM334.26887,174.21988c1.19792,0 2.26563,-0.31771 3.20313,-0.95312c0.9375,-0.64584 1.68229,-1.48959 2.23438,-2.53125c0.55209,-1.05209 0.82813,-2.21875 0.82813,-3.5c0.04167,-1.28125 -0.21354,-2.41146 -0.76562,-3.39062c-0.55208,-0.97917 -1.29687,-1.75521 -2.23437,-2.32812c-0.9375,-0.58334 -2.02604,-0.875 -3.26562,-0.875c-1.79166,0 -3.28646,0.61979 -4.48437,1.85938c-1.1875,1.23958 -1.80729,2.81771 -1.85937,4.73438c-0.04166,1.92708 0.54688,3.57291 1.76563,4.9375c1.21875,1.36458 2.74479,2.04688 4.57813,2.04688z" fill="#ffffff" stroke-width="1" stroke-linecap="square"/></g></g></svg>