<svg version="1.1" xmlns="http://www.w3.org/2000/svg" xmlns:xlink="http://www.w3.org/1999/xlink" width="510.51051" height="403.9039" viewBox="0,0,510.51051,403.9039"><g transform="translate(14.5045,13.69369)"><g data-paper-data="{&quot;isPaintingLayer&quot;:true}" fill-rule="nonzero" stroke="none" stroke-linejoin="miter" stroke-miterlimit="10" stroke-dasharray="" stroke-dashoffset="0" style="mix-blend-mode: normal"><path d="M-14.5045,390.21021v-403.9039h510.51051v403.9039z" fill="#000000" stroke-width="0" stroke-linecap="butt"/><path d="M41.84866,162.43751c-0.75129,0 -1.37873,-0.25181 -1.88233,-0.75541c-0.50361,-0.51187 -0.75541,-1.13932 -0.75541,-1.88234v-34.34024c0,-0.77605 0.2518,-1.40762 0.75541,-1.89472c0.50361,-0.49535 1.13105,-0.74302 1.88233,-0.74302h9.1764c2.90606,0 5.55206,0.48296 7.93801,1.4489c2.38594,0.96594 4.45816,2.33641 6.21666,4.11142c1.7585,1.77501 3.10833,3.86374 4.0495,6.2662c0.94943,2.3942 1.42413,5.04433 1.42413,7.95039c0,2.91432 -0.47471,5.58097 -1.42413,7.99993c-0.94117,2.41071 -2.291,4.50769 -4.0495,6.29095c-1.7585,1.77501 -3.83072,3.14549 -6.21666,4.11142c-2.38594,0.95768 -5.03195,1.43652 -7.93801,1.43652zM44.48642,157.76882h6.53865c2.84002,0 5.3498,-0.64809 7.52934,-1.94425c2.17954,-1.30443 3.89676,-3.09595 5.15165,-5.37456c1.25489,-2.28688 1.88234,-4.90398 1.88234,-7.85132c0,-2.97211 -0.62745,-5.58922 -1.88234,-7.85133c-1.25489,-2.27036 -2.97211,-4.04536 -5.15165,-5.32502c-2.17954,-1.28791 -4.68933,-1.93188 -7.52934,-1.93188h-6.53865zM90.98956,162.63565c-2.73269,0 -5.14752,-0.59855 -7.24451,-1.79565c-2.09699,-1.1971 -3.74816,-2.8524 -4.95352,-4.9659c-1.1971,-2.1135 -1.79565,-4.54072 -1.79565,-7.28166c0,-2.77397 0.59855,-5.2177 1.79565,-7.3312c1.20535,-2.1135 2.85653,-3.7688 4.95352,-4.9659c2.09699,-1.20535 4.51182,-1.80803 7.24451,-1.80803c2.70792,0 5.11038,0.60268 7.20737,1.80803c2.09699,1.1971 3.74403,2.8524 4.94113,4.9659c1.20535,2.1135 1.80803,4.55723 1.80803,7.3312c0,2.74095 -0.59442,5.16817 -1.78326,7.28166c-1.18059,2.1135 -2.81937,3.7688 -4.91636,4.9659c-2.09699,1.1971 -4.51596,1.79565 -7.2569,1.79565zM90.98956,158.07842c1.7585,0 3.31473,-0.40454 4.66869,-1.21361c1.35396,-0.81733 2.41071,-1.93599 3.17025,-3.356c0.75954,-1.42001 1.13931,-3.0588 1.13931,-4.91637c0,-1.85757 -0.37977,-3.50462 -1.13931,-4.94114c-0.75954,-1.44477 -1.81629,-2.5717 -3.17025,-3.38077c-1.35396,-0.80908 -2.91019,-1.21361 -4.66869,-1.21361c-1.7585,0 -3.31472,0.40453 -4.66868,1.21361c-1.3457,0.80908 -2.41071,1.936 -3.19502,3.38078c-0.77605,1.43652 -1.16407,3.08356 -1.16407,4.94114c0,1.85757 0.38802,3.49636 1.16407,4.91637c0.78431,1.42001 1.84932,2.53867 3.19502,3.356c1.35396,0.80908 2.91018,1.21361 4.66868,1.21361zM136.08878,162.48705c-0.74302,0 -1.36222,-0.24355 -1.85757,-0.73065c-0.4871,-0.49535 -0.73065,-1.11454 -0.73065,-1.85757v-12.47047c0,-1.93187 -0.355,-3.50461 -1.065,-4.71822c-0.71,-1.22187 -1.66769,-2.12589 -2.87304,-2.71205c-1.1971,-0.59442 -2.5717,-0.89164 -4.1238,-0.89164c-1.42001,0 -2.70793,0.28896 -3.86375,0.86687c-1.14757,0.56966 -2.05983,1.33745 -2.73681,2.30338c-0.67698,0.96594 -1.01547,2.07222 -1.01547,3.31886h-3.19502c0,-2.13001 0.516,-4.02886 1.54798,-5.69654c1.03198,-1.67594 2.44373,-3.00513 4.23525,-3.98758c1.79152,-0.98245 3.80595,-1.47367 6.04329,-1.47367c2.32815,0 4.41276,0.49947 6.25382,1.49844c1.84931,0.99896 3.30647,2.46437 4.37147,4.39624c1.06501,1.92362 1.59751,4.28892 1.59751,7.09591v12.47047c0,0.74302 -0.24768,1.36222 -0.74303,1.85757c-0.4871,0.4871 -1.10216,0.73065 -1.84518,0.73065zM115.24686,162.48705c-0.75128,0 -1.37047,-0.24355 -1.85757,-0.73065c-0.48709,-0.49535 -0.73064,-1.11454 -0.73064,-1.85757v-22.62518c0,-0.77605 0.24355,-1.39936 0.73064,-1.86995c0.48709,-0.47884 1.10628,-0.71826 1.85757,-0.71826c0.77605,0 1.39937,0.23942 1.86995,0.71826c0.47058,0.47058 0.70588,1.0939 0.70588,1.86995v22.62518c0,0.74302 -0.23529,1.36222 -0.70588,1.85757c-0.47058,0.4871 -1.0939,0.73065 -1.86995,0.73065zM144.10687,137.10028c-0.53663,0 -0.94942,-0.24354 -1.23838,-0.73064c-0.28895,-0.49535 -0.31372,-1.01135 -0.0743,-1.54798c0.60268,-1.38699 0.97006,-2.51804 1.10216,-3.39316c0.14035,-0.88338 0.15273,-1.64704 0.03715,-2.291c-0.11558,-0.64396 -0.26005,-1.25902 -0.43343,-1.84519c-0.16511,-0.59442 -0.24768,-1.26315 -0.24768,-2.00617c0,-0.88338 0.30134,-1.60989 0.90402,-2.17955c0.61094,-0.57791 1.33745,-0.86686 2.17954,-0.86686c1.0485,0 1.8617,0.44169 2.43961,1.32506c0.57791,0.87512 0.86686,1.97315 0.86686,3.29409c0,0.87512 -0.18576,1.89059 -0.55727,3.04641c-0.37151,1.14756 -0.83797,2.27036 -1.39937,3.36839c-0.5614,1.09803 -1.16408,2.0103 -1.80804,2.73682c-0.6357,0.72652 -1.226,1.08977 -1.77088,1.08977zM166.88124,162.43751c-1.69245,0 -3.21566,-0.4293 -4.56962,-1.28791c-1.35396,-0.86686 -2.41897,-2.04333 -3.19502,-3.52938c-0.77605,-1.48605 -1.16408,-3.16199 -1.16408,-5.02782v-24.18554c0,-0.75128 0.23529,-1.36221 0.70588,-1.8328c0.47884,-0.47058 1.08978,-0.70588 1.8328,-0.70588c0.74302,0 1.34983,0.23529 1.82041,0.70588c0.47058,0.47058 0.70587,1.08151 0.70587,1.8328v24.18554c0,1.35396 0.37152,2.48914 1.11454,3.40554c0.75128,0.90814 1.66768,1.36221 2.7492,1.36221h1.72135c0.61094,0 1.12693,0.23942 1.54798,0.71826c0.42105,0.47058 0.63157,1.07739 0.63157,1.82041c0,0.74302 -0.2807,1.35396 -0.8421,1.8328c-0.55315,0.47058 -1.2714,0.70588 -2.15478,0.70588zM155.61199,140.07239c-0.71,0 -1.28378,-0.20227 -1.72134,-0.6068c-0.43756,-0.41279 -0.65634,-0.92053 -0.65634,-1.52321c0,-0.67698 0.21878,-1.21774 0.65634,-1.62228c0.43756,-0.41279 1.01134,-0.61919 1.72134,-0.61919h11.72745c0.71,0 1.28379,0.2064 1.72135,0.61919c0.43756,0.40454 0.65634,0.9453 0.65634,1.62228c0,0.60268 -0.21878,1.11041 -0.65634,1.52321c-0.43756,0.40454 -1.01134,0.6068 -1.72135,0.6068zM202.08364,162.43751c-1.69245,0 -3.21566,-0.4293 -4.56962,-1.28791c-1.35396,-0.86686 -2.41897,-2.04333 -3.19502,-3.52938c-0.77605,-1.48605 -1.16407,-3.16199 -1.16407,-5.02782v-24.18554c0,-0.75128 0.23529,-1.36221 0.70588,-1.8328c0.47884,-0.47058 1.08978,-0.70588 1.8328,-0.70588c0.74302,0 1.34983,0.23529 1.82041,0.70588c0.47058,0.47058 0.70588,1.08151 0.70588,1.8328v24.18554c0,1.35396 0.37152,2.48914 1.11454,3.40554c0.75128,0.90814 1.66768,1.36221 2.7492,1.36221h1.72135c0.61094,0 1.12693,0.23942 1.54798,0.71826c0.42105,0.47058 0.63157,1.07739 0.63157,1.82041c0,0.74302 -0.2807,1.35396 -0.8421,1.8328c-0.55315,0.47058 -1.2714,0.70588 -2.15478,0.70588zM190.81439,140.07239c-0.71,0 -1.28378,-0.20227 -1.72134,-0.6068c-0.43756,-0.41279 -0.65634,-0.92053 -0.65634,-1.52321c0,-0.67698 0.21878,-1.21774 0.65634,-1.62228c0.43756,-0.41279 1.01134,-0.61919 1.72134,-0.61919h11.72745c0.71,0 1.28379,0.2064 1.72135,0.61919c0.43756,0.40454 0.65634,0.9453 0.65634,1.62228c0,0.60268 -0.21878,1.11041 -0.65634,1.52321c-0.43756,0.40454 -1.01134,0.6068 -1.72135,0.6068zM224.90067,162.63565c-2.73269,0 -5.14752,-0.59855 -7.24451,-1.79565c-2.09699,-1.1971 -3.74817,-2.8524 -4.95352,-4.9659c-1.1971,-2.1135 -1.79564,-4.54072 -1.79564,-7.28166c0,-2.77397 0.59854,-5.2177 1.79564,-7.3312c1.20535,-2.1135 2.85653,-3.7688 4.95352,-4.9659c2.09699,-1.20535 4.51182,-1.80803 7.24451,-1.80803c2.70792,0 5.11038,0.60268 7.20737,1.80803c2.09699,1.1971 3.74403,2.8524 4.94113,4.9659c1.20535,2.1135 1.80804,4.55723 1.80804,7.3312c0,2.74095 -0.59442,5.16817 -1.78326,7.28166c-1.18059,2.1135 -2.81938,3.7688 -4.91637,4.9659c-2.09699,1.1971 -4.51595,1.79565 -7.2569,1.79565zM224.90067,158.07842c1.7585,0 3.31473,-0.40454 4.66869,-1.21361c1.35396,-0.81733 2.41071,-1.93599 3.17025,-3.356c0.75954,-1.42001 1.13931,-3.0588 1.13931,-4.91637c0,-1.85757 -0.37977,-3.50462 -1.13931,-4.94114c-0.75954,-1.44477 -1.81629,-2.5717 -3.17025,-3.38077c-1.35396,-0.80908 -2.91019,-1.21361 -4.66869,-1.21361c-1.7585,0 -3.31473,0.40453 -4.66869,1.21361c-1.34571,0.80908 -2.41071,1.936 -3.19501,3.38078c-0.77605,1.43652 -1.16408,3.08356 -1.16408,4.94114c0,1.85757 0.38803,3.49636 1.16408,4.91637c0.7843,1.42001 1.84931,2.53867 3.19501,3.356c1.35396,0.80908 2.91019,1.21361 4.66869,1.21361zM258.23532,162.68519c-2.33641,0 -4.42515,-0.49535 -6.2662,-1.48605c-1.84106,-0.99896 -3.29408,-2.46024 -4.35909,-4.38386c-1.06501,-1.93187 -1.59751,-4.3013 -1.59751,-7.10829v-12.48286c0,-0.74302 0.24355,-1.35809 0.73064,-1.84519c0.4871,-0.49535 1.10216,-0.74302 1.84518,-0.74302c0.75128,0 1.37047,0.24767 1.85757,0.74302c0.4871,0.4871 0.73065,1.10216 0.73065,1.84519v12.48286c0,1.89059 0.355,3.45508 1.065,4.69345c0.71,1.23012 1.67182,2.14239 2.88542,2.73682c1.22186,0.59442 2.59647,0.89163 4.1238,0.89163c1.45303,0 2.74507,-0.28895 3.87613,-0.86686c1.13106,-0.57791 2.03507,-1.35397 2.71205,-2.32816c0.67698,-0.98245 1.01547,-2.0846 1.01547,-3.30647h3.19502c0,2.09698 -0.51599,3.9917 -1.54797,5.68416c-1.03198,1.69245 -2.43548,3.0299 -4.21049,4.01235c-1.77501,0.97419 -3.79356,1.46129 -6.05567,1.46129zM269.44265,162.43751c-0.74302,0 -1.36222,-0.24355 -1.85757,-0.73065c-0.4871,-0.49535 -0.73065,-1.11455 -0.73065,-1.85757v-22.62517c0,-0.77605 0.24355,-1.39937 0.73065,-1.86995c0.49535,-0.47884 1.11455,-0.71826 1.85757,-0.71826c0.77605,0 1.39936,0.23942 1.86995,0.71826c0.47884,0.47058 0.71826,1.0939 0.71826,1.86995v22.62517c0,0.74302 -0.23942,1.36222 -0.71826,1.85757c-0.47059,0.4871 -1.0939,0.73065 -1.86995,0.73065zM293.73303,162.63565c-2.69966,0 -5.10625,-0.61506 -7.21975,-1.84519c-2.1135,-1.23838 -3.77292,-2.91432 -4.97828,-5.02782c-1.1971,-2.1135 -1.79565,-4.50357 -1.79565,-7.17021c0,-2.74095 0.59029,-5.17642 1.77088,-7.30643c1.18885,-2.13001 2.81112,-3.79357 4.86683,-4.99067c2.06396,-1.20535 4.4334,-1.80803 7.10829,-1.80803c1.99792,0 3.82247,0.37977 5.47364,1.13931c1.65943,0.75954 3.1496,1.90297 4.47054,3.43031c0.47059,0.53663 0.63571,1.09391 0.49536,1.67182c-0.13209,0.57791 -0.49948,1.08564 -1.10216,1.5232c-0.47884,0.33849 -1.00722,0.44994 -1.58513,0.33436c-0.56966,-0.12384 -1.08977,-0.42104 -1.56036,-0.89163c-1.65943,-1.7585 -3.72339,-2.63775 -6.19189,-2.63775c-1.72548,0 -3.24868,0.39628 -4.56962,1.18885c-1.31268,0.79256 -2.34466,1.89884 -3.09595,3.31885c-0.74302,1.42001 -1.11454,3.09595 -1.11454,5.02782c0,1.82455 0.37976,3.44682 1.1393,4.86683c0.76779,1.42001 1.82455,2.54692 3.17025,3.38076c1.35396,0.82558 2.9267,1.23838 4.71822,1.23838c1.18885,0 2.22908,-0.14448 3.12072,-0.43343c0.89989,-0.28895 1.72135,-0.7389 2.46438,-1.34983c0.54489,-0.43756 1.10215,-0.68111 1.67181,-0.73065c0.57791,-0.04953 1.08564,0.11146 1.52321,0.48297c0.57791,0.47058 0.89989,1.00309 0.96594,1.59751c0.06604,0.59442 -0.13622,1.12692 -0.60681,1.59751c-2.43548,2.2621 -5.48189,3.39316 -9.13924,3.39316zM335.07869,162.48705c-0.74302,0 -1.36222,-0.24355 -1.85757,-0.73065c-0.4871,-0.49535 -0.73064,-1.11454 -0.73064,-1.85757v-12.47047c0,-1.93187 -0.355,-3.50461 -1.065,-4.71822c-0.71001,-1.22187 -1.66769,-2.12589 -2.87304,-2.71205c-1.1971,-0.59442 -2.57171,-0.89164 -4.12381,-0.89164c-1.42001,0 -2.70792,0.28896 -3.86374,0.86687c-1.14756,0.56966 -2.05984,1.33745 -2.73682,2.30338c-0.67698,0.96594 -1.01547,2.07222 -1.01547,3.31886h-3.19502c0,-2.13001 0.51599,-4.02886 1.54797,-5.69654c1.03198,-1.67594 2.44374,-3.00513 4.23526,-3.98758c1.79152,-0.98245 3.80595,-1.47367 6.04329,-1.47367c2.32815,0 4.41276,0.49947 6.25381,1.49844c1.84931,0.99896 3.30648,2.46437 4.37148,4.39624c1.065,1.92362 1.59751,4.28892 1.59751,7.09591v12.47047c0,0.74302 -0.24768,1.36222 -0.74302,1.85757c-0.4871,0.4871 -1.10216,0.73065 -1.84519,0.73065zM314.23677,162.48705c-0.75128,0 -1.37047,-0.24355 -1.85757,-0.73065c-0.4871,-0.49535 -0.73065,-1.11454 -0.73065,-1.85757v-22.62518c0,-0.77605 0.24355,-1.39936 0.73065,-1.86995c0.4871,-0.47884 1.10628,-0.71826 1.85757,-0.71826c0.77605,0 1.39936,0.23942 1.86995,0.71826c0.47059,0.47058 0.70587,1.0939 0.70587,1.86995v22.62518c0,0.74302 -0.23529,1.36222 -0.70587,1.85757c-0.47059,0.4871 -1.0939,0.73065 -1.86995,0.73065zM314.23677,152.34473c-0.75128,0 -1.37047,-0.24354 -1.85757,-0.73064c-0.4871,-0.49535 -0.73065,-1.11455 -0.73065,-1.85757v-24.34653c0,-0.77605 0.24355,-1.39937 0.73065,-1.86995c0.4871,-0.47884 1.10628,-0.71826 1.85757,-0.71826c0.77605,0 1.39936,0.23942 1.86995,0.71826c0.47059,0.47058 0.70587,1.0939 0.70587,1.86995v24.34653c0,0.74302 -0.23529,1.36222 -0.70587,1.85757c-0.47059,0.4871 -1.0939,0.73064 -1.86995,0.73064zM363.63184,145.08783c0,-2.03094 0.49947,-3.84723 1.49843,-5.44886c0.99896,-1.60989 2.34467,-2.88542 4.03712,-3.82659c1.69245,-0.94942 3.55002,-1.42414 5.5727,-1.42414c2.03094,0 3.54589,0.33023 4.54485,0.9907c0.99896,0.66047 1.37872,1.44478 1.1393,2.35292c-0.09907,0.47884 -0.29308,0.84623 -0.58203,1.10216c-0.28895,0.24767 -0.61919,0.40454 -0.9907,0.47058c-0.37151,0.06605 -0.77605,0.04953 -1.21361,-0.04954c-2.16303,-0.43756 -4.10729,-0.47058 -5.83276,-0.09907c-1.72548,0.37151 -3.08769,1.06501 -4.08665,2.08048c-0.99896,1.01547 -1.49844,2.29925 -1.49844,3.85135zM363.68137,162.43751c-0.80908,0 -1.43239,-0.21052 -1.86996,-0.63157c-0.43756,-0.42105 -0.65634,-1.05675 -0.65634,-1.90711v-22.67471c0,-0.80908 0.21878,-1.43239 0.65634,-1.86995c0.43756,-0.44582 1.06088,-0.66872 1.86996,-0.66872c0.85035,0 1.48605,0.21465 1.9071,0.64396c0.42105,0.42105 0.63158,1.05262 0.63158,1.89472v22.67471c0,0.81733 -0.21053,1.44478 -0.63158,1.88234c-0.42105,0.43756 -1.05674,0.65634 -1.9071,0.65634zM396.80568,162.63565c-2.80699,0 -5.30026,-0.59855 -7.4798,-1.79565c-2.17955,-1.1971 -3.88851,-2.8524 -5.12689,-4.9659c-1.23012,-2.1135 -1.84519,-4.54072 -1.84519,-7.28166c0,-2.77397 0.58204,-5.2177 1.74612,-7.3312c1.17233,-2.1135 2.78635,-3.7688 4.84206,-4.9659c2.06396,-1.20535 4.4334,-1.80803 7.10829,-1.80803c2.63362,0 4.89573,0.58617 6.78632,1.7585c1.89885,1.16407 3.34775,2.76984 4.34671,4.8173c0.99896,2.0392 1.49844,4.39624 1.49844,7.07115c0,0.64396 -0.22291,1.17645 -0.66872,1.5975c-0.43756,0.42105 -0.99483,0.63157 -1.67181,0.63157h-20.43325v-4.06188h20.28464l-2.08047,1.42414c-0.03303,-1.69245 -0.37152,-3.20327 -1.01547,-4.53247c-0.64396,-1.33745 -1.55623,-2.3942 -2.73682,-3.17025c-1.18059,-0.7843 -2.61711,-1.17646 -4.30956,-1.17646c-1.93187,0 -3.58304,0.42517 -4.95352,1.27553c-1.36221,0.8421 -2.39832,2.00204 -3.10833,3.47984c-0.71001,1.46955 -1.065,3.1331 -1.065,4.99067c0,1.85757 0.42104,3.51287 1.26314,4.9659c0.8421,1.45302 2.00617,2.60471 3.49223,3.45507c1.49431,0.8421 3.20327,1.26315 5.12689,1.26315c1.0485,0 2.12176,-0.19401 3.21979,-0.58204c1.10629,-0.38802 1.99379,-0.83797 2.66251,-1.34983c0.51187,-0.37151 1.06088,-0.56553 1.64704,-0.58204c0.59442,-0.01651 1.11041,0.16099 1.54798,0.53251c0.57791,0.51187 0.88338,1.07326 0.9164,1.68419c0.03303,0.60268 -0.23529,1.12693 -0.80494,1.57274c-1.15582,0.90814 -2.58821,1.65117 -4.29718,2.22908c-1.70071,0.56966 -3.33124,0.85448 -4.8916,0.85448zM426.83255,162.63565c-2.63362,0 -5.00718,-0.61506 -7.12068,-1.84519c-2.1135,-1.23838 -3.78944,-2.92257 -5.02782,-5.05258c-1.23012,-2.13001 -1.84518,-4.52833 -1.84518,-7.19497c0,-2.6749 0.56552,-5.0691 1.69657,-7.1826c1.13106,-2.1135 2.67903,-3.78531 4.64393,-5.01543c1.9649,-1.23838 4.1816,-1.85756 6.6501,-1.85756c1.98966,0 3.83072,0.41692 5.52317,1.25076c1.69245,0.82558 3.11246,1.94838 4.26002,3.36839v-13.69647c0,-0.77605 0.24355,-1.39937 0.73064,-1.86995c0.49535,-0.47884 1.11455,-0.71826 1.85757,-0.71826c0.77605,0 1.39936,0.23942 1.86995,0.71826c0.47884,0.47058 0.71826,1.0939 0.71826,1.86995v23.13292c0,2.66664 -0.61919,5.06497 -1.85757,7.19498c-1.23012,2.13001 -2.89367,3.8142 -4.99066,5.05258c-2.09699,1.23012 -4.46642,1.84519 -7.10829,1.84519zM426.83255,158.07842c1.72548,0 3.2652,-0.4128 4.61915,-1.23838c1.35396,-0.83384 2.41897,-1.97728 3.19502,-3.43031c0.77605,-1.45303 1.16407,-3.07531 1.16407,-4.86683c0,-1.82455 -0.38802,-3.44682 -1.16407,-4.86683c-0.77605,-1.42827 -1.84106,-2.55519 -3.19502,-3.38077c-1.35396,-0.82558 -2.89368,-1.23838 -4.61915,-1.23838c-1.68419,0 -3.21153,0.4128 -4.582,1.23838c-1.37047,0.82558 -2.45612,1.95251 -3.25694,3.38078c-0.79257,1.42001 -1.18885,3.04228 -1.18885,4.86683c0,1.79152 0.39628,3.41379 1.18885,4.86683c0.80082,1.45302 1.88646,2.59646 3.25694,3.43031c1.37047,0.82558 2.89781,1.23838 4.582,1.23838z" fill="#ffffff" stroke-width="1" stroke-linecap="square"/><path d="M80.28529,227.05347c-0.76639,0 -1.40646,-0.25687 -1.9202,-0.77061c-0.51374,-0.52216 -0.77061,-1.16222 -0.77061,-1.9202v-35.03096c0,-0.79166 0.25687,-1.43594 0.77061,-1.93283c0.51374,-0.50532 1.1538,-0.75797 1.9202,-0.75797h9.36097c2.96451,0 5.66374,0.49268 8.09767,1.47805c2.43393,0.98536 4.54784,2.3834 6.3417,4.19411c1.79387,1.81071 3.17085,3.94146 4.13095,6.39223c0.96852,2.44236 1.45278,5.14579 1.45278,8.11031c0,2.97294 -0.48426,5.69321 -1.45278,8.16084c-0.9601,2.45919 -2.33708,4.59836 -4.13095,6.41749c-1.79387,1.81071 -3.90777,3.20875 -6.3417,4.19411c-2.43393,0.97694 -5.13316,1.46541 -8.09767,1.46541h-9.36097zM82.9761,222.29087h6.67017c2.89714,0 5.4574,-0.66112 7.68079,-1.98336c2.22339,-1.33066 3.97514,-3.15821 5.25528,-5.48266c1.28013,-2.33287 1.9202,-5.00262 1.9202,-8.00924c0,-3.03189 -0.64006,-5.70164 -1.9202,-8.00924c-1.28013,-2.31603 -3.03189,-4.12674 -5.25528,-5.43214c-2.22339,-1.31382 -4.78365,-1.97073 -7.68079,-1.97073h-6.67017v30.88737zM130.4146,227.25559c-2.78765,0 -5.25106,-0.61059 -7.39023,-1.83177c-2.13917,-1.22118 -3.82355,-2.90977 -5.05315,-5.06578c-1.22118,-2.15601 -1.83177,-4.63204 -1.83177,-7.42812c0,-2.82976 0.61059,-5.32265 1.83177,-7.47866c1.2296,-2.15601 2.91398,-3.84461 5.05315,-5.06578c2.13917,-1.2296 4.60258,-1.8444 7.39023,-1.8444c2.76239,0 5.21317,0.6148 7.35233,1.8444c2.13917,1.22118 3.81934,2.90977 5.04052,5.06578c1.2296,2.15601 1.8444,4.6489 1.8444,7.47866c0,2.79608 -0.60638,5.27212 -1.81913,7.42812c-1.20434,2.15601 -2.87608,3.84461 -5.01525,5.06578c-2.13917,1.22118 -4.60679,1.83177 -7.40286,1.83177zM130.4146,222.60669c1.79387,0 3.3814,-0.41267 4.76259,-1.23802c1.3812,-0.83377 2.4592,-1.97494 3.23402,-3.4235c0.77482,-1.44857 1.16222,-3.12032 1.16222,-5.01525c0,-1.89493 -0.38741,-3.5751 -1.16222,-5.04052c-0.77482,-1.47383 -1.85282,-2.62343 -3.23402,-3.44877c-1.3812,-0.82535 -2.96873,-1.23802 -4.76259,-1.23802c-1.79387,0 -3.3814,0.41267 -4.76259,1.23802c-1.37277,0.82535 -2.4592,1.97494 -3.25928,3.44877c-0.79166,1.46541 -1.18749,3.14559 -1.18749,5.04052c0,1.89493 0.39583,3.56668 1.18749,5.01525c0.80008,1.44856 1.88651,2.58973 3.25928,3.4235c1.3812,0.82535 2.96873,1.23802 4.76259,1.23802zM176.42094,227.104c-0.75797,0 -1.38962,-0.24845 -1.89493,-0.74534c-0.49689,-0.50532 -0.74534,-1.13696 -0.74534,-1.89493v-12.7213c0,-1.97073 -0.36214,-3.5751 -1.08643,-4.81313c-0.72429,-1.24644 -1.70123,-2.16864 -2.93083,-2.7666c-1.22118,-0.60638 -2.62343,-0.90957 -4.20675,-0.90957c-1.44857,0 -2.76239,0.29477 -3.94146,0.8843c-1.17065,0.58111 -2.10127,1.36435 -2.79187,2.34971c-0.6906,0.98536 -1.0359,2.1139 -1.0359,3.38561h-3.25928c0,-2.17285 0.52637,-4.1099 1.57911,-5.81112c1.05274,-1.70965 2.49289,-3.06558 4.32044,-4.06779c1.82755,-1.00221 3.88251,-1.50331 6.16484,-1.50331c2.37498,0 4.50152,0.50953 6.3796,1.52858c1.88651,1.01905 3.37298,2.51394 4.45941,4.48467c1.08643,1.96231 1.62964,4.37519 1.62964,7.23864v12.7213c0,0.75797 -0.25266,1.38962 -0.75797,1.89493c-0.49689,0.49689 -1.12433,0.74534 -1.8823,0.74534zM155.15981,227.104c-0.76639,0 -1.39804,-0.24845 -1.89493,-0.74534c-0.49689,-0.50532 -0.74534,-1.13696 -0.74534,-1.89493v-23.08026c0,-0.79166 0.24845,-1.42751 0.74534,-1.90756c0.49689,-0.48847 1.12854,-0.73271 1.89493,-0.73271c0.79166,0 1.42751,0.24424 1.90756,0.73271c0.48005,0.48005 0.72007,1.11591 0.72007,1.90756v23.08026c0,0.75797 -0.24002,1.38962 -0.72007,1.89493c-0.48005,0.49689 -1.11591,0.74534 -1.90756,0.74534zM184.60031,201.20661c-0.54743,0 -0.96852,-0.24845 -1.26329,-0.74534c-0.29477,-0.50532 -0.32003,-1.03168 -0.0758,-1.57911c0.6148,-1.41488 0.98958,-2.56869 1.12433,-3.46141c0.14317,-0.90115 0.15581,-1.68017 0.0379,-2.33708c-0.11791,-0.65691 -0.26529,-1.28434 -0.44215,-1.8823c-0.16844,-0.60638 -0.25266,-1.28855 -0.25266,-2.04653c0,-0.90115 0.3074,-1.64227 0.9222,-2.22339c0.62322,-0.58953 1.36435,-0.8843 2.22339,-0.8843c1.06958,0 1.89914,0.45057 2.48868,1.35172c0.58953,0.89272 0.8843,2.01284 0.8843,3.36034c0,0.89272 -0.18949,1.92862 -0.56848,3.10769c-0.37899,1.17065 -0.85482,2.31603 -1.42751,3.43614c-0.57269,1.12011 -1.18749,2.05074 -1.8444,2.79187c-0.64849,0.74113 -1.25065,1.11169 -1.8065,1.11169zM207.83276,227.05347c-1.72649,0 -3.28034,-0.43794 -4.66153,-1.31382c-1.3812,-0.8843 -2.46762,-2.08442 -3.25928,-3.60037c-0.79166,-1.51595 -1.18749,-3.22559 -1.18749,-5.12894v-24.67201c0,-0.76639 0.24002,-1.38962 0.72007,-1.86967c0.48847,-0.48005 1.11169,-0.72007 1.86967,-0.72007c0.75797,0 1.37698,0.24002 1.85703,0.72007c0.48005,0.48005 0.72007,1.10327 0.72007,1.86967v24.67201c0,1.38119 0.37899,2.5392 1.13696,3.47403c0.76639,0.92641 1.70123,1.38962 2.8045,1.38962h1.75597c0.62322,0 1.14959,0.24424 1.57911,0.73271c0.42952,0.48005 0.64428,1.09906 0.64428,1.85703c0,0.75797 -0.28634,1.3812 -0.85904,1.86967c-0.56427,0.48005 -1.29697,0.72007 -2.19812,0.72007zM196.33684,204.2385c-0.72429,0 -1.30961,-0.20634 -1.75597,-0.61901c-0.44636,-0.4211 -0.66954,-0.93905 -0.66954,-1.55384c0,-0.6906 0.22318,-1.24223 0.66954,-1.65491c0.44636,-0.4211 1.03168,-0.63164 1.75597,-0.63164h11.96333c0.72429,0 1.30961,0.21055 1.75597,0.63164c0.44636,0.41267 0.66954,0.96431 0.66954,1.65491c0,0.6148 -0.22318,1.13275 -0.66954,1.55384c-0.44636,0.41267 -1.03168,0.61901 -1.75597,0.61901zM236.49194,227.05347c-0.65691,0 -1.24223,-0.24002 -1.75597,-0.72007c-0.51374,-0.48847 -0.77061,-1.12854 -0.77061,-1.9202v-25.50577c0,-2.48446 0.48847,-4.64048 1.46541,-6.46803c0.98536,-1.82755 2.35814,-3.25086 4.11832,-4.26991c1.76018,-1.01905 3.79407,-1.52858 6.10168,-1.52858c0.75797,0 1.3854,0.22739 1.8823,0.68218c0.50532,0.44636 0.75797,1.01063 0.75797,1.69281c0,0.65691 -0.25266,1.22118 -0.75797,1.69281c-0.49689,0.4632 -1.12433,0.69481 -1.8823,0.69481c-1.27171,0 -2.39183,0.29477 -3.36034,0.8843c-0.96852,0.58111 -1.72228,1.38962 -2.26128,2.42551c-0.53058,1.0359 -0.79587,2.26128 -0.79587,3.67617v26.02372c0,0.79166 -0.24002,1.43173 -0.72007,1.9202c-0.48005,0.48005 -1.1538,0.72007 -2.02126,0.72007zM231.72935,204.2385c-0.72429,0 -1.30961,-0.20634 -1.75597,-0.61901c-0.44636,-0.4211 -0.66954,-0.93905 -0.66954,-1.55384c0,-0.6906 0.22318,-1.24223 0.66954,-1.65491c0.44636,-0.4211 1.03168,-0.63164 1.75597,-0.63164h12.78447c0.72429,0 1.30961,0.21055 1.75597,0.63164c0.45478,0.41267 0.68218,0.96431 0.68218,1.65491c0,0.6148 -0.22739,1.13275 -0.68218,1.55384c-0.44636,0.41267 -1.03168,0.61901 -1.75597,0.61901zM263.20174,227.25559c-2.51815,0 -4.77944,-0.62743 -6.78385,-1.8823c-2.00441,-1.26329 -3.58352,-2.97294 -4.73733,-5.12895c-1.1538,-2.15601 -1.7307,-4.59415 -1.7307,-7.31443c0,-2.7287 0.62743,-5.17948 1.8823,-7.35233c1.26329,-2.17285 2.97294,-3.88671 5.12895,-5.14158c2.15601,-1.26329 4.57731,-1.89493 7.2639,-1.89493c2.69501,0 5.1121,0.63164 7.25127,1.89493c2.13917,1.25487 3.83618,2.96873 5.09105,5.14158c1.26329,2.17285 1.89493,4.62363 1.89493,7.35233h-2.02126c0,2.72028 -0.5769,5.15842 -1.7307,7.31443c-1.1538,2.15601 -2.73291,3.86566 -4.73733,5.12895c-1.99599,1.25487 -4.25307,1.8823 -6.77122,1.8823zM264.225,222.60669c1.76018,0 3.33087,-0.4211 4.71206,-1.26329c1.3812,-0.85061 2.46762,-2.00862 3.25928,-3.47403c0.79166,-1.46541 1.18749,-3.1119 1.18749,-4.93945c0,-1.86124 -0.39583,-3.52457 -1.18749,-4.98999c-0.79166,-1.47383 -1.87809,-2.63185 -3.25928,-3.47404c-1.3812,-0.84219 -2.95188,-1.26329 -4.71206,-1.26329c-1.71807,0 -3.27613,0.4211 -4.67416,1.26329c-1.39804,0.84219 -2.50552,2.00021 -3.32245,3.47404c-0.8085,1.46541 -1.21276,3.12874 -1.21276,4.98999c0,1.82755 0.40425,3.47404 1.21276,4.93945c0.81692,1.46541 1.92441,2.62342 3.32245,3.47403c1.39804,0.84219 2.95609,1.26329 4.67416,1.26329zM275.82198,227.104c-0.75797,0 -1.38962,-0.24845 -1.89493,-0.74534c-0.49689,-0.50532 -0.74534,-1.13696 -0.74534,-1.89493v-7.90817l0.98536,-5.4953l4.29518,1.86967v11.53381c0,0.75797 -0.25266,1.38962 -0.75797,1.89493c-0.49689,0.49689 -1.12433,0.74534 -1.8823,0.74534zM293.05066,227.05347c-1.51595,0 -2.86345,-0.41267 -4.04252,-1.23802c-1.17065,-0.83377 -2.08442,-1.96652 -2.74133,-3.39824c-0.64849,-1.43173 -0.97273,-3.07821 -0.97273,-4.93945v-28.24711c0,-0.75797 0.24002,-1.37698 0.72007,-1.85703c0.48005,-0.48847 1.10327,-0.73271 1.86967,-0.73271c0.75797,0 1.37698,0.24424 1.85703,0.73271c0.48005,0.48005 0.72007,1.09906 0.72007,1.85703v28.24711c0,1.28013 0.24002,2.33286 0.72007,3.15821c0.48847,0.82535 1.11169,1.23802 1.86967,1.23802h1.30119c0.68218,0 1.23802,0.24424 1.66754,0.73271c0.43794,0.48005 0.65691,1.09906 0.65691,1.85703c0,0.75797 -0.32845,1.3812 -0.98536,1.86967c-0.65691,0.48005 -1.50331,0.72007 -2.53921,0.72007zM308.5739,227.05347c-1.51595,0 -2.86345,-0.41267 -4.04252,-1.23802c-1.17065,-0.83377 -2.08442,-1.96652 -2.74133,-3.39824c-0.64849,-1.43173 -0.97273,-3.07821 -0.97273,-4.93945v-28.24711c0,-0.75797 0.24002,-1.37698 0.72007,-1.85703c0.48005,-0.48847 1.10327,-0.73271 1.86967,-0.73271c0.75797,0 1.37698,0.24424 1.85703,0.73271c0.48005,0.48005 0.72007,1.09906 0.72007,1.85703v28.24711c0,1.28013 0.24002,2.33286 0.72007,3.15821c0.48847,0.82535 1.11169,1.23802 1.86967,1.23802h1.30119c0.68218,0 1.23802,0.24424 1.66754,0.73271c0.43794,0.48005 0.65691,1.09906 0.65691,1.85703c0,0.75797 -0.32845,1.3812 -0.98536,1.86967c-0.65691,0.48005 -1.50331,0.72007 -2.53921,0.72007zM345.35984,227.25559c-2.78765,0 -5.25106,-0.61059 -7.39023,-1.83177c-2.13917,-1.22118 -3.82355,-2.90977 -5.05315,-5.06578c-1.22118,-2.15601 -1.83177,-4.63204 -1.83177,-7.42812c0,-2.82976 0.61059,-5.32265 1.83177,-7.47866c1.2296,-2.15601 2.91398,-3.84461 5.05315,-5.06578c2.13917,-1.2296 4.60258,-1.8444 7.39023,-1.8444c2.76239,0 5.21317,0.6148 7.35233,1.8444c2.13917,1.22118 3.81934,2.90977 5.04052,5.06578c1.2296,2.15601 1.8444,4.6489 1.8444,7.47866c0,2.79608 -0.60638,5.27212 -1.81913,7.42812c-1.20434,2.15601 -2.87608,3.84461 -5.01525,5.06578c-2.13917,1.22118 -4.60679,1.83177 -7.40286,1.83177zM345.35984,222.60669c1.79387,0 3.3814,-0.41267 4.76259,-1.23802c1.3812,-0.83377 2.4592,-1.97494 3.23402,-3.4235c0.77482,-1.44857 1.16222,-3.12032 1.16222,-5.01525c0,-1.89493 -0.38741,-3.5751 -1.16222,-5.04052c-0.77482,-1.47383 -1.85282,-2.62343 -3.23402,-3.44877c-1.3812,-0.82535 -2.96873,-1.23802 -4.76259,-1.23802c-1.79387,0 -3.3814,0.41267 -4.76259,1.23802c-1.37277,0.82535 -2.4592,1.97494 -3.25928,3.44877c-0.79166,1.46541 -1.18749,3.14559 -1.18749,5.04052c0,1.89493 0.39583,3.56668 1.18749,5.01525c0.80008,1.44856 1.88651,2.58973 3.25928,3.4235c1.3812,0.82535 2.96873,1.23802 4.76259,1.23802zM370.50931,227.05347c-0.65691,0 -1.24223,-0.24002 -1.75597,-0.72007c-0.51374,-0.48847 -0.77061,-1.12854 -0.77061,-1.9202v-25.50577c0,-2.48446 0.48847,-4.64048 1.46541,-6.46803c0.98536,-1.82755 2.35814,-3.25086 4.11832,-4.26991c1.76018,-1.01905 3.79407,-1.52858 6.10168,-1.52858c0.75797,0 1.3854,0.22739 1.8823,0.68218c0.50532,0.44636 0.75797,1.01063 0.75797,1.69281c0,0.65691 -0.25266,1.22118 -0.75797,1.69281c-0.49689,0.4632 -1.12433,0.69481 -1.8823,0.69481c-1.27171,0 -2.39183,0.29477 -3.36034,0.8843c-0.96852,0.58111 -1.72228,1.38962 -2.26128,2.42551c-0.53058,1.0359 -0.79587,2.26128 -0.79587,3.67617v26.02372c0,0.79166 -0.24002,1.43173 -0.72007,1.9202c-0.48005,0.48005 -1.1538,0.72007 -2.02126,0.72007zM365.74671,204.2385c-0.72429,0 -1.30961,-0.20634 -1.75597,-0.61901c-0.44636,-0.4211 -0.66954,-0.93905 -0.66954,-1.55384c0,-0.6906 0.22318,-1.24223 0.66954,-1.65491c0.44636,-0.4211 1.03168,-0.63164 1.75597,-0.63164h12.78447c0.72429,0 1.30961,0.21055 1.75597,0.63164c0.45478,0.41267 0.68218,0.96431 0.68218,1.65491c0,0.6148 -0.22739,1.13275 -0.68218,1.55384c-0.44636,0.41267 -1.03168,0.61901 -1.75597,0.61901zM389.1049,227.05347c-0.65691,0 -1.24223,-0.24002 -1.75597,-0.72007c-0.51374,-0.48847 -0.77061,-1.12854 -0.77061,-1.9202v-25.50577c0,-2.48446 0.48847,-4.64048 1.46541,-6.46803c0.98536,-1.82755 2.35814,-3.25086 4.11832,-4.26991c1.76018,-1.01905 3.79407,-1.52858 6.10168,-1.52858c0.75797,0 1.3854,0.22739 1.8823,0.68218c0.50532,0.44636 0.75797,1.01063 0.75797,1.69281c0,0.65691 -0.25266,1.22118 -0.75797,1.69281c-0.49689,0.4632 -1.12433,0.69481 -1.8823,0.69481c-1.27171,0 -2.39183,0.29477 -3.36034,0.8843c-0.96852,0.58111 -1.72228,1.38962 -2.26128,2.42551c-0.53058,1.0359 -0.79587,2.26128 -0.79587,3.67617v26.02372c0,0.79166 -0.24002,1.43173 -0.72007,1.9202c-0.48005,0.48005 -1.1538,0.72007 -2.02126,0.72007zM384.34231,204.2385c-0.72429,0 -1.30961,-0.20634 -1.75597,-0.61901c-0.44636,-0.4211 -0.66954,-0.93905 -0.66954,-1.55384c0,-0.6906 0.22318,-1.24223 0.66954,-1.65491c0.44636,-0.4211 1.03168,-0.63164 1.75597,-0.63164h12.78447c0.72429,0 1.30961,0.21055 1.75597,0.63164c0.45478,0.41267 0.68218,0.96431 0.68218,1.65491c0,0.6148 -0.22739,1.13275 -0.68218,1.55384c-0.44636,0.41267 -1.03168,0.61901 -1.75597,0.61901z" fill="#ffffff" stroke-width="1" stroke-linecap="square"/></g></g></svg>